<svg width="100%" height="100%" viewBox="0 0 24 24">
	<path d="M12,18.019c-5.502,-0 -9.962,-1.58 -9.962,-3.528l-0,5.188l0.018,0c0.304,1.852 4.639,3.321 9.944,3.321c5.305,-0 9.64,-1.469 9.944,-3.321l0.018,0l0,-5.188c0,1.948 -4.46,3.528 -9.962,3.528Z" style="fill:#424a60;fill-rule:nonzero;"/>
	<path d="M12,13.038c-5.502,-0 -9.962,-1.58 -9.962,-3.529l-0,5.189l0.018,0c0.304,1.852 4.639,3.321 9.944,3.321c5.305,-0 9.64,-1.469 9.944,-3.321l0.018,0l0,-5.189c0,1.949 -4.46,3.529 -9.962,3.529Z" style="fill:#556080;fill-rule:nonzero;"/>
	<path d="M12,8.057c-5.502,-0 -9.962,-1.58 -9.962,-3.529l-0,5.189l0.018,-0c0.304,1.852 4.639,3.321 9.944,3.321c5.305,-0 9.64,-1.469 9.944,-3.321l0.018,-0l0,-5.189c0,1.949 -4.46,3.529 -9.962,3.529Z" style="fill:#7383bf;fill-rule:nonzero;"/>
	<ellipse cx="12" cy="4.528" rx="9.962" ry="3.528" style="fill:#7fabda;"/>
</svg>