<svg width="100%" height="100%" viewBox="0 0 463 171">
		<rect x="401.32" y="89.106" width="20" height="26.65" style="stroke-width:2px;"/>
		<rect x="401.32" y="115.781" width="20" height="26.65" style="stroke-width:2px;"/>
		<rect x="421.32" y="115.781" width="20" height="26.65" style="stroke-width:2px;"/>
		<rect x="401.32" y="142.456" width="20" height="26.65" style="stroke-width:2px;"/>
		<rect x="421.32" y="142.456" width="20" height="26.65" style="stroke-width:2px;"/>
		<rect x="441.32" y="142.456" width="20" height="26.65" style="stroke-width:2px;"/>
		<rect x="41.319" y="54.456" width="20" height="26.65" style="stroke-width:2px;"/>
		<rect x="41.319" y="27.781" width="20" height="26.65" style="stroke-width:2px;"/>
		<rect x="21.319" y="27.781" width="20" height="26.65" style="stroke-width:2px;"/>
		<rect x="41.319" y="1.106" width="20" height="26.65" style="stroke-width:2px;"/>
		<rect x="21.32" y="1.106" width="20" height="26.65" style="stroke-width:2px;"/>
		<rect x="1.32" y="1.106" width="20" height="26.65" style="stroke-width:2px;"/>
		<path d="M61.32,109.106l41.333,0l0,60l20,0l0,-80l-61.333,0l-0,20Zm260,-20l-20,0l-0,80l20,0l-0,-80Zm-80,80l-0,-15.833l10,-10l10,10l-0,15.833l20,0l-0,-24.166l-15.834,-15.834l15.834,-15.833l-0,-24.167l-20,0l-0,15.834l-10,10l-10,-10l-0,-15.834l-20,0l-0,24.167l15.833,15.833l-15.833,15.834l-0,24.166l20,0Zm160,0l-0,-80l-20,0l-0,16.667l-40,0l-0,63.333l60,0Zm-260,-20l-0,20l60,0l-0,-80l-60,0l-0,20l40,0l-0,10l-25,0l-0,20l25,0l-0,10l-40,0Zm220,-23.333l20,0l-0,23.333l-20,0l-0,-23.333Zm-220,-44.667l20,0l-0,-80l-20,0l-0,80Zm80,-80l-0,15.834l-10,10l-10,-10l-0,-15.834l-20,0l-0,24.167l15.833,15.833l-15.833,15.834l-0,24.166l20,0l-0,-15.833l10,-10l10,10l-0,15.833l20,0l-0,-24.166l-15.834,-15.834l15.834,-15.833l-0,-24.167l-20,0Zm-160.001,0l0,80l20,0l0,-16.666l40,-0l0,-63.334l-60,0Zm260.001,20l-0,-20l-60,0l-0,80l60,0l-0,-20l-40,0l-0,-10l25,0l-0,-20l-25,0l-0,-10l40,0Zm80,40l-41.334,0l0,-60l-20,0l0,80l61.334,0l-0,-20Zm-300.001,-16.666l-20,-0l0,-23.334l20,0l0,23.334Z" style="fill-rule:nonzero;stroke-width:2px;stroke-linecap:butt;stroke-miterlimit:2;"/>
</svg>