<svg width="100%" height="100%" viewBox="0 0 24 24" version="1.1" xmlns="http://www.w3.org/2000/svg" xmlns:xlink="http://www.w3.org/1999/xlink" xml:space="preserve" xmlns:serif="http://www.serif.com/" style="fill-rule:evenodd;clip-rule:evenodd;stroke-linejoin:round;stroke-miterlimit:2;">
	<path d="M12.579,10.263l5.21,0c2.866,0 5.211,2.332 5.211,5.211l0,6.947c0,0.32 -0.259,0.579 -0.579,0.579l-20.842,0c-0.32,0 -0.579,-0.259 -0.579,-0.579l-0,-7.526c-0,-2.567 2.064,-4.632 4.632,-4.632l5.789,0l0,-8.684c0,-0.32 0.259,-0.579 0.579,-0.579l4.632,-0c0.153,-0 0.3,0.061 0.409,0.17l2.316,2.315c0.226,0.226 0.226,0.593 -0,0.819l-2.316,2.316c-0.109,0.108 -0.256,0.169 -0.409,0.169l-4.053,0l-0,3.474Zm5.21,1.158l-9.092,0c0.96,0.847 1.566,2.087 1.566,3.474l0,6.947l11.579,0l0,-6.368c0,-2.239 -1.824,-4.053 -4.053,-4.053Zm-8.684,10.421l0,-6.947c0,-1.926 -1.558,-3.474 -3.473,-3.474c-1.926,0 -3.474,1.548 -3.474,3.474l-0,6.947l6.947,0Zm-4.052,-5.789c-0.32,-0 -0.579,-0.26 -0.579,-0.579c-0,-0.32 0.259,-0.579 0.579,-0.579l1.158,-0c0.319,-0 0.578,0.259 0.578,0.579c0,0.319 -0.259,0.579 -0.578,0.579l-1.158,-0Zm7.526,-10.421l3.813,-0l1.737,-1.737l-1.737,-1.737l-3.813,-0l-0,3.474Z"/>
</svg>