<?xml version="1.0" encoding="UTF-8" standalone="no"?>
<!DOCTYPE svg PUBLIC "-//W3C//DTD SVG 1.1//EN" "http://www.w3.org/Graphics/SVG/1.1/DTD/svg11.dtd">
<svg width="100%" height="100%" viewBox="0 0 456 80" version="1.1" xmlns="http://www.w3.org/2000/svg" xmlns:xlink="http://www.w3.org/1999/xlink" xml:space="preserve" xmlns:serif="http://www.serif.com/" style="fill-rule:evenodd;clip-rule:evenodd;stroke-linejoin:round;stroke-miterlimit:2;">
    <path d="M455.748,39.141c-0.602,-0.941 -1.202,-0.471 -3.486,0.588c-13.816,5.999 -31.24,13.057 -49.502,13.998c-6.97,0.353 -17.302,-0.118 -18.024,-9.646c0,-0.117 0.122,-0.117 0.482,-0.588c3.004,-2 10.452,-6.117 13.336,-9.528c3.124,-3.529 1.922,-7.175 0.842,-8.352c-1.682,-1.764 -4.806,-2.352 -8.292,-0.353c-3.364,2 -8.17,9.058 -8.89,16.469c0,0 -36.166,8.587 -39.17,9.292c0.962,-3.881 1.562,-6.352 2.282,-9.292c1.682,-2.353 6.73,-6.588 12.256,-14.116c2.164,-2.941 -2.642,-8.469 -7.45,-2.353c-1.44,1.883 -5.046,6.823 -7.328,14.234c-1.322,4.117 -31.36,15.762 -23.79,-0.471c6.128,-12.939 22.108,-12.704 25.952,-10.939c1.562,0.705 3.726,-1.647 2.644,-2.353c-7.21,-4.235 -20.306,-0.118 -26.914,5.058c-9.492,7.411 -22.71,16.704 -34.724,18.35c-22.47,3.059 -17.784,-13.88 -16.1,-15.762c8.17,-8.705 14.658,-13.998 19.464,-24.702c3.124,-7.058 -0.24,-8.235 -0.842,-8.47c-1.922,-0.823 -5.646,1.059 -6.248,1.647c-1.802,1.647 -6.968,4.705 -14.538,26.702c-1.322,-1.764 -3.124,-5.764 -11.294,-2.117c-4.566,2.117 -8.772,5.646 -16.702,11.292c-7.088,5.058 -21.386,13.175 -30.758,12.351c-9.973,-0.941 -10.333,-8.469 -9.853,-14.35c0.241,-2.118 0.481,-3.412 0.481,-4c0,-0.706 -0.961,-0.706 -1.682,-0.823c-1.082,-0.118 -2.043,0 -2.163,0.47c-2.163,14.939 -10.934,22.938 -15.139,22.585c-7.209,-0.47 -7.329,-11.88 -6.368,-15.762c2.523,-9.999 4.325,-11.293 4.566,-12.234c0.12,-0.47 -0.361,-0.706 -1.082,-0.941c-0.961,-0.353 -1.682,-0.588 -1.922,-0.353c-0.481,0.236 -6.248,9.881 -7.69,11.881c-6.849,9.763 -19.224,13.763 -24.631,14.704c-11.054,1.999 -15.5,-1.647 -17.302,-3.529c-3.725,-4.117 -2.523,-9.646 -2.523,-19.527c0,-5.058 -4.326,-3.646 -6.008,-2.352c-3.244,2.587 -13.097,14.233 -15.38,18.232c-0.36,0.588 -0.961,0.588 -0.841,-0.117c0.12,-0.824 0.721,-9.176 0.481,-13.057c-0.241,-3.882 -1.803,-5.294 -4.085,-5.999c-5.768,-1.294 -10.093,5.763 -12.737,9.88c-1.441,2.353 -5.647,9.529 -5.647,9.529c0,0 -0.12,-5.647 -1.922,-12.469c-0.24,-0.941 -0.481,-1.647 -0.601,-2.118c-0.721,-2.352 -1.922,-3.881 -3.484,-4.705c-2.764,-1.529 -13.938,0.353 -20.306,1.529c-6.488,1.294 -19.345,4.47 -20.426,4.588c-3.605,-2 -11.535,-3.176 -15.62,-3.882c-12.015,-2.117 -14.298,-5.058 -14.178,-8.94c0.12,-4.117 3.124,-10.234 13.818,-10.939c6.848,-0.471 13.096,4.352 14.298,6.469c0.36,0.588 1.321,1.177 2.163,1.177c1.321,-0.118 1.561,-0.589 1.201,-1.177c-5.767,-8.469 -13.938,-10.116 -21.267,-8.704c-8.411,1.529 -13.337,7.057 -13.097,13.762c0.121,5.058 3.365,7.764 12.136,9.646c5.767,1.294 11.655,2.235 17.061,3.529c0,0 -21.146,5.646 -24.991,15.88c-3.365,9.175 13.337,10.587 24.631,3.411c6.608,-4.117 11.895,-12.233 7.57,-17.644l-0.721,-0.941c10.934,-2.235 31.48,-7.411 35.445,-5.999c2.643,0.941 6.848,9.175 4.686,27.525c0,0.118 -0.12,1.059 -0.12,1.059c0,0.235 0,0.588 0.24,0.706c0.24,0.117 1.201,0 1.562,-0.118c0.841,-0.235 0.841,-1.294 1.081,-2.47c1.322,-6.235 12.616,-26.232 17.663,-26.349c1.682,0 2.883,0.941 3.244,3.999c0.6,5.176 -0.241,14.704 -0.241,15.41c0,1.882 0.481,2.823 1.562,2.823c1.562,0 3.725,-4.353 5.407,-6.705c3.004,-4 9.733,-12.351 12.977,-15.175c0.721,-0.588 1.922,-0.352 1.922,1.059c-0.12,3.294 -0.12,9.175 0.121,13.292c0.12,2.118 1.682,12.94 18.984,12.116c3.604,-0.117 19.584,-3.646 27.755,-13.41c0.601,-0.823 1.922,-2.117 2.283,-2.352c0.24,-0.235 1.081,-1.059 0.961,2.117c0,0.235 0.12,3.411 0.12,3.529c0.481,3.764 1.202,12.469 9.732,12.469c3.725,0 10.814,-4.588 14.779,-13.528c0.241,-0.588 0.361,-1.176 0.961,-1.176c0.481,0 0.481,0.353 0.601,1.059c2.043,11.998 15.259,9.763 18.865,8.822c5.886,-1.412 18.022,-5.646 35.444,-19.291c-4.686,3.646 -8.29,8.704 -9.012,14.939c-0.6,5.646 2.644,8.234 5.288,8.704c2.882,0.471 9.252,0.706 14.778,-7.058c2.764,-3.764 3.364,-6.822 3.364,-6.352c0.722,8.117 11.414,9.764 18.024,9.411c9.372,-0.588 25.472,-8.94 30.638,-12.469c0.36,-0.235 0.962,0.118 0.842,0.588c-0.842,3.294 -1.924,9.175 6.728,9.764c2.644,0.117 12.496,-0.706 19.104,-5.647c-0.48,1.647 -0.6,2.823 -1.682,7.646l-0.48,0.118c-18.744,3.646 -23.79,8.705 -25.474,15.409c-2.642,11.175 7.69,14.822 15.5,11.646c12.256,-4.941 12.736,-22.468 13.458,-25.055c1.562,-1.059 39.29,-9.528 39.65,-9.646c0.24,2 1.322,10.94 17.422,11.292c14.898,0.236 34.244,-5.058 54.55,-14.468c1.442,-0.235 1.922,-0.941 1.322,-1.882Zm-102.612,-13.881c1.682,-1.294 3.366,-0.117 2.284,1.412c-0.48,0.706 -8.892,10.351 -8.892,10.351c-0,-0 4.086,-9.88 6.608,-11.763Zm-70.77,-19.173c7.45,-7.176 7.33,-2.353 4.566,2.94c-6.848,12.94 -16.46,20.35 -16.46,20.35c-0,-0 3.964,-15.527 11.894,-23.29Zm-247.634,34.112c-0.961,4 -7.209,12.352 -18.623,13.646c-9.492,1.058 -10.093,-2.941 -9.372,-5.176c1.442,-4.705 7.089,-7.646 15.379,-11.41c2.163,-0.941 7.45,-2.706 9.493,-3.294c2.883,0.118 3.844,3.176 3.123,6.234Zm227.81,5.176c-4.446,6.823 -11.414,10.116 -14.9,7.881c-3.484,-2.235 -3.002,-8.469 1.804,-15.291c4.806,-6.705 11.414,-11.175 14.898,-8.94c3.484,2.235 2.644,9.41 -1.802,16.35Zm66.444,31.29c-5.046,2.47 -13.096,2.117 -12.976,-6.47c0.12,-12.704 21.266,-14.115 23.19,-15.292c-1.082,4.823 -1.202,17.292 -10.214,21.762Zm61.518,-47.64c2.042,-2.235 4.206,-4 6.728,-2.235c1.082,0.823 1.682,3.646 -1.08,6.116c-4.206,3.765 -11.174,7.529 -11.174,7.529c0,-0 1.682,-7.293 5.526,-11.41Z" style="fill-rule:nonzero;"/>
</svg>
