<svg width="100%" height="100%" viewBox="0 0 410 105" version="1.1" xmlns="http://www.w3.org/2000/svg" xmlns:xlink="http://www.w3.org/1999/xlink" xml:space="preserve" xmlns:serif="http://www.serif.com/" style="fill-rule:evenodd;clip-rule:evenodd;stroke-linejoin:round;stroke-miterlimit:2;">
	<path d="M191.357,63.639l-50.391,0l22.738,-1.17c0.998,-21.344 18.252,-38.468 39.649,-39.258l1.546,-22.789l1.545,22.789c21.396,0.79 38.649,17.911 39.649,39.252l22.941,1.176l-50.391,0c-0.407,-7.178 -6.364,-12.882 -13.643,-12.882c-7.279,0 -13.236,5.704 -13.643,12.882Zm15.452,-35.051l1.327,19.562l7.424,-9.911l-1.444,12.388l16.114,-11.612c-6.072,-6.053 -14.297,-9.947 -23.421,-10.427Zm-37.726,33.604l19.543,-1.006l-8.443,-7.532l10.921,1.551l-11.088,-16.332l15.665,11.754l-1.384,-11.884l7.365,9.407l1.327,-19.562c-18.179,0.956 -32.791,15.467 -33.906,33.604Zm61.223,-23.101l-11.612,16.114l10.975,-2.045l-8.498,8.026l19.543,1.001c-0.553,-8.994 -4.427,-17.096 -10.408,-23.096Zm-31.238,24.548c0.384,-2.932 2.896,-5.199 5.932,-5.199c3.036,-0 5.548,2.267 5.932,5.199l-11.864,0Z"/>
	<path d="M9.378,103.109c-0.33,-0 -0.578,-0.12 -0.743,-0.361c-0.165,-0.24 -0.172,-0.51 -0.022,-0.81l14.097,-30.312c0.15,-0.33 0.406,-0.496 0.766,-0.496l0.45,0c0.331,0 0.586,0.166 0.766,0.496l14.097,30.312c0.151,0.3 0.143,0.57 -0.022,0.81c-0.165,0.241 -0.413,0.361 -0.743,0.361l-5,-0c-0.42,-0 -0.735,-0.083 -0.946,-0.248c-0.21,-0.165 -0.42,-0.458 -0.63,-0.878l-1.622,-3.558l-12.25,-0l-1.622,3.603c-0.12,0.27 -0.308,0.518 -0.563,0.743c-0.255,0.225 -0.608,0.338 -1.058,0.338l-4.955,-0Zm17.746,-10.81l-3.423,-7.431l-0.045,-0l-3.378,7.431l6.846,0Z" style="fill-rule:nonzero;"/>
	<path d="M44.6,72.437c-0,-0.241 0.082,-0.443 0.247,-0.608c0.165,-0.166 0.368,-0.248 0.608,-0.248l5.36,-0c0.24,-0 0.443,0.082 0.608,0.248c0.165,0.165 0.248,0.367 0.248,0.608l-0,24.051l10.719,-0c0.24,-0 0.443,0.082 0.608,0.248c0.165,0.165 0.248,0.367 0.248,0.608l-0,4.909c-0,0.24 -0.083,0.443 -0.248,0.608c-0.165,0.165 -0.368,0.248 -0.608,0.248l-16.935,-0c-0.24,-0 -0.443,-0.083 -0.608,-0.248c-0.165,-0.165 -0.247,-0.368 -0.247,-0.608l-0,-29.816Z" style="fill-rule:nonzero;"/>
	<path d="M69.822,72.437c-0,-0.241 0.082,-0.443 0.248,-0.608c0.165,-0.166 0.367,-0.248 0.608,-0.248l5.359,-0c0.24,-0 0.443,0.082 0.608,0.248c0.165,0.165 0.248,0.367 0.248,0.608l0,24.051l10.719,-0c0.241,-0 0.443,0.082 0.609,0.248c0.165,0.165 0.247,0.367 0.247,0.608l0,4.909c0,0.24 -0.082,0.443 -0.247,0.608c-0.166,0.165 -0.368,0.248 -0.609,0.248l-16.934,-0c-0.241,-0 -0.443,-0.083 -0.608,-0.248c-0.166,-0.165 -0.248,-0.368 -0.248,-0.608l-0,-29.816Z" style="fill-rule:nonzero;"/>
	<path d="M108.106,72.437c-0,-0.241 0.082,-0.443 0.247,-0.608c0.165,-0.166 0.368,-0.248 0.608,-0.248l10.855,-0c1.471,-0 2.83,0.263 4.076,0.788c1.246,0.526 2.312,1.239 3.198,2.139c0.886,0.901 1.576,1.96 2.072,3.176c0.495,1.216 0.743,2.499 0.743,3.851c-0,1.411 -0.248,2.725 -0.743,3.941c-0.496,1.216 -1.186,2.289 -2.072,3.22c-0.886,0.931 -1.944,1.659 -3.175,2.184c-1.232,0.526 -2.583,0.789 -4.054,0.789l-4.729,-0l-0,10.584c-0,0.24 -0.083,0.443 -0.248,0.608c-0.165,0.165 -0.368,0.248 -0.608,0.248l-5.315,-0c-0.24,-0 -0.443,-0.083 -0.608,-0.248c-0.165,-0.165 -0.247,-0.368 -0.247,-0.608l-0,-29.816Zm11.575,12.656c0.961,-0 1.749,-0.338 2.364,-1.014c0.616,-0.675 0.924,-1.523 0.924,-2.544c-0,-0.961 -0.308,-1.757 -0.924,-2.387c-0.615,-0.631 -1.403,-0.946 -2.364,-0.946l-4.549,-0l-0,6.891l4.549,-0Z" style="fill-rule:nonzero;"/>
	<path d="M134.904,87.39c0,-2.252 0.421,-4.369 1.261,-6.351c0.841,-1.982 1.99,-3.701 3.446,-5.157c1.456,-1.456 3.168,-2.612 5.134,-3.468c1.967,-0.856 4.076,-1.284 6.328,-1.284c2.252,0 4.362,0.428 6.329,1.284c1.966,0.856 3.685,2.012 5.157,3.468c1.471,1.456 2.627,3.175 3.468,5.157c0.84,1.982 1.261,4.099 1.261,6.351c-0,2.252 -0.421,4.361 -1.261,6.328c-0.841,1.967 -1.997,3.678 -3.468,5.134c-1.472,1.457 -3.191,2.605 -5.157,3.446c-1.967,0.841 -4.077,1.261 -6.329,1.261c-2.252,0 -4.361,-0.42 -6.328,-1.261c-1.966,-0.841 -3.678,-1.989 -5.134,-3.446c-1.456,-1.456 -2.605,-3.167 -3.446,-5.134c-0.84,-1.967 -1.261,-4.076 -1.261,-6.328Zm7.207,-0c-0,1.231 0.24,2.387 0.72,3.468c0.481,1.081 1.126,2.027 1.937,2.837c0.811,0.811 1.756,1.457 2.837,1.937c1.081,0.48 2.237,0.721 3.468,0.721c1.232,-0 2.395,-0.241 3.491,-0.721c1.096,-0.48 2.049,-1.126 2.86,-1.937c0.811,-0.81 1.456,-1.756 1.937,-2.837c0.48,-1.081 0.72,-2.237 0.72,-3.468c0,-1.231 -0.24,-2.395 -0.72,-3.491c-0.481,-1.096 -1.126,-2.057 -1.937,-2.882c-0.811,-0.826 -1.764,-1.479 -2.86,-1.96c-1.096,-0.48 -2.259,-0.72 -3.491,-0.72c-1.231,-0 -2.387,0.24 -3.468,0.72c-1.081,0.481 -2.026,1.134 -2.837,1.96c-0.811,0.825 -1.456,1.786 -1.937,2.882c-0.48,1.096 -0.72,2.26 -0.72,3.491Z" style="fill-rule:nonzero;"/>
	<path d="M174.854,72.437c0,-0.241 0.083,-0.443 0.248,-0.608c0.165,-0.166 0.368,-0.248 0.608,-0.248l5.405,-0c0.24,-0 0.443,0.082 0.608,0.248c0.165,0.165 0.248,0.367 0.248,0.608l-0,29.816c-0,0.24 -0.083,0.443 -0.248,0.608c-0.165,0.165 -0.368,0.248 -0.608,0.248l-5.405,-0c-0.24,-0 -0.443,-0.083 -0.608,-0.248c-0.165,-0.165 -0.248,-0.368 -0.248,-0.608l0,-29.816Z" style="fill-rule:nonzero;"/>
	<path d="M191.294,71.941c-0,-0.24 0.083,-0.435 0.248,-0.585c0.165,-0.15 0.368,-0.226 0.608,-0.226l0.675,0c0.241,0 0.443,0.068 0.608,0.203c0.166,0.135 0.338,0.293 0.518,0.473l17.296,16.62l0.045,-0l-0,-15.989c-0,-0.241 0.082,-0.443 0.247,-0.608c0.165,-0.166 0.368,-0.248 0.608,-0.248l5.405,-0c0.24,-0 0.443,0.082 0.608,0.248c0.165,0.165 0.248,0.367 0.248,0.608l-0,30.311c-0,0.271 -0.083,0.473 -0.248,0.608c-0.165,0.136 -0.368,0.203 -0.608,0.203l-0.45,0c-0.421,0 -0.796,-0.165 -1.126,-0.495l-17.521,-17.611l-0.045,0l0,16.8c0,0.24 -0.082,0.443 -0.247,0.608c-0.166,0.165 -0.368,0.248 -0.608,0.248l-5.36,-0c-0.24,-0 -0.443,-0.083 -0.608,-0.248c-0.165,-0.165 -0.248,-0.368 -0.248,-0.608l-0.045,-30.312Z" style="fill-rule:nonzero;"/>
	<path d="M232.686,78.202l-6.441,-0c-0.24,-0 -0.443,-0.083 -0.608,-0.248c-0.165,-0.165 -0.248,-0.368 -0.248,-0.608l0,-4.909c0,-0.241 0.083,-0.443 0.248,-0.608c0.165,-0.166 0.368,-0.248 0.608,-0.248l19.997,-0c0.241,-0 0.443,0.082 0.609,0.248c0.165,0.165 0.247,0.367 0.247,0.608l0,4.909c0,0.24 -0.082,0.443 -0.247,0.608c-0.166,0.165 -0.368,0.248 -0.609,0.248l-6.44,-0l-0,24.051c-0,0.24 -0.083,0.443 -0.248,0.608c-0.165,0.165 -0.368,0.248 -0.608,0.248l-5.405,-0c-0.24,-0 -0.443,-0.083 -0.608,-0.248c-0.165,-0.165 -0.247,-0.368 -0.247,-0.608l-0,-24.051Z" style="fill-rule:nonzero;"/>
	<path d="M263.042,103.559c-1.471,0 -2.777,-0.135 -3.918,-0.405c-1.141,-0.271 -2.125,-0.586 -2.95,-0.946c-0.826,-0.36 -1.509,-0.736 -2.05,-1.126c-0.54,-0.39 -0.945,-0.721 -1.216,-0.991c-0.18,-0.18 -0.292,-0.375 -0.337,-0.586c-0.045,-0.21 0.007,-0.465 0.157,-0.765l2.072,-3.648c0.18,-0.301 0.42,-0.458 0.721,-0.473c0.3,-0.015 0.57,0.052 0.81,0.202c0.301,0.211 0.676,0.458 1.126,0.744c0.451,0.285 0.946,0.555 1.487,0.81c0.54,0.255 1.126,0.473 1.756,0.653c0.631,0.18 1.306,0.271 2.027,0.271c0.901,-0 1.644,-0.256 2.229,-0.766c0.586,-0.511 0.879,-1.156 0.879,-1.937c-0,-0.961 -0.398,-1.779 -1.194,-2.455c-0.796,-0.675 -1.944,-1.373 -3.445,-2.094c-1.081,-0.54 -2.147,-1.103 -3.198,-1.689c-1.051,-0.585 -1.989,-1.268 -2.815,-2.049c-0.826,-0.781 -1.486,-1.674 -1.982,-2.68c-0.495,-1.006 -0.743,-2.184 -0.743,-3.536c-0,-1.111 0.218,-2.207 0.653,-3.288c0.435,-1.08 1.088,-2.041 1.959,-2.882c0.871,-0.841 1.952,-1.516 3.243,-2.027c1.291,-0.51 2.808,-0.766 4.549,-0.766c1.171,0 2.267,0.128 3.288,0.383c1.021,0.256 1.944,0.563 2.77,0.924c0.826,0.36 1.546,0.735 2.162,1.126c0.615,0.39 1.088,0.705 1.419,0.945c0.27,0.151 0.405,0.391 0.405,0.721c-0,0.33 -0.045,0.571 -0.135,0.721l-2.297,3.468c-0.15,0.24 -0.406,0.42 -0.766,0.54c-0.36,0.12 -0.766,0.045 -1.216,-0.225c-0.27,-0.18 -0.623,-0.405 -1.058,-0.676c-0.436,-0.27 -0.924,-0.54 -1.464,-0.81c-0.541,-0.271 -1.119,-0.496 -1.734,-0.676c-0.616,-0.18 -1.224,-0.27 -1.824,-0.27c-0.961,-0 -1.659,0.248 -2.095,0.743c-0.435,0.495 -0.653,1.074 -0.653,1.734c0,0.751 0.421,1.441 1.261,2.072c0.841,0.63 2.057,1.336 3.649,2.117c0.991,0.48 2.019,0.998 3.085,1.554c1.066,0.555 2.049,1.223 2.95,2.004c0.901,0.781 1.636,1.711 2.207,2.792c0.57,1.081 0.856,2.387 0.856,3.919c-0,1.171 -0.241,2.312 -0.721,3.423c-0.48,1.111 -1.179,2.102 -2.094,2.972c-0.916,0.871 -2.035,1.577 -3.356,2.117c-1.321,0.541 -2.807,0.811 -4.459,0.811Z" style="fill-rule:nonzero;"/>
	<path d="M294.3,72.437c-0,-0.241 0.082,-0.443 0.248,-0.608c0.165,-0.166 0.367,-0.248 0.608,-0.248l18.646,-0c0.24,-0 0.443,0.082 0.608,0.248c0.165,0.165 0.248,0.367 0.248,0.608l-0,4.909c-0,0.24 -0.083,0.443 -0.248,0.608c-0.165,0.165 -0.368,0.248 -0.608,0.248l-12.476,-0l0,5.585l10.269,-0c0.24,-0 0.443,0.082 0.608,0.247c0.165,0.165 0.248,0.368 0.248,0.608l-0,4.91c-0,0.24 -0.083,0.443 -0.248,0.608c-0.165,0.165 -0.368,0.247 -0.608,0.247l-10.269,0l0,6.081l12.476,-0c0.24,-0 0.443,0.082 0.608,0.248c0.165,0.165 0.248,0.367 0.248,0.608l-0,4.909c-0,0.24 -0.083,0.443 -0.248,0.608c-0.165,0.165 -0.368,0.248 -0.608,0.248l-18.646,-0c-0.241,-0 -0.443,-0.083 -0.608,-0.248c-0.166,-0.165 -0.248,-0.368 -0.248,-0.608l-0,-29.816Z" style="fill-rule:nonzero;"/>
	<path d="M319.792,103.109c-0.33,-0 -0.578,-0.12 -0.743,-0.361c-0.165,-0.24 -0.172,-0.51 -0.022,-0.81l14.097,-30.312c0.15,-0.33 0.405,-0.496 0.766,-0.496l0.45,0c0.33,0 0.586,0.166 0.766,0.496l14.097,30.312c0.15,0.3 0.143,0.57 -0.022,0.81c-0.165,0.241 -0.413,0.361 -0.743,0.361l-5,-0c-0.42,-0 -0.735,-0.083 -0.946,-0.248c-0.21,-0.165 -0.42,-0.458 -0.63,-0.878l-1.622,-3.558l-12.25,-0l-1.622,3.603c-0.12,0.27 -0.308,0.518 -0.563,0.743c-0.255,0.225 -0.608,0.338 -1.058,0.338l-4.955,-0Zm17.746,-10.81l-3.423,-7.431l-0.045,-0l-3.378,7.431l6.846,0Z" style="fill-rule:nonzero;"/>
	<path d="M363.976,103.559c-1.471,0 -2.777,-0.135 -3.918,-0.405c-1.141,-0.271 -2.124,-0.586 -2.95,-0.946c-0.826,-0.36 -1.509,-0.736 -2.05,-1.126c-0.54,-0.39 -0.945,-0.721 -1.216,-0.991c-0.18,-0.18 -0.292,-0.375 -0.337,-0.586c-0.045,-0.21 0.007,-0.465 0.157,-0.765l2.072,-3.648c0.18,-0.301 0.42,-0.458 0.721,-0.473c0.3,-0.015 0.57,0.052 0.81,0.202c0.301,0.211 0.676,0.458 1.126,0.744c0.451,0.285 0.946,0.555 1.487,0.81c0.54,0.255 1.126,0.473 1.756,0.653c0.631,0.18 1.306,0.271 2.027,0.271c0.901,-0 1.644,-0.256 2.23,-0.766c0.585,-0.511 0.878,-1.156 0.878,-1.937c-0,-0.961 -0.398,-1.779 -1.194,-2.455c-0.795,-0.675 -1.944,-1.373 -3.445,-2.094c-1.081,-0.54 -2.147,-1.103 -3.198,-1.689c-1.051,-0.585 -1.989,-1.268 -2.815,-2.049c-0.826,-0.781 -1.486,-1.674 -1.982,-2.68c-0.495,-1.006 -0.743,-2.184 -0.743,-3.536c0,-1.111 0.218,-2.207 0.653,-3.288c0.435,-1.08 1.089,-2.041 1.959,-2.882c0.871,-0.841 1.952,-1.516 3.243,-2.027c1.291,-0.51 2.808,-0.766 4.549,-0.766c1.171,0 2.267,0.128 3.288,0.383c1.021,0.256 1.944,0.563 2.77,0.924c0.826,0.36 1.546,0.735 2.162,1.126c0.615,0.39 1.088,0.705 1.419,0.945c0.27,0.151 0.405,0.391 0.405,0.721c0,0.33 -0.045,0.571 -0.135,0.721l-2.297,3.468c-0.15,0.24 -0.405,0.42 -0.766,0.54c-0.36,0.12 -0.765,0.045 -1.216,-0.225c-0.27,-0.18 -0.623,-0.405 -1.058,-0.676c-0.436,-0.27 -0.924,-0.54 -1.464,-0.81c-0.541,-0.271 -1.119,-0.496 -1.734,-0.676c-0.616,-0.18 -1.224,-0.27 -1.824,-0.27c-0.961,-0 -1.659,0.248 -2.095,0.743c-0.435,0.495 -0.653,1.074 -0.653,1.734c0,0.751 0.421,1.441 1.261,2.072c0.841,0.63 2.057,1.336 3.649,2.117c0.991,0.48 2.019,0.998 3.085,1.554c1.066,0.555 2.049,1.223 2.95,2.004c0.901,0.781 1.636,1.711 2.207,2.792c0.57,1.081 0.856,2.387 0.856,3.919c-0,1.171 -0.24,2.312 -0.721,3.423c-0.48,1.111 -1.178,2.102 -2.094,2.972c-0.916,0.871 -2.035,1.577 -3.356,2.117c-1.321,0.541 -2.807,0.811 -4.459,0.811Z" style="fill-rule:nonzero;"/>
	<path d="M387.082,78.202l-6.441,-0c-0.24,-0 -0.443,-0.083 -0.608,-0.248c-0.165,-0.165 -0.248,-0.368 -0.248,-0.608l0,-4.909c0,-0.241 0.083,-0.443 0.248,-0.608c0.165,-0.166 0.368,-0.248 0.608,-0.248l19.998,-0c0.24,-0 0.443,0.082 0.608,0.248c0.165,0.165 0.247,0.367 0.247,0.608l0,4.909c0,0.24 -0.082,0.443 -0.247,0.608c-0.165,0.165 -0.368,0.248 -0.608,0.248l-6.441,-0l0,24.051c0,0.24 -0.083,0.443 -0.248,0.608c-0.165,0.165 -0.368,0.248 -0.608,0.248l-5.404,-0c-0.241,-0 -0.443,-0.083 -0.609,-0.248c-0.165,-0.165 -0.247,-0.368 -0.247,-0.608l-0,-24.051Z" style="fill-rule:nonzero;"/>
</svg>
