<svg width="100%" height="100%" viewBox="0 0 925 186" version="1.1" xmlns="http://www.w3.org/2000/svg" xmlns:xlink="http://www.w3.org/1999/xlink" xml:space="preserve" xmlns:serif="http://www.serif.com/" style="fill-rule:evenodd;clip-rule:evenodd;stroke-linejoin:round;stroke-miterlimit:2;">
    <path d="M781.736,154.225l-0.675,-0.12c-0.71,0.076 -1.671,0.12 -2.882,0.12l-2.629,0c-0.149,0 -0.298,-0.01 -0.446,-0.031c-0.248,-0.036 -0.512,-0.063 -0.791,-0.084c-1.468,1.186 -3.313,1.817 -5.567,1.817c-2.116,-0 -4.043,-0.739 -5.752,-2.285c-1.804,-1.633 -2.663,-3.587 -2.663,-5.821c0,-1.148 0.222,-2.548 0.719,-4.206c0.229,-1.08 0.364,-1.892 0.364,-2.444c-0,-9.152 -0.515,-26.737 -1.544,-52.753c-1.033,-22.325 -1.549,-39.948 -1.549,-52.868c0,-1.956 0.767,-3.529 2.289,-4.725c1.261,-0.99 2.778,-1.525 4.579,-1.525c2.061,0 3.87,0.717 5.415,2.176c1.598,1.509 2.382,3.336 2.382,5.466c-0,6.15 0.308,15.377 0.924,27.678c0,0.013 0.001,0.026 0.001,0.039c0.513,13.646 0.771,22.92 0.776,27.822l0.143,1.726c0.008,0.087 0.011,0.175 0.011,0.262c0,0 0,3.658 0,3.658c0.309,8.993 0.464,22.414 0.464,40.261c0,-0 0,0.864 0,0.864l8.751,-0c0.658,-0 1.299,0.205 1.835,0.588c3.263,2.33 4.569,4.877 4.569,7.208c0,1.918 -0.642,3.622 -1.949,5.104c-1.441,1.633 -3.153,2.383 -5.074,2.383c-0.447,-0 -1.274,-0.106 -2.466,-0.404c0.25,0.063 0.507,0.094 0.765,0.094c1.595,0 2.939,-1.188 3.133,-2.771c0.017,-0.137 0.025,-0.273 0.024,-0.408c-0.395,0.193 -0.814,0.302 -1.259,0.326c-0.669,1.476 -1.898,2.853 -1.898,2.853Zm-3.772,-3.156c0.002,0.035 0.005,0.07 0.007,0.105c0.115,1.381 1.106,2.492 2.398,2.807l0.749,0.09c-0,-0 -0.656,-1.511 -0.991,-3.053c-0.531,0.034 -1.18,0.051 -1.948,0.051l-0.215,-0Zm-353.609,-107.104l-2.698,-4.796c1.947,-3.207 3.416,-5.244 4.332,-6.161c0.592,-0.592 1.395,-0.924 2.232,-0.924c1.303,-0 3.023,-0.197 5.147,-0.566c2.382,-0.453 4.481,-0.671 6.297,-0.671c2.228,-0 4.394,0.636 6.483,1.959c2.67,1.691 3.788,3.832 3.788,6.146c-0,2.19 -0.745,3.912 -2.088,5.226c-1.573,1.539 -4.249,2.57 -8.183,2.57l-2.165,0c-0.174,0 -0.347,-0.014 -0.519,-0.043c-0.046,-0.007 -0.093,-0.015 -0.141,-0.021c0.083,2.746 0.269,5.855 0.559,9.326c0.001,0.012 0.002,0.025 0.002,0.037l0.31,4.33c0.002,0.037 0.004,0.074 0.006,0.11l0.309,8.506c0.001,0.038 0.002,0.076 0.002,0.115c0,2.001 -0.154,5.049 -0.468,9.145l-0.159,4.452c1.532,-0.352 2.855,-0.517 3.965,-0.517c1.921,0 3.689,0.692 5.261,2.177c1.626,1.535 2.381,3.323 2.381,5.31c-0,1.965 -0.611,3.726 -1.839,5.281c-1.435,1.818 -3.234,2.67 -5.339,2.67c-0.087,0 -0.175,-0.004 -0.262,-0.011l-1.725,-0.144l-1.879,0c-0.029,0 -0.06,0.001 -0.091,0.002l0,42.378l5.335,-0.286c0.056,-0.003 0.112,-0.004 0.169,-0.004c3.526,-0 6.158,0.486 7.921,1.29c2.811,1.282 4.05,3.323 4.05,5.888c0,0.005 0,0.011 0,0.017l0,0.587c0,0.683 -0.177,1.221 -0.44,1.633c-0.917,1.711 -2.471,3.173 -4.779,4.255c-1.966,0.922 -3.874,1.494 -5.717,1.74c-0.106,0.014 -0.214,0.023 -0.321,0.026l-5.103,0.155c-0.032,0.001 -0.064,0.001 -0.096,0.001l-4.794,0c-2.332,0 -4.358,-0.324 -6.085,-0.929c-3.003,-0.918 -4.804,-3.235 -4.804,-7.331l-0,-89.848c-0,-1.619 -0.3,-4.04 -0.864,-7.249c-0.776,-3.451 -1.146,-6.294 -1.146,-8.524l-0.001,-0.451l3.157,3.144Zm27.836,105.93l-1.001,-1l0.009,0.014l0.992,0.986Zm66.188,-104.693c-0,-0 -0.504,-0.045 -1.109,-0.282c-2.613,0.131 -4.853,0.741 -6.712,1.909c-1.361,1.022 -2.338,2.735 -3.102,5.029c-0.009,0.027 -0.019,0.054 -0.028,0.081c-0.345,0.947 -0.588,2.156 -0.76,3.62c-0.19,1.617 -0.288,3.092 -0.288,4.425c0,0.131 -0.008,0.261 -0.024,0.391c-0.094,0.75 -0.129,2.239 -0.13,4.469l0.304,5.321c0.002,0.029 0.003,0.058 0.004,0.087l0.154,5.258c0.001,0.031 0.002,0.062 0.002,0.093c-0,1.723 -0.221,3.734 -0.68,6.031c-0.457,2.285 -0.712,3.88 -0.712,4.794l-0,3.711c-0,3.987 0.154,9.456 0.461,16.408c0.001,0.028 0.002,0.056 0.002,0.084c0.1,5.678 0.748,11.356 1.944,17.034c0.008,0.04 0.016,0.081 0.023,0.122c0.844,4.974 2.415,9.206 4.761,12.679c0.018,0.027 0.036,0.054 0.053,0.081c1.827,2.893 4.262,4.406 7.383,4.406c1.275,-0 2.776,-0.839 4.65,-2.189c0.031,-0.022 0.062,-0.044 0.094,-0.065c3.56,-2.373 6.177,-3.313 7.627,-3.313c2.133,-0 4.433,0.959 6.717,3.244c0.592,0.592 0.925,1.395 0.925,2.232c0,4.937 -1.916,8.715 -5.652,11.384c-0.013,0.009 -0.025,0.018 -0.038,0.026c-3.064,2.121 -6.708,3.499 -10.95,4.088c-0.04,0.006 -0.081,0.011 -0.121,0.015c-2.192,0.219 -3.947,0.325 -5.262,0.325c-3.442,-0 -6.604,-0.807 -9.493,-2.405c-2.796,-1.547 -5.209,-3.626 -7.233,-6.245c-0.024,-0.031 -0.047,-0.063 -0.07,-0.095c-1.687,-2.361 -3.219,-5.361 -4.568,-9.015c-1.298,-3.515 -2.274,-7.165 -2.92,-10.923c-1.261,-6.207 -2.11,-14.355 -2.531,-24.441c-0.104,-2.398 -0.157,-6.516 -0.157,-12.354l-0,-9.743c-0,-0.039 0,-0.078 0.002,-0.117c0.102,-2.746 0.152,-5.594 0.152,-8.543c0,-6 0.352,-10.799 1.026,-14.393c-0.271,-1.549 -0.407,-3.143 -0.407,-4.783c-0,-7.194 2.715,-13.002 8.111,-17.439c5.172,-4.252 11.703,-6.44 19.634,-6.44c3.293,0 6.332,0.886 9.118,2.659c3.345,2.128 4.864,4.883 4.864,8.076c0,2.083 -0.833,3.749 -2.5,4.999c-1.334,1.001 -2.985,1.56 -4.987,1.56c-1.278,-0 -2.652,-0.183 -4.122,-0.567c-1.179,-0.307 -2.094,-0.76 -2.79,-1.289l-0.665,-0Zm120.531,78.804l-0,0.604c-0,0.344 -0.045,0.651 -0.121,0.917c-0.544,2.647 -0.807,5.749 -0.807,9.304c-0,3.263 -0.683,6.646 -2.082,10.142c-1.398,3.496 -3.381,6.469 -5.926,8.918c-2.925,3.159 -6.28,4.665 -9.995,4.665c-3.515,-0 -6.712,-1.154 -9.576,-3.498c-2.566,-2.099 -4.804,-4.938 -6.672,-8.551c-3.118,-5.816 -5.47,-13.77 -6.977,-23.884c-1.043,-6.785 -1.828,-14.613 -2.349,-23.484c-0.003,-0.042 -0.005,-0.084 -0.005,-0.126l-0.155,-8.196c-0,-0.02 -0.001,-0.039 -0.001,-0.059c0,-0 0,-8.292 0.001,-8.283c-0.103,-2.703 -0.155,-5.974 -0.155,-9.811c-0,-6.297 0.264,-11.861 0.785,-16.664c0.434,-5.2 1.516,-10.345 3.249,-15.436c0.015,-0.044 0.031,-0.088 0.048,-0.131c1.954,-5.007 4.834,-8.492 8.498,-10.568c0.089,-0.05 0.181,-0.096 0.274,-0.138c2.282,-1.014 4.567,-1.509 6.85,-1.509c6.534,-0 11.707,2.599 15.53,7.777c0.006,0.008 0.011,0.016 0.017,0.024c3.767,5.207 6.265,11.019 7.488,17.423c1.689,7.399 2.637,14.482 2.851,21.238c0.414,7.372 0.622,14.329 0.622,20.872l-0,8.814c-0,1.812 -0.259,5.223 -0.791,10.231l-0.001,0.006c-0.398,3.682 -0.6,6.816 -0.6,9.403Zm-3.547,2.77l0.39,0.387l-0.389,-0.389c-0,0 -0,0.001 -0.001,0.002Zm-30.956,-36.887c0,0.001 0,0.003 0,0.005c1.073,-0.016 2.016,-0.567 2.575,-1.397c-0.813,1.121 -2.294,1.356 -2.575,1.392Zm3.11,-3.771c0,0.006 0,0.012 0,0.018l0,0.587l0,0.014c0,6.787 0.715,15.143 2.133,25.07c0.004,0.023 0.007,0.046 0.01,0.069c1.581,13.147 3.823,22.513 6.885,28.057c0.803,1.403 1.596,2.479 2.44,3.182c0.435,0.363 0.847,0.621 1.304,0.621c0.357,0 0.544,-0.381 0.838,-0.778c0.531,-0.72 1.006,-1.688 1.46,-2.885c1.162,-3.202 1.996,-7.108 2.53,-11.713c0.562,-4.852 1.046,-10.343 1.455,-16.472c0.001,-0.01 0.001,-0.021 0.002,-0.032c0.201,-2.614 0.3,-5.982 0.3,-10.103c0,0 -0.154,-14.166 -0.154,-14.181c-0.206,-5.486 -0.818,-12.336 -1.832,-20.552c-0.001,-0.008 -0.002,-0.015 -0.003,-0.023c-0.788,-6.793 -2.253,-12.802 -4.419,-18.02c-0.006,-0.012 -0.011,-0.025 -0.016,-0.038c-0.833,-2.082 -1.839,-3.729 -3.089,-4.895c-0.884,-0.826 -1.792,-1.316 -2.794,-1.316c-0.564,-0 -0.984,0.356 -1.372,0.884c-0.534,0.726 -0.96,1.707 -1.333,2.918c-0.016,0.053 -0.033,0.105 -0.052,0.156c-1.462,3.995 -2.43,8.38 -2.917,13.154c-0.002,0.012 -0.003,0.023 -0.004,0.035c-0.607,5.363 -0.962,10.473 -1.063,15.329c-0,0.01 -0.001,0.02 -0.001,0.03l-0.155,5.104c-0.001,0.043 -0.003,0.086 -0.006,0.129c-0.099,1.388 -0.147,3.272 -0.147,5.651Zm68.907,-40.916c0,-0 -0.504,-0.045 -1.109,-0.282c-2.612,0.131 -4.852,0.741 -6.712,1.909c-1.361,1.022 -2.337,2.735 -3.102,5.029c-0.009,0.027 -0.018,0.054 -0.028,0.081c-0.344,0.947 -0.587,2.156 -0.759,3.62c-0.191,1.617 -0.288,3.092 -0.288,4.425c-0,0.131 -0.008,0.261 -0.024,0.391c-0.094,0.75 -0.13,2.239 -0.131,4.469l0.304,5.321c0.002,0.029 0.003,0.058 0.004,0.087l0.155,5.258c0.001,0.031 0.001,0.062 0.001,0.093c0,1.723 -0.22,3.734 -0.68,6.031c-0.457,2.285 -0.712,3.88 -0.712,4.794l0,3.711c0,3.987 0.155,9.456 0.461,16.408c0.002,0.028 0.002,0.056 0.003,0.084c0.1,5.678 0.748,11.356 1.943,17.034c0.009,0.04 0.016,0.081 0.023,0.122c0.845,4.974 2.415,9.206 4.761,12.679c0.019,0.027 0.036,0.054 0.054,0.081c1.827,2.893 4.262,4.406 7.383,4.406c1.274,-0 2.775,-0.839 4.65,-2.189c0.031,-0.022 0.062,-0.044 0.093,-0.065c3.561,-2.373 6.178,-3.313 7.628,-3.313c2.132,-0 4.432,0.959 6.717,3.244c0.592,0.592 0.925,1.395 0.925,2.232c-0,4.937 -1.917,8.715 -5.652,11.384c-0.013,0.009 -0.026,0.018 -0.038,0.026c-3.064,2.121 -6.709,3.499 -10.951,4.088c-0.04,0.006 -0.08,0.011 -0.12,0.015c-2.193,0.219 -3.947,0.325 -5.263,0.325c-3.441,-0 -6.604,-0.807 -9.492,-2.405c-2.797,-1.547 -5.21,-3.626 -7.233,-6.245c-0.024,-0.031 -0.048,-0.063 -0.071,-0.095c-1.686,-2.361 -3.219,-5.361 -4.568,-9.015c-1.298,-3.515 -2.273,-7.165 -2.92,-10.923c-1.26,-6.207 -2.11,-14.355 -2.53,-24.441c-0.104,-2.398 -0.158,-6.516 -0.158,-12.354l0,-9.743c0,-0.039 0.001,-0.078 0.002,-0.117c0.102,-2.746 0.153,-5.594 0.153,-8.543c-0,-6 0.351,-10.799 1.025,-14.393c-0.27,-1.549 -0.407,-3.143 -0.407,-4.783c0,-7.194 2.715,-13.002 8.111,-17.439c5.172,-4.252 11.704,-6.44 19.635,-6.44c3.292,0 6.331,0.886 9.117,2.659c3.345,2.128 4.865,4.883 4.865,8.076c-0,2.083 -0.834,3.749 -2.5,4.999c-1.335,1.001 -2.986,1.56 -4.987,1.56c-1.278,-0 -2.653,-0.183 -4.122,-0.567c-1.179,-0.307 -2.095,-0.76 -2.79,-1.289l-0.666,-0Zm69.499,78.804l-0,0.604c-0,0.344 -0.045,0.651 -0.121,0.917c-0.544,2.647 -0.807,5.749 -0.807,9.304c0,3.263 -0.683,6.646 -2.081,10.142c-1.399,3.496 -3.382,6.469 -5.927,8.918c-2.925,3.159 -6.28,4.665 -9.995,4.665c-3.515,-0 -6.712,-1.154 -9.576,-3.498c-2.566,-2.099 -4.804,-4.938 -6.672,-8.551c-3.118,-5.816 -5.47,-13.77 -6.977,-23.884c-1.043,-6.785 -1.827,-14.613 -2.349,-23.484c-0.003,-0.042 -0.004,-0.084 -0.005,-0.126l-0.155,-8.196c-0,-0.02 -0,-0.039 -0,-0.059c-0,-0 -0,-8.292 -0,-8.283c-0.103,-2.703 -0.155,-5.974 -0.155,-9.811c-0,-6.297 0.264,-11.861 0.785,-16.664c0.434,-5.2 1.516,-10.345 3.249,-15.436c0.015,-0.044 0.031,-0.088 0.048,-0.131c1.954,-5.007 4.834,-8.492 8.498,-10.568c0.089,-0.05 0.181,-0.096 0.274,-0.138c2.283,-1.014 4.568,-1.509 6.85,-1.509c6.534,-0 11.708,2.599 15.53,7.777c0.006,0.008 0.012,0.016 0.018,0.024c3.766,5.207 6.265,11.019 7.487,17.423c1.689,7.399 2.637,14.482 2.851,21.238c0.415,7.372 0.622,14.329 0.622,20.872l-0,8.814c-0,1.812 -0.258,5.223 -0.791,10.231l-0.001,0.006c-0.398,3.682 -0.6,6.816 -0.6,9.403Zm-3.546,2.77l0.389,0.387l-0.389,-0.389c-0,0 -0,0.001 -0,0.002Zm-27.847,-40.658c0,0.006 0,0.012 0,0.018l0,0.587l0,0.014c0,6.787 0.716,15.143 2.134,25.07c0.003,0.023 0.006,0.046 0.009,0.069c1.581,13.147 3.823,22.513 6.885,28.057c0.804,1.403 1.597,2.479 2.44,3.182c0.435,0.363 0.847,0.621 1.304,0.621c0.358,0 0.545,-0.381 0.838,-0.778c0.532,-0.72 1.006,-1.688 1.46,-2.885c1.162,-3.202 1.997,-7.108 2.53,-11.713c0.562,-4.852 1.046,-10.343 1.455,-16.472c0.001,-0.01 0.002,-0.021 0.002,-0.032c0.201,-2.614 0.3,-5.982 0.3,-10.103c0,0 -0.154,-14.166 -0.154,-14.181c-0.206,-5.486 -0.818,-12.336 -1.832,-20.552c-0.001,-0.008 -0.002,-0.015 -0.003,-0.023c-0.788,-6.793 -2.253,-12.802 -4.419,-18.02c-0.005,-0.012 -0.01,-0.025 -0.016,-0.038c-0.833,-2.082 -1.839,-3.729 -3.088,-4.895c-0.885,-0.826 -1.793,-1.316 -2.795,-1.316c-0.564,-0 -0.984,0.356 -1.372,0.884c-0.534,0.726 -0.96,1.707 -1.333,2.918c-0.016,0.053 -0.033,0.105 -0.052,0.156c-1.462,3.995 -2.43,8.38 -2.917,13.154c-0.001,0.012 -0.003,0.023 -0.004,0.035c-0.607,5.363 -0.962,10.473 -1.063,15.329c-0,0.01 -0,0.02 -0.001,0.03l-0.154,5.104c-0.002,0.043 -0.004,0.086 -0.007,0.129c-0.099,1.388 -0.147,3.272 -0.147,5.651Zm179.477,-42.153l-2.698,-4.796c1.947,-3.207 3.416,-5.244 4.332,-6.161c0.592,-0.592 1.395,-0.924 2.232,-0.924c1.303,-0 3.022,-0.197 5.147,-0.566c2.382,-0.453 4.481,-0.671 6.297,-0.671c2.228,-0 4.394,0.636 6.483,1.959c2.67,1.691 3.787,3.832 3.787,6.146c0,2.19 -0.744,3.912 -2.087,5.226c-1.573,1.539 -4.249,2.57 -8.183,2.57l-2.165,0c-0.174,0 -0.348,-0.014 -0.519,-0.043c-0.046,-0.007 -0.093,-0.015 -0.141,-0.021c0.083,2.746 0.269,5.855 0.558,9.326c0.002,0.012 0.002,0.025 0.003,0.037l0.31,4.33c0.002,0.037 0.004,0.074 0.006,0.11l0.309,8.506c0.001,0.038 0.002,0.076 0.002,0.115c-0,2.001 -0.154,5.049 -0.468,9.145l-0.159,4.452c1.532,-0.352 2.855,-0.517 3.965,-0.517c1.921,0 3.689,0.692 5.261,2.177c1.625,1.535 2.381,3.323 2.381,5.31c-0,1.965 -0.611,3.726 -1.839,5.281c-1.435,1.818 -3.234,2.67 -5.339,2.67c-0.088,0 -0.175,-0.004 -0.262,-0.011l-1.725,-0.144l-1.879,0c-0.029,0 -0.06,0.001 -0.091,0.002l0,42.378l5.335,-0.286c0.056,-0.003 0.112,-0.004 0.168,-0.004c3.527,-0 6.158,0.486 7.922,1.29c2.811,1.282 4.05,3.323 4.05,5.888l-0,0.604c-0,0.683 -0.177,1.221 -0.44,1.633c-0.917,1.711 -2.471,3.173 -4.779,4.255c-1.966,0.922 -3.874,1.494 -5.717,1.74c-0.106,0.014 -0.214,0.023 -0.321,0.026l-5.104,0.155c-0.031,0.001 -0.063,0.001 -0.095,0.001l-4.794,0c-2.332,0 -4.358,-0.324 -6.086,-0.929c-3.003,-0.918 -4.803,-3.235 -4.803,-7.331l-0,-89.848c-0,-1.619 -0.3,-4.04 -0.864,-7.249c-0.776,-3.451 -1.147,-6.294 -1.147,-8.524l0,-0.451l3.157,3.144Zm27.836,105.93l-1.001,-1l0.009,0.014l0.992,0.986Zm-667.421,-67.086c0.787,-7.139 1.329,-12.464 1.628,-15.973c0.505,-6.264 0.763,-10.559 0.763,-12.883l-0,-2.939c-0,-1.816 0.608,-3.568 1.929,-5.219c1.532,-1.916 3.333,-2.732 5.248,-2.732c2.775,0 4.809,0.736 6.197,1.892c1.59,1.325 2.527,3.254 2.527,5.905l0,2.319c0,5.708 0.58,11.84 1.731,18.398c1.175,6.691 2.886,14.683 5.133,23.976c0.117,0.444 0.234,0.896 0.352,1.356c0.224,-1.807 0.465,-3.731 0.722,-5.773c0.002,-0.012 0.004,-0.024 0.005,-0.036c1.642,-11.904 2.848,-22.037 3.618,-30.4c0.764,-8.3 1.147,-16.064 1.147,-23.294c-0,-3.319 0.756,-5.611 1.839,-6.982c1.229,-1.557 3.443,-2.67 6.885,-2.67c1.964,-0 3.725,0.611 5.281,1.839c1.783,1.408 2.67,3.24 2.67,5.493c-0,1.467 -0.47,3.026 -1.551,4.615c-0.05,7.288 -0.621,15.741 -1.717,25.357c-1.143,10.023 -2.545,19.554 -4.207,28.59l-0.003,0.013c-1.636,8.692 -3.016,18.023 -4.141,27.993c-1.119,9.917 -1.681,18.64 -1.681,26.167c0,2.48 -0.676,4.427 -1.839,5.9c-1.336,1.692 -3.284,2.669 -5.957,2.669c-1.017,0 -2.189,-0.366 -3.318,-1.504c-1.063,-1.072 -2.36,-3.335 -3.667,-6.908c-0.011,-0.029 -0.021,-0.058 -0.031,-0.086c-1.986,-5.959 -4.461,-17.819 -7.388,-35.59c-0.002,-0.011 -0.003,-0.022 -0.005,-0.033l-0.904,-5.873c-0.01,0.091 -0.021,0.181 -0.031,0.271c-0.667,5.688 -1.307,12.427 -1.922,20.216c-0.001,0.018 -0.003,0.036 -0.004,0.053c-0.712,7.424 -1.068,14.747 -1.068,21.968c-0,1.777 -0.666,3.505 -2.177,5.105c-1.535,1.626 -3.323,2.381 -5.31,2.381c-3.135,0 -5.563,-1.494 -7.13,-4.713c-1.105,-2.269 -1.749,-5.658 -1.749,-10.196c-0,-4.908 -2.144,-22.467 -6.387,-52.681c-4.213,-29.998 -6.8,-46.38 -7.916,-49.121c-0.357,-0.875 -0.303,-1.864 0.147,-2.694c2,-3.691 4.806,-5.365 8.189,-5.365c1.519,-0 3.209,0.719 4.668,2.779c1.733,2.447 3.513,7.708 5.082,15.865c0.003,0.019 0.007,0.039 0.01,0.058c1.666,9.644 3.11,20.473 4.332,32.487Zm128.586,-21.318c2.305,-5.703 4.656,-11.361 7.051,-16.974c0.006,-0.014 0.013,-0.028 0.019,-0.043c2.132,-4.798 4.057,-8.58 5.763,-11.352c0.006,-0.009 0.012,-0.018 0.017,-0.027c1.553,-2.466 2.961,-4.002 4.066,-4.741c1.003,-0.672 1.953,-0.91 2.781,-0.91c1.918,0 3.623,0.642 5.105,1.95c1.599,1.411 2.382,3.159 2.382,5.228c0,0.373 -0.109,1.157 -0.512,2.307c-0.905,2.583 -3.613,8.659 -8.142,18.22c-0.005,0.01 -0.01,0.02 -0.014,0.029c-5.146,10.583 -8.256,17.723 -9.27,21.448c-0,0 -0,1.791 -0.001,1.788c1.704,4.494 5.782,16.925 12.225,37.294c5.389,17.039 8.62,27.66 9.698,31.864c0.375,1.462 0.501,2.377 0.501,2.723c-0,2.2 -0.851,4.042 -2.593,5.508c-1.553,1.308 -3.387,1.979 -5.513,1.979c-0.874,0 -1.749,-0.13 -2.624,-0.397c-0.287,-0.047 -0.598,-0.067 -0.932,-0.067c-1.532,0 -2.843,-1.099 -3.109,-2.608c-2.766,-15.673 -5.53,-28.786 -8.296,-39.337c-2.156,-8.224 -4.751,-16.071 -7.786,-23.54c-0,0 -0.137,0.254 -0.137,0.254c-0.682,1.289 -1.109,2.411 -1.185,3.397c-0.002,0.024 -0.004,0.048 -0.007,0.072c-0.295,2.951 -0.448,5.114 -0.448,6.491c0,3.059 0.154,7.751 0.46,14.072c0.313,6.356 0.468,11.202 0.468,14.537l0,12.68c0,4.357 -1.098,7.331 -2.775,9.074c-1.417,1.473 -3.278,2.279 -5.64,2.279c-4.314,0 -7.641,-3.486 -7.641,-11.817c-0,-4.581 0.31,-11.609 0.934,-21.084c0.002,-0.018 0.003,-0.036 0.004,-0.055c0.713,-8.55 1.072,-15.37 1.072,-20.46c0,-0.012 0,-0.024 0,-0.036l0.155,-13.281l-0,-16.065c-0,-5.553 -0.355,-11.359 -1.062,-17.418l-0.001,-0.012c-0.739,-6.547 -1.102,-11.511 -1.102,-14.89c-0,-2.171 0.698,-3.997 2.034,-5.5c1.454,-1.635 3.272,-2.451 5.453,-2.451c3.131,-0 5.597,1.549 7.162,4.977c1.089,2.382 1.716,5.942 1.716,10.706c0,0.02 0,0.041 -0,0.061l-0.276,14.127Zm487.573,-16.054c0.506,5.732 0.758,10.993 0.758,15.784c-0,0.016 -0,0.033 -0.001,0.049l-0.154,9.897c-0.001,0.02 -0.001,0.04 -0.002,0.06c-0.102,2.957 -0.153,6.272 -0.153,9.943c0,4.896 0.205,10.761 0.613,17.594c0.521,8.648 0.779,14.64 0.779,17.974c0,3.849 0.204,8.408 0.61,13.676l-0,0.004c0.419,5.557 0.627,10.276 0.627,14.156c0,7.559 -3.167,10.734 -7.641,10.734c-2.683,-0 -4.838,-1.209 -6.358,-3.803c-1.133,-1.933 -1.748,-4.287 -1.748,-7.086c0,-3.471 0.208,-7.73 0.629,-12.777l0.304,-3.951c-0,0 0.304,-8.072 0.304,-8.097c-0.005,-3.62 -0.366,-11.574 -1.077,-23.86c-0.727,-12.569 -1.088,-20.671 -1.088,-24.307c0,-0.341 0.026,-0.996 0.083,-1.964c0.049,-0.836 0.072,-2.14 0.072,-3.912c0,-0.053 0.001,-0.105 0.004,-0.158c0.101,-2.019 0.151,-4.492 0.151,-7.42c-0,-4.994 -0.155,-8.663 -0.608,-10.99c-0.398,0.056 -0.843,0.121 -1.334,0.194c-0.081,0.012 -0.162,0.021 -0.244,0.027l-4.33,0.31c-0.074,0.005 -0.149,0.008 -0.224,0.008c-2.056,-0 -3.87,-0.606 -5.451,-1.792c-1.89,-1.417 -2.81,-3.273 -2.81,-5.541c0,-2.123 1.513,-4.61 5.76,-6.203c0.028,-0.011 0.057,-0.021 0.085,-0.03c3.773,-1.294 10.183,-2.255 19.24,-2.795c3.607,-0.212 5.784,-0.314 6.527,-0.314c1.951,-0 3.748,0.628 5.374,1.929c1.846,1.477 2.731,3.342 2.731,5.558c0,2.213 -0.814,3.999 -2.383,5.382c-1.431,1.264 -3.223,1.95 -5.413,1.95c-0.058,-0 -0.117,-0.002 -0.175,-0.005l-2.784,-0.155c-0.072,-0.004 -0.144,-0.01 -0.216,-0.019c-0.149,-0.019 -0.301,-0.035 -0.457,-0.05Zm-654.376,108.788c-2.566,0 -4.403,-0.657 -5.606,-1.619c-1.412,-1.13 -2.344,-2.922 -2.344,-5.558c-0,-0 -0,-18.346 -0.001,-18.346c-1.208,-0.466 -2.889,-0.873 -5.023,-1.288c-2.769,-0.538 -5.418,-0.929 -7.949,-1.169c-0.572,1.498 -1.009,3.194 -1.324,5.084c-0.006,0.034 -0.012,0.067 -0.018,0.1c-0,0 -0.603,3.015 -0.6,2.991c-0.116,0.781 -0.431,2.422 -0.952,4.921c-0.546,2.621 -1.15,4.886 -1.805,6.798c-0.707,2.061 -1.428,3.675 -2.135,4.853c-0.571,0.951 -1.598,1.532 -2.707,1.532c-5.864,0 -8.903,-2.256 -9.828,-5.342c-0.275,-0.916 -0.12,-1.908 0.422,-2.696c1.035,-1.505 2.043,-5.969 3.36,-13.306l5.101,-28.286c2.273,-13.432 4.366,-24.902 6.278,-34.409c1.938,-9.636 4.011,-17.701 6.21,-24.197c1.89,-5.669 3.862,-9.284 5.637,-10.985c1.383,-1.325 2.816,-1.838 4.16,-1.838c2.993,0 5.239,0.701 6.806,1.841c0.817,0.594 1.3,1.543 1.3,2.553c-0,4.069 0.98,13.883 2.913,29.444c2.087,15.659 3.118,26.362 3.118,32.104c0,5.383 0.565,13.102 1.682,23.158c0.001,0.012 0.003,0.025 0.004,0.037c1.044,10.543 1.562,18.946 1.562,25.209c-0,2.754 -0.831,4.765 -2.168,6.142c-1.367,1.408 -3.359,2.272 -6.093,2.272Zm-8.041,-36.405c0.825,0 1.856,-0.154 3.093,-0.464c-0.309,-4.536 -0.825,-10.155 -1.547,-16.856c-2.371,-23.299 -3.556,-37.578 -3.556,-42.836l-0,-1.237c-1.031,1.031 -2.449,5.696 -4.253,13.995c-1.804,8.299 -3.48,17.191 -5.026,26.676c-1.546,9.485 -2.371,15.774 -2.474,18.867c4.33,1.237 8.918,1.855 13.763,1.855Zm138.56,36.405c-2.566,0 -4.403,-0.657 -5.606,-1.619c-1.412,-1.13 -2.344,-2.922 -2.344,-5.558c-0,-0 -0,-18.346 -0.001,-18.346c-1.208,-0.466 -2.889,-0.873 -5.023,-1.288c-2.769,-0.538 -5.418,-0.929 -7.949,-1.169c-0.572,1.498 -1.009,3.194 -1.324,5.084c-0.006,0.034 -0.012,0.067 -0.018,0.1c-0,0 -0.603,3.015 -0.6,2.991c-0.116,0.781 -0.431,2.422 -0.952,4.921c-0.546,2.621 -1.15,4.886 -1.805,6.798c-0.707,2.061 -1.428,3.675 -2.135,4.853c-0.571,0.951 -1.598,1.532 -2.707,1.532c-5.864,0 -8.903,-2.256 -9.828,-5.342c-0.275,-0.916 -0.12,-1.908 0.422,-2.696c1.035,-1.505 2.043,-5.969 3.36,-13.306l5.101,-28.286c2.273,-13.432 4.366,-24.902 6.278,-34.409c1.938,-9.636 4.011,-17.701 6.21,-24.197c1.89,-5.669 3.862,-9.284 5.637,-10.985c1.383,-1.325 2.816,-1.838 4.16,-1.838c2.993,0 5.238,0.701 6.806,1.841c0.817,0.594 1.3,1.543 1.3,2.553c-0,4.069 0.98,13.883 2.913,29.444c2.087,15.659 3.118,26.362 3.118,32.104c0,5.383 0.565,13.102 1.682,23.158c0.001,0.012 0.003,0.025 0.004,0.037c1.044,10.543 1.562,18.946 1.562,25.209c-0,2.754 -0.831,4.765 -2.168,6.142c-1.367,1.408 -3.359,2.272 -6.093,2.272Zm-8.041,-36.405c0.825,0 1.856,-0.154 3.093,-0.464c-0.309,-4.536 -0.825,-10.155 -1.547,-16.856c-2.371,-23.299 -3.556,-37.578 -3.556,-42.836l-0,-1.237c-1.031,1.031 -2.449,5.696 -4.253,13.995c-1.804,8.299 -3.48,17.191 -5.026,26.676c-1.546,9.485 -2.371,15.774 -2.474,18.867c4.33,1.237 8.917,1.855 13.763,1.855Zm237.068,38.725c-2.517,0 -4.362,-1.004 -5.621,-2.843c-1.001,-1.464 -1.556,-3.26 -1.556,-5.417c-0,-20.256 -0.365,-37.541 -1.097,-51.856c-0.961,-0.128 -1.708,-0.195 -2.241,-0.195c-2.426,0 -4.409,0.103 -5.943,0.352c0.106,5.629 0.56,13.448 1.357,23.458c0.001,0.013 0.002,0.027 0.003,0.041c0.832,12.47 1.244,21.303 1.244,26.499c0,1.686 -0.494,3.249 -1.505,4.681c-1.293,1.831 -2.961,2.651 -4.899,2.651c-1.172,0 -2.409,-0.443 -3.527,-1.687c-1.094,-1.217 -2.284,-3.791 -3.255,-7.849l-0.002,-0.011c-1.672,-7.103 -3.057,-21.984 -4.102,-44.649c-0.723,-15.187 -1.085,-31.508 -1.085,-48.95c-0.103,-3.218 -0.155,-7.776 -0.155,-13.674c-0,-1.915 0.614,-3.297 1.519,-4.255c0.961,-1.018 2.344,-1.685 4.267,-1.685c1.47,-0 2.983,0.345 4.527,1.08c1.58,0.752 2.713,1.627 3.465,2.53c0.56,0.672 0.816,1.545 0.707,2.413c-0.398,3.187 -0.594,6.923 -0.594,11.206c0,4.273 0.205,9.461 0.612,15.564c0.001,0.024 0.003,0.049 0.004,0.073c0.312,7.174 0.467,12.581 0.467,16.22l-0,2.784c-0,0.13 -0.009,0.261 -0.025,0.391c-0.089,0.715 -0.13,1.564 -0.13,2.547c-0,0.223 0.006,0.462 0.017,0.717l0.003,-0c1.37,-0.098 2.739,-0.245 4.109,-0.44c0.053,-0.008 0.107,-0.014 0.16,-0.019c1.806,-0.164 3.373,-0.285 4.703,-0.364c-0.021,-7.78 -0.122,-15.036 -0.304,-21.768c-0.001,-0.016 -0.001,-0.032 -0.001,-0.048l-0.31,-25.825c0,-0.013 0,-0.025 0,-0.038l0,-4.175c0,-1.744 1.414,-3.157 3.157,-3.157c1.83,-0 3.445,0.34 4.852,0.974c1.576,0.708 2.735,1.65 3.529,2.734c1.185,1.494 2.079,3.982 2.345,7.566c0.006,0.078 0.009,0.155 0.009,0.233l-0,3.557c-0,8.844 0.515,25.76 1.543,50.748c0.931,22.739 1.395,39.793 1.395,51.162c-0,2.164 -0.66,4.096 -1.974,5.796c-1.553,2.011 -3.474,2.928 -5.668,2.928Zm255.162,-2.32c-2.567,0 -4.403,-0.657 -5.606,-1.619c-1.412,-1.13 -2.345,-2.922 -2.345,-5.558c-0,-0 -0,-18.346 -0,-18.346c-1.208,-0.466 -2.89,-0.873 -5.023,-1.288c-2.769,-0.538 -5.419,-0.929 -7.949,-1.169c-0.572,1.498 -1.01,3.194 -1.325,5.084c-0.005,0.034 -0.011,0.067 -0.018,0.1c-0,0 -0.603,3.015 -0.599,2.991c-0.117,0.781 -0.432,2.422 -0.953,4.921c-0.546,2.621 -1.15,4.886 -1.805,6.798c-0.707,2.061 -1.428,3.675 -2.135,4.853c-0.57,0.951 -1.598,1.532 -2.707,1.532c-5.863,0 -8.902,-2.256 -9.828,-5.342c-0.275,-0.916 -0.12,-1.908 0.422,-2.696c1.035,-1.505 2.044,-5.969 3.361,-13.306l5.1,-28.286c2.274,-13.432 4.366,-24.902 6.278,-34.409c1.938,-9.636 4.011,-17.701 6.211,-24.197c1.89,-5.669 3.861,-9.284 5.636,-10.985c1.383,-1.325 2.816,-1.838 4.161,-1.838c2.992,0 5.238,0.701 6.805,1.841c0.817,0.594 1.3,1.543 1.3,2.553c0,4.069 0.981,13.883 2.913,29.444c2.087,15.659 3.118,26.362 3.118,32.104c0,5.383 0.565,13.102 1.682,23.158c0.002,0.012 0.003,0.025 0.004,0.037c1.044,10.543 1.562,18.946 1.562,25.209c-0,2.754 -0.831,4.765 -2.167,6.142c-1.367,1.408 -3.36,2.272 -6.093,2.272Zm-8.042,-36.405c0.825,0 1.856,-0.154 3.093,-0.464c-0.309,-4.536 -0.825,-10.155 -1.546,-16.856c-2.371,-23.299 -3.557,-37.578 -3.557,-42.836l-0,-1.237c-1.031,1.031 -2.449,5.696 -4.253,13.995c-1.804,8.299 -3.479,17.191 -5.026,26.676c-1.546,9.485 -2.371,15.774 -2.474,18.867c4.33,1.237 8.918,1.855 13.763,1.855Z"/>
    <path d="M112.645,162.777c-0.31,-1.905 -1.766,-3.194 -4.991,-3.397c-3.849,-0.243 -7.247,0.317 -8.172,0.668c-0.915,-1.293 -6.143,-3.94 -9.157,-2.969c-1.339,0.43 -2.695,1.244 -3.793,2.339c-0.27,-0.066 -0.531,-0.162 -0.803,-0.203c-26.915,-4.015 -40.482,-20.862 -45.069,-50.211c-1.172,-12.998 -1.863,-29.497 -1.939,-37.854c-0.075,-8.214 3.047,-58.685 3.234,-60.794c0.323,-2.985 7.443,-3.928 8.301,-0.5c1.077,4.626 1.071,10.283 7.623,11.349c6.553,1.066 39.989,1.969 52.604,0.626c12.614,-1.343 18.034,-5.4 21.256,-8.057c3.222,-2.656 5.329,-5.494 7.281,-5.671c3.53,-0.355 4.269,0.303 4.214,3.187c-0.056,2.884 -2.104,3.177 -1.946,4.535c-0.116,1.965 -0.008,15.998 -0.169,19.671c-0.16,3.671 -2.159,62.267 -1.22,68.368c0.541,6.649 1.057,35.584 4.166,43.441c1.097,5.045 1.56,10.956 2.533,14.851c0.127,1.256 -0.251,2.018 -0.798,2.473l0.899,0.004l-0.168,8.292l-43.414,-0.093c-0.02,-2.511 1.038,-7.52 9.862,-7.181c0.018,-0.337 0.009,-0.66 -0.027,-0.968c-0.008,-0.069 -0.296,-1.838 -0.307,-1.906Zm-20.842,-91.934l-5.06,7.382l5.214,11.633l5.138,-11.58l-5.292,-7.435Zm-36.333,-37.504c0,0 -13.619,8.916 -10.36,26.537c1.042,5.637 2.426,13.833 10.323,15.961c26.853,7.236 35.305,-8.06 36.402,-10.384c1.856,2.105 6.65,11.859 17.598,13.176c8.801,0.597 24.662,-8.267 25.234,-22.426c0.571,-14.159 -5.905,-17.054 -10.38,-20.845c-1.532,1.532 -3.225,5.42 -10.493,9.04c-4.379,2.181 -17.69,14.366 -21.292,18.004c-2.024,2.044 -5.834,-10.815 -13.908,-14.905c-5.077,-2.572 -15.822,-6.245 -23.124,-14.158Zm11.826,19.137c2.523,-0 4.572,2.048 4.572,4.572c0,2.523 -2.049,4.572 -4.572,4.572c-2.524,-0 -4.572,-2.049 -4.572,-4.572c-0,-2.524 2.048,-4.572 4.572,-4.572Zm45.938,0.486c2.524,-0 4.572,2.049 4.572,4.572c0,2.523 -2.048,4.572 -4.572,4.572c-2.523,0 -4.572,-2.049 -4.572,-4.572c0,-2.523 2.049,-4.572 4.572,-4.572Zm-28.462,111.386c-0.207,0.637 -0.326,1.31 -0.335,2.011c-0.044,3.695 2.881,5.114 4.556,6.356c-0.461,-3.867 2.541,-7.263 5.829,-8.321l2.726,0.013c-0.672,4.469 1.176,7.037 2.966,8.419l-61.173,-0.132l-39.341,9.695l0,-13.834l41.577,-9.999l11.457,-9.624l1.933,4.207l-20.448,10.978l50.253,0.231Z"/>
</svg>
