<?xml version="1.0" encoding="UTF-8" standalone="no"?>
<!DOCTYPE svg PUBLIC "-//W3C//DTD SVG 1.1//EN" "http://www.w3.org/Graphics/SVG/1.1/DTD/svg11.dtd">
<svg width="100%" height="100%" viewBox="0 0 1026 186" version="1.1" xmlns="http://www.w3.org/2000/svg" xmlns:xlink="http://www.w3.org/1999/xlink" xml:space="preserve" xmlns:serif="http://www.serif.com/" style="fill-rule:evenodd;clip-rule:evenodd;stroke-linejoin:round;stroke-miterlimit:2;">
    <path d="M583.342,61.009c-30.281,-0 -54.916,24.635 -54.916,54.916c-0,30.281 24.635,54.916 54.916,54.916c30.282,0 54.916,-24.635 54.916,-54.916c0,-30.281 -24.634,-54.916 -54.916,-54.916m0,122.991c-37.537,0 -68.075,-30.538 -68.075,-68.075c0,-37.537 30.538,-68.075 68.075,-68.075c37.537,-0 68.075,30.538 68.075,68.075c0,37.537 -30.538,68.075 -68.075,68.075" style="fill-rule:nonzero;"/>
    <path d="M94.708,67.703c8.494,-4.746 17.925,-7.121 28.295,-7.121c15.615,-0 28.545,5.187 38.788,15.555l8.81,-8.808c-5.748,-6.245 -12.745,-10.992 -20.988,-14.241c-8.245,-3.248 -17.242,-4.872 -26.984,-4.872c-12.995,0 -24.735,2.874 -35.23,8.619c-10.494,5.749 -18.708,13.712 -24.64,23.891c-5.937,10.184 -8.902,21.583 -8.902,34.2c-0,12.619 2.965,24.017 8.902,34.198c5.932,10.183 14.116,18.148 24.546,23.893c10.432,5.746 22.142,8.619 35.137,8.619c9.744,-0 18.767,-1.655 27.076,-4.967c8.308,-3.309 15.335,-8.086 21.083,-14.335l-8.81,-8.808c-10.118,10.496 -23.048,15.742 -38.788,15.742c-10.37,0 -19.801,-2.372 -28.295,-7.121c-8.496,-4.746 -15.147,-11.242 -19.956,-19.489c-4.811,-8.245 -7.215,-17.487 -7.215,-27.732c-0,-10.243 2.404,-19.487 7.215,-27.734c4.809,-8.245 11.46,-14.739 19.956,-19.489" style="fill-rule:nonzero;"/>
    <path d="M240.111,168.518l0,-119.176l-13.867,-0l0,131.17l87.323,0l-0,-11.994l-73.456,0Z" style="fill-rule:nonzero;"/>
    <path d="M825.27,60.019l0,-9.557l-104.001,-0l0,11.993l85.636,0l-86.948,109.623l-0,9.556l107.561,-0l-0,-11.992l-89.009,0l86.761,-109.623Z" style="fill-rule:nonzero;"/>
    <path d="M883.135,169.642l86.759,-109.623l0,-9.556l-103.999,0l-0,11.992l85.636,0l-86.949,109.623l0,9.558l107.561,-0l0,-11.994l-89.008,0Z" style="fill-rule:nonzero;"/>
    <path d="M409.631,61.009c-30.282,-0 -54.917,24.635 -54.917,54.916c0,30.281 24.635,54.916 54.917,54.916c30.281,0 54.916,-24.635 54.916,-54.916c-0,-30.281 -24.635,-54.916 -54.916,-54.916m-0,122.991c-37.537,0 -68.075,-30.538 -68.075,-68.075c-0,-37.537 30.538,-68.075 68.075,-68.075c37.536,-0 68.075,30.538 68.075,68.075c-0,37.537 -30.539,68.075 -68.075,68.075" style="fill-rule:nonzero;"/>
    <path d="M692.827,26.614l-24.691,32.195l5.835,7.487l24.644,-32.136l-5.788,-7.546Z" style="fill:#808080;fill-rule:nonzero;"/>
    <path d="M655.066,26.614l24.691,32.195l-5.835,7.487l-24.644,-32.136l5.788,-7.546Z" style="fill:#a6a6a6;fill-rule:nonzero;"/>
    <path d="M692.876,41.682l-24.691,-32.194l5.835,-7.488l24.645,32.136l-5.789,7.546Z" style="fill:#4d4d4d;fill-rule:nonzero;"/>
    <path d="M655.066,41.682l24.691,-32.194l-5.835,-7.488l-24.644,32.136l5.788,7.546Z" style="fill:#333;fill-rule:nonzero;"/>
</svg>
