<?xml version="1.0" encoding="UTF-8" standalone="no"?>
<!DOCTYPE svg PUBLIC "-//W3C//DTD SVG 1.1//EN" "http://www.w3.org/Graphics/SVG/1.1/DTD/svg11.dtd">
<svg width="100%" height="100%" viewBox="0 0 764 182" version="1.1" xmlns="http://www.w3.org/2000/svg" xmlns:xlink="http://www.w3.org/1999/xlink" xml:space="preserve" xmlns:serif="http://www.serif.com/" style="fill-rule:evenodd;clip-rule:evenodd;stroke-linejoin:round;stroke-miterlimit:2;">
    <rect id="Artboard1" x="0" y="0" width="764" height="182" style="fill:none;"/>
    <g id="Artboard11" serif:id="Artboard1">
        <path d="M219.769,132.03c-6.427,3.495 -13.792,5.481 -21.616,5.481c-25.029,0 -45.349,-20.32 -45.349,-45.349c-0,-25.028 20.32,-45.349 45.349,-45.349c8.414,0 16.296,2.297 23.053,6.297l9.987,-10.043l15.784,15.696l-9.966,10.022c1.543,2.557 2.841,5.28 3.861,8.134c0.505,1.016 0.86,2.121 1.034,3.285c1.04,3.81 1.596,7.82 1.596,11.958c-0,3.973 -0.152,43.551 -0.152,43.551c0,25.029 -21.642,45.287 -46.671,45.287c-18.768,-0 -34.89,-11.425 -41.777,-27.696l20.499,-8.677c3.508,8.289 11.718,14.114 21.278,14.114c12.744,-0 24.412,-10.284 24.412,-23.028l-1.322,-3.683Zm-9.949,-59.793c-3.424,-2.011 -7.412,-3.164 -11.667,-3.164c-12.744,-0 -23.09,10.346 -23.09,23.089c0,7.592 3.672,14.333 9.335,18.542c3.86,2.9 8.657,4.619 13.852,4.619c12.747,-0 23.096,-10.349 23.096,-23.096c0,-8.533 -4.637,-15.991 -11.526,-19.99Zm-138.125,55.231c-7.03,4.479 -15.374,7.075 -24.32,7.075c-25.029,0 -45.349,-20.32 -45.349,-45.349c0,-25.028 20.32,-45.349 45.349,-45.349c8.946,0 17.29,2.596 24.32,7.075l0,-49.823l22.259,-0l0,131.464l-22.259,0l0,-5.093Zm-24.32,-61.363c-12.743,-0 -23.089,10.346 -23.089,23.089c-0,12.744 10.346,23.09 23.089,23.09c12.744,-0 23.09,-10.346 23.09,-23.09c-0,-12.743 -10.346,-23.089 -23.09,-23.089Zm407.773,2.968c0.044,20.535 0.087,40.22 0.087,40.223c0.063,2.506 0.069,4.397 1.165,5.486c0.737,0.733 1.911,0.497 3.19,0.472c0.074,-0.001 0.147,-0.002 0.22,-0.002l11.428,-0l0,22.259c0,0 -11.333,0 -11.307,-0c-8.097,0.139 -14.545,-2.293 -19.222,-6.94c-4.314,-4.288 -7.471,-10.875 -7.73,-20.842c-0.002,-0.088 -0.003,-0.176 -0.003,-0.265l-0.187,-86.142l22.259,-0.048l0.051,23.539l21.249,0l-0,22.26l-21.2,-0Zm192.616,-0l-0.115,64.647l-22.259,-0.04l0.186,-104.623c0,-0.09 0.002,-0.18 0.004,-0.27c0.259,-9.966 3.415,-16.553 7.73,-20.841c4.696,-4.666 11.178,-7.1 19.313,-6.938l16.229,0.309l-0.425,22.255l-16.228,-0.309l-0.008,-0c-1.28,-0.026 -2.453,-0.261 -3.191,0.472c-1.096,1.089 -1.101,2.982 -1.165,5.49l-0.031,17.588l17.873,0l-0,22.26l-17.913,-0Zm47.715,32.191c3.535,8.223 11.712,13.988 21.224,13.988c7.737,-0 14.587,-3.817 18.78,-9.663l18.088,12.974c-8.23,11.473 -21.684,18.948 -36.868,18.948c-25.029,0 -45.349,-20.32 -45.349,-45.349c0,-25.028 20.32,-45.349 45.349,-45.349c24.129,0 43.878,18.888 45.271,42.67l-0.053,11.781l-66.442,-0Zm40.198,-22.259c-4.171,-6.002 -11.118,-9.932 -18.974,-9.932c-7.855,-0 -14.8,3.931 -18.971,9.932l37.945,-0Zm-453.464,20.247c3.539,8.215 11.71,13.972 21.216,13.972c7.737,-0 14.587,-3.817 18.781,-9.663l18.087,12.974c-8.23,11.473 -21.684,18.948 -36.868,18.948c-25.028,0 -45.349,-20.32 -45.349,-45.349c0,-25.029 20.321,-45.349 45.349,-45.349c24.196,0 43.988,18.993 45.282,42.868l-0.092,11.681l-66.406,-0.082Zm40.237,-22.208c-4.166,-6.039 -11.135,-9.999 -19.021,-9.999c-7.863,-0 -14.814,3.939 -18.984,9.951l38.005,0.048Zm-204.699,-29.032l22.26,-0l-0,84.549l-22.26,0l0,-84.549Zm468.996,1.138l22.259,0l0,84.55l-22.259,-0l-0,-84.55Zm-46.352,-44.313l22.26,-0.04c-0,-0 0.186,104.494 0.186,104.501c0.063,2.505 0.07,4.396 1.165,5.484c0.738,0.733 1.911,0.497 3.19,0.472c0.078,-0.002 0.155,-0.002 0.233,-0.002l5.142,0.005l-0.023,22.26c0,-0 -5.042,-0.006 -5.021,-0.006c-8.091,0.137 -14.537,-2.295 -19.211,-6.94c-4.315,-4.288 -7.471,-10.875 -7.73,-20.842c-0.003,-0.089 -0.004,-0.179 -0.004,-0.269l-0.187,-104.623Zm-164.193,70.89c0.195,0.163 0.534,0.44 0.772,0.591c0.84,0.53 1.8,0.972 2.824,1.387c5.102,2.07 11.382,3.391 16.992,5.277c8.628,2.9 15.786,7.288 19.57,13.736c2.916,4.969 4.317,11.293 2.337,19.725c-3.482,14.823 -13.333,20.308 -25.439,20.811c-12.313,0.511 -28.074,-6.011 -37.295,-10.043l8.918,-20.395c5.944,2.599 15.29,6.913 23.769,8.002c3.629,0.465 7.4,0.695 8.377,-3.465c0.323,-1.375 0.579,-2.449 0.169,-3.306c-0.848,-1.773 -3.041,-2.287 -5.175,-3.125c-5.397,-2.121 -11.778,-3.471 -17.277,-5.358c-8.92,-3.059 -15.779,-7.824 -18.868,-14.587c-2.264,-4.957 -3,-11.329 0.027,-19.759c3.003,-8.364 7.704,-13.431 12.894,-16.5c7.504,-4.438 16.573,-4.662 25.041,-2.526c11.316,2.854 21.187,9.739 21.187,9.739l-12.751,18.245c-0,0 -6.462,-4.53 -13.88,-6.401c-2.781,-0.701 -5.801,-1.355 -8.266,0.102c-1.453,0.86 -2.435,2.522 -3.276,4.864c-0.371,1.033 -0.586,2.499 -0.65,2.986Zm-248.418,-69.738c8.19,0 14.839,6.65 14.839,14.84c0,8.19 -6.649,14.839 -14.839,14.839c-8.19,0 -14.84,-6.649 -14.84,-14.839c0,-8.19 6.65,-14.84 14.84,-14.84Zm469.424,0c8.19,0 14.839,6.65 14.839,14.84c0,8.19 -6.649,14.839 -14.839,14.839c-8.19,0 -14.84,-6.649 -14.84,-14.839c0,-8.19 6.65,-14.84 14.84,-14.84Z"/>
    </g>
</svg>
