<svg class="branding-logo" width="100%" height="100%" viewBox="0 0 169 31" version="1.1" xmlns="http://www.w3.org/2000/svg" xmlns:xlink="http://www.w3.org/1999/xlink" xml:space="preserve" xmlns:serif="http://www.serif.com/" style="fill-rule:evenodd;clip-rule:evenodd;stroke-linejoin:round;stroke-miterlimit:2;"><path id="branding-logo" d="M6.073,4.124l0,15.333c2.376,1.373 4.732,2.748 7.103,4.11c1.206,-0.701 2.385,-1.389 3.567,-2.072c1.177,-0.679 2.355,-1.356 3.569,-2.071c-0.842,-0.489 -1.632,-0.948 -2.441,-1.418c-1.569,0.908 -3.131,1.81 -4.702,2.719c-1.568,-0.908 -3.12,-1.807 -4.675,-2.707l0,-12.458c1.57,-0.907 3.138,-1.814 4.705,-2.719c3.606,2.085 7.192,4.158 10.775,6.23l0,12.458c-3.586,2.073 -7.179,4.15 -10.776,6.23c-3.604,-2.089 -7.202,-4.155 -10.798,-6.246l0,-15.269c-0.83,0.479 -1.611,0.929 -2.4,1.385l0,15.342c4.399,2.543 8.795,5.083 13.198,7.629c4.414,-2.552 8.809,-5.092 13.202,-7.631l0,-15.339c-4.417,-2.553 -8.812,-5.093 -13.202,-7.63c-2.402,1.39 -4.776,2.753 -7.125,4.124Zm60.217,0.676l0,20.169l-1.079,0l0,-20.169l1.079,0Zm62.222,9.426c0.559,2.698 -1.411,5.668 -4.215,6.55c-3.063,0.963 -6.315,-0.539 -7.579,-3.501c-1.237,-2.899 -0.063,-6.281 2.716,-7.82c2.578,-1.427 6.098,-0.772 7.707,1.542c-0.495,0.349 -0.99,0.698 -1.452,1.024c-0.764,-0.909 -1.885,-1.495 -3.194,-1.495c-2.227,0 -4.36,1.955 -4.258,4.252c0.104,2.304 1.871,4.252 4.258,4.252c1.831,0 3.597,-1.323 4.11,-3.07l-2.929,0l0,-1.733l3.018,0l0,-0.001l1.818,0Zm-80.914,-5.327l0,6.429c0,3.1 -1.944,5.118 -4.965,5.175l-0.265,0.001l-2.796,0l-1.172,-1.839l4.106,0c1.921,-0.002 3.115,-1.281 3.115,-3.337l0,-4.438l-3.422,0l0,-1.991l5.399,0Zm121.353,0.064c-0.047,0.067 -0.081,0.121 -0.121,0.172c-1.238,1.571 -2.478,3.142 -3.714,4.715c-0.3,0.381 -0.584,0.773 -0.881,1.156c-0.455,0.586 -0.673,1.26 -0.689,1.989c-0.027,1.092 -0.018,2.186 -0.024,3.278c-0.001,0.074 0,0.147 0,0.231l-2.091,0l0,-0.214c0.004,-0.894 0.017,-1.788 0.009,-2.683c-0.007,-0.684 -0.041,-1.372 -0.362,-1.997c-0.149,-0.29 -0.331,-0.569 -0.532,-0.826c-1.321,-1.689 -2.651,-3.37 -3.976,-5.054c-0.191,-0.243 -0.372,-0.494 -0.573,-0.762l2.666,0c1.261,1.572 2.532,3.155 3.813,4.754c1.279,-1.596 2.546,-3.175 3.816,-4.759l2.659,0Zm-75.531,-0.064c1.812,3.818 3.619,7.625 5.498,11.583l-2.333,0c-0.404,-0.822 -0.814,-1.657 -1.232,-2.51l-6.018,0c-0.41,0.816 -0.83,1.648 -1.254,2.489l-2.318,0c1.849,-3.914 3.649,-7.722 5.464,-11.562l2.193,0Zm-18.193,0.038l0,9.459l8.035,0c-0.542,0.85 -0.944,1.481 -1.327,2.082l-8.769,0l0,-11.541l2.061,0Zm29.134,-0.002c2.112,2.614 4.264,5.279 6.615,8.189l0,-8.169l2.101,0l0,11.515l-2.083,0c-2.108,-2.581 -4.274,-5.235 -6.636,-8.129l0,8.112l-2.077,0l0,-11.518l2.08,0Zm29.453,0l0,9.432l7.299,0l0,2.091l-9.355,0l0,-11.523l2.056,0Zm19.389,0.046l0,2.029l-7.013,0l0,2.251l3.996,0l0,2.133l-3.967,0l0,2.985l7.147,0l0,2.064l-9.335,0l0,-11.462l9.172,0Zm-97.47,-0.082c0.891,0 1.646,0.289 2.244,0.86c0.597,0.57 0.899,1.298 0.899,2.161c0,0.506 -0.091,0.98 -0.273,1.408c-0.176,0.413 -0.434,0.71 -0.767,0.885l-0.243,0.126l0.251,0.108c0.501,0.217 0.901,0.556 1.188,1.007c0.289,0.453 0.435,0.964 0.435,1.518c0,1.091 -0.32,1.951 -0.952,2.557c-0.634,0.606 -1.471,0.913 -2.487,0.913l-5.326,0l0,-11.543l5.031,0Zm-0.283,9.561c0.705,0 1.221,-0.13 1.534,-0.384c0.325,-0.262 0.477,-0.635 0.451,-1.104c0,-1.104 -0.656,-1.665 -1.95,-1.665l-2.786,0l0,3.153l2.751,0Zm38.879,-2.696c-0.67,-1.411 -1.282,-2.696 -2,-4.206c-0.733,1.54 -1.346,2.83 -2.001,4.206l4.001,0Zm-38.879,-2.439c0.958,0 1.464,-0.485 1.464,-1.405c0,-0.689 -0.492,-1.038 -1.464,-1.038l-2.751,0l0,2.443l2.751,0Z"></path></svg>