<svg width="100%" height="100%" viewBox="0 0 160 31" version="1.1" xmlns="http://www.w3.org/2000/svg" xmlns:xlink="http://www.w3.org/1999/xlink" xml:space="preserve" xmlns:serif="http://www.serif.com/" style="fill-rule:evenodd;clip-rule:evenodd;stroke-linejoin:round;stroke-miterlimit:2;">
	<path id="branding-logo" d="M118.987,14.009l1.679,-0.001c0.237,0 0.441,0.167 0.489,0.399c0.565,2.723 -1.401,5.736 -4.231,6.626c-3.074,0.967 -6.339,-0.54 -7.608,-3.513c-1.242,-2.912 -0.065,-6.309 2.726,-7.854c2.6,-1.439 6.146,-0.758 7.769,1.576c0.156,0.225 0.102,0.535 -0.123,0.694c-0.457,0.322 -0.914,0.644 -1.34,0.945c-0.213,0.15 -0.504,0.112 -0.671,-0.087c-0.614,-0.73 -1.515,-1.202 -2.567,-1.202c-1.788,0 -3.513,1.559 -3.432,3.404c0.084,1.862 1.502,3.448 3.432,3.448c1.243,-0 2.449,-0.756 3.046,-1.835l-1.955,0c-0.276,0 -0.5,-0.223 -0.5,-0.5l-0,-1.6c-0,-0.276 0.224,-0.5 0.5,-0.5l2.786,-0Zm-0.457,0.5c-0.026,-0.019 -0.043,-0.022 -0.043,-0l0.043,-0Zm-77.157,6.295l-0.245,0.001l-2.581,-0c-0.171,-0 -0.33,-0.087 -0.422,-0.231l-1.082,-1.698c-0.098,-0.154 -0.105,-0.349 -0.017,-0.51c0.088,-0.16 0.256,-0.259 0.439,-0.259l3.79,-0c0.731,-0.001 1.329,-0.232 1.738,-0.671c0.421,-0.45 0.639,-1.107 0.639,-1.91l-0,-3.598l-2.66,0c-0.276,0 -0.5,-0.224 -0.5,-0.5l0,-1.838c0,-0.276 0.224,-0.5 0.5,-0.5l4.985,-0c0.276,-0 0.5,0.224 0.5,0.5l0,5.936c0,1.577 -0.507,2.874 -1.385,3.789c-0.883,0.919 -2.146,1.46 -3.69,1.489c-0.003,-0 -0.006,-0 -0.009,-0Zm109.687,0.001c0,-0 -0.5,-0.046 -0.5,-0.505l0,-0.187l0.5,0.494l-0.5,-0.502c0.004,-0.823 0.016,-1.646 0.009,-2.47c-0.006,-0.554 -0.019,-1.114 -0.279,-1.62c-0.124,-0.24 -0.274,-0.471 -0.441,-0.683c-1.219,-1.56 -2.447,-3.111 -3.67,-4.666c-0.179,-0.227 -0.348,-0.462 -0.536,-0.712c-0.114,-0.152 -0.132,-0.355 -0.047,-0.524c0.084,-0.169 0.258,-0.276 0.447,-0.276l2.462,-0c0.151,-0 0.295,0.068 0.39,0.187c1.036,1.292 2.079,2.591 3.13,3.902c1.049,-1.308 2.09,-2.605 3.133,-3.907c0.095,-0.118 0.239,-0.187 0.39,-0.187l2.456,-0c0.186,-0 0.357,0.104 0.443,0.269c0.086,0.166 0.073,0.365 -0.034,0.518c-0.049,0.07 -0.086,0.127 -0.128,0.181c-1.143,1.45 -2.288,2.901 -3.429,4.353c-0.277,0.351 -0.538,0.712 -0.812,1.065c-0.352,0.454 -0.519,0.977 -0.531,1.542c-0.025,1.005 -0.017,2.012 -0.022,3.017l-0,0.004c-0.001,0.067 -0,0.132 -0,0.207c-0,0.276 -0.224,0.5 -0.5,0.5l-1.931,-0Zm-94.91,-6.255c0.313,0.219 0.577,0.495 0.786,0.824c0.318,0.498 0.48,1.06 0.48,1.67c-0,1.164 -0.359,2.075 -1.033,2.722c-0.675,0.644 -1.562,0.982 -2.642,0.982l-4.918,-0c-0.276,-0 -0.5,-0.224 -0.5,-0.5l0,-10.658c0,-0.276 0.224,-0.5 0.5,-0.5l4.645,-0c0.961,-0 1.773,0.317 2.418,0.932c0.651,0.622 0.984,1.415 0.984,2.357c0,0.538 -0.098,1.041 -0.292,1.496c-0.113,0.267 -0.257,0.491 -0.428,0.675Zm-2.943,-1.374c0.287,0 0.514,-0.049 0.661,-0.19c0.141,-0.135 0.191,-0.344 0.191,-0.607c-0,-0.371 -0.328,-0.458 -0.852,-0.458l-2.04,-0c-0,-0 -0,1.255 -0,1.255l2.04,0Zm0,4.742c0.503,-0 0.878,-0.062 1.101,-0.243l0.002,-0.001c0.175,-0.142 0.245,-0.349 0.231,-0.603c-0.001,-0.009 -0.001,-0.018 -0.001,-0.027c-0,-0.338 -0.078,-0.601 -0.277,-0.771c-0.227,-0.194 -0.573,-0.267 -1.024,-0.267c0,0 -2.072,0 -2.072,0c-0,0 -0,1.912 -0,1.912l2.04,-0Zm-45.842,-13.169c2.169,-1.266 4.362,-2.525 6.58,-3.808c0.155,-0.09 0.346,-0.09 0.501,-0.001c4.053,2.343 8.111,4.688 12.189,7.045c0.155,0.09 0.25,0.255 0.25,0.433l-0,14.163c-0,0.178 -0.095,0.343 -0.25,0.433c-4.056,2.344 -8.114,4.689 -12.189,7.045c-0.155,0.09 -0.346,0.09 -0.501,0c-4.065,-2.35 -8.124,-4.695 -12.186,-7.043c-0.154,-0.09 -0.25,-0.255 -0.25,-0.433l0,-14.166c0,-0.178 0.096,-0.343 0.25,-0.433c0.729,-0.421 1.45,-0.836 2.217,-1.279c0.154,-0.089 0.345,-0.089 0.499,0.001c0.155,0.089 0.25,0.254 0.25,0.433l0,13.81c3.154,1.833 6.31,3.646 9.471,5.477c3.154,-1.824 6.304,-3.645 9.449,-5.463c-0,-0 -0,-10.926 -0,-10.926c-3.142,-1.817 -6.287,-3.635 -9.449,-5.463c-1.28,0.74 -2.561,1.48 -3.844,2.222c0,-0 0,10.925 0,10.925c1.27,0.735 2.538,1.47 3.817,2.21c1.366,-0.79 2.725,-1.575 4.091,-2.365c0.155,-0.09 0.346,-0.09 0.501,0c0.747,0.434 1.476,0.858 2.254,1.309c0.153,0.09 0.248,0.254 0.249,0.431c0,0.178 -0.093,0.342 -0.247,0.433c-1.122,0.66 -2.211,1.286 -3.298,1.914c-1.091,0.63 -2.18,1.265 -3.293,1.912c-0.154,0.09 -0.345,0.091 -0.5,0.002c-2.19,-1.258 -4.365,-2.528 -6.559,-3.796c-0.155,-0.089 -0.25,-0.254 -0.25,-0.433l-0,-14.157c-0,-0.178 0.094,-0.342 0.248,-0.432Zm56.351,1.056l-0,18.622c-0,0.277 -0.224,0.5 -0.5,0.5l-0.997,0c-0.276,0 -0.5,-0.223 -0.5,-0.5l0,-18.622c0,-0.276 0.224,-0.5 0.5,-0.5l0.997,0c0.276,0 0.5,0.224 0.5,0.5Zm25.001,3.571c1.673,3.525 3.341,7.04 5.076,10.694c0.074,0.155 0.063,0.337 -0.029,0.482c-0.092,0.145 -0.251,0.233 -0.423,0.233l-2.154,-0c-0.19,-0 -0.364,-0.109 -0.448,-0.28c-0.329,-0.669 -0.662,-1.347 -1.001,-2.038c0,0 -4.936,0 -4.936,0c-0.335,0.665 -0.676,1.341 -1.02,2.023c-0.085,0.169 -0.258,0.275 -0.446,0.275l-2.141,0c-0.171,0 -0.33,-0.087 -0.422,-0.232c-0.092,-0.145 -0.103,-0.326 -0.03,-0.481c1.707,-3.614 3.369,-7.13 5.045,-10.676c0.083,-0.175 0.259,-0.286 0.452,-0.286l2.025,-0c0.193,-0 0.369,0.111 0.452,0.286Zm-0.404,6.052c-0.35,-0.737 -0.692,-1.456 -1.055,-2.219c-0.368,0.773 -0.71,1.493 -1.056,2.219l2.111,0Zm-16.346,-5.803l0,8.234l6.919,-0c0.183,-0 0.351,0.099 0.439,0.259c0.087,0.16 0.081,0.355 -0.017,0.509c-0.501,0.785 -0.872,1.368 -1.225,1.923c-0.092,0.144 -0.251,0.231 -0.422,0.231l-8.097,-0c-0.276,-0 -0.5,-0.224 -0.5,-0.5l0,-10.656c0,-0.276 0.224,-0.5 0.5,-0.5l1.903,-0c0.276,-0 0.5,0.224 0.5,0.5Zm26.789,-0.316c1.681,2.08 3.389,4.196 5.219,6.461l-0,-6.128c-0,-0.277 0.224,-0.5 0.5,-0.5l1.94,-0c0.276,-0 0.5,0.223 0.5,0.5l-0,10.632c-0,0.276 -0.224,0.5 -0.5,0.5l-1.924,-0c-0.15,-0 -0.292,-0.068 -0.387,-0.184c-1.679,-2.057 -3.399,-4.163 -5.24,-6.419l0,6.087c0,0.276 -0.224,0.5 -0.5,0.5l-1.917,-0c-0.277,-0 -0.5,-0.224 -0.5,-0.5l-0,-10.635c-0,-0.276 0.223,-0.5 0.5,-0.5l1.92,0c0.151,0 0.294,0.068 0.389,0.186Zm27.305,0.314c0,0 0,8.209 0,8.209l6.239,-0c0.277,-0 0.5,0.224 0.5,0.5l0,1.93c0,0.277 -0.223,0.5 -0.5,0.5l-8.637,0c-0.276,0 -0.5,-0.223 -0.5,-0.5l-0,-10.639c-0,-0.276 0.224,-0.5 0.5,-0.5l1.898,0c0.276,0 0.5,0.224 0.5,0.5Zm17.902,0.043l0,1.873c0,0.276 -0.224,0.5 -0.5,0.5l-5.975,-0c0,-0 0,1.078 0,1.078l3.19,0c0.276,0 0.5,0.224 0.5,0.5l-0,1.97c-0,0.276 -0.224,0.5 -0.5,0.5l-3.163,-0l-0,1.756l6.099,-0c0.276,-0 0.5,0.224 0.5,0.5l-0,1.906c-0,0.276 -0.224,0.5 -0.5,0.5l-8.619,-0c-0.276,-0 -0.5,-0.224 -0.5,-0.5l-0,-10.583c-0,-0.277 0.224,-0.5 0.5,-0.5l8.468,-0c0.276,-0 0.5,0.223 0.5,0.5Z"/>  
</svg>
