<svg width="100%" height="100%" viewBox="0 0 410 74" version="1.1" xmlns="http://www.w3.org/2000/svg" xmlns:xlink="http://www.w3.org/1999/xlink" xml:space="preserve" xmlns:serif="http://www.serif.com/" style="fill-rule:evenodd;clip-rule:evenodd;stroke-linejoin:round;stroke-miterlimit:2;">
	<path d="M23.155,72.227l-0,-12.118l2.316,-0l-0,5.002l0.033,-0l3.005,-5.002l2.534,-0l-3.122,4.884l3.475,7.234l-2.602,0l-2.417,-5.085l-0.906,1.376l-0,3.709l-2.316,0Zm21.455,0l0,-12.118l2.316,-0l0,4.834l3.273,-0l0,-4.834l2.317,-0l-0,12.118l-2.317,0l0,-5.236l-3.273,-0l0,5.236l-2.316,0Zm24.594,-4.599l2.3,0l-1.125,-4.901l-0.033,0l-1.142,4.901Zm-3.306,4.599l3.004,-12.118l2.971,-0l2.921,12.118l-2.216,0l-0.587,-2.551l-3.206,0l-0.655,2.551l-2.232,0Zm21.942,-8.224c0,-1.421 0.357,-2.473 1.074,-3.155c0.638,-0.605 1.555,-0.907 2.753,-0.907c1.196,0 2.115,0.302 2.753,0.907c0.715,0.682 1.074,1.734 1.074,3.155l-0,4.33c-0,1.421 -0.359,2.474 -1.074,3.156c-0.638,0.604 -1.557,0.906 -2.753,0.906c-1.198,0 -2.115,-0.302 -2.753,-0.906c-0.717,-0.682 -1.074,-1.735 -1.074,-3.156l0,-4.33Zm2.316,4.633c0,1.141 0.504,1.712 1.511,1.712c1.007,-0 1.511,-0.571 1.511,-1.712l-0,-4.935c-0,-1.141 -0.504,-1.712 -1.511,-1.712c-1.007,-0 -1.511,0.571 -1.511,1.712l0,4.935Zm26.084,-5.153c-0.37,-1.085 -0.935,-1.628 -1.696,-1.628c-0.851,-0 -1.275,0.442 -1.275,1.326c-0,0.392 0.268,0.772 0.805,1.141c0.19,0.123 0.464,0.285 0.823,0.487c0.044,0.01 0.084,0.033 0.117,0.067l0.84,0.453c0.369,0.212 0.688,0.414 0.956,0.604c0.324,0.246 0.599,0.498 0.823,0.756c0.533,0.627 0.82,1.426 0.805,2.249c0,1.051 -0.341,1.886 -1.023,2.501c-0.684,0.637 -1.628,0.956 -2.837,0.956c-0.973,0 -1.791,-0.268 -2.451,-0.805c-0.704,-0.582 -1.208,-1.45 -1.51,-2.602l2.283,-0.487c0.122,0.672 0.369,1.186 0.738,1.544c0.313,0.292 0.665,0.437 1.058,0.437c0.95,-0 1.426,-0.481 1.426,-1.444c0,-0.503 -0.268,-0.962 -0.805,-1.376c-0.267,-0.192 -0.541,-0.37 -0.823,-0.537l-0.957,-0.52c-0.331,-0.175 -0.651,-0.372 -0.956,-0.588c-0.298,-0.2 -0.573,-0.431 -0.823,-0.688c-0.521,-0.532 -0.811,-1.252 -0.805,-1.997c-0,-2.26 1.213,-3.391 3.642,-3.391c0.995,0 1.823,0.275 2.484,0.823c0.615,0.514 1.029,1.219 1.242,2.114l-2.081,0.605Zm16,0.52c0,-1.421 0.358,-2.473 1.074,-3.155c0.638,-0.605 1.555,-0.907 2.753,-0.907c1.197,0 2.115,0.302 2.753,0.907c0.716,0.682 1.074,1.734 1.074,3.155l0,4.33c0,1.421 -0.358,2.474 -1.074,3.156c-0.638,0.604 -1.556,0.906 -2.753,0.906c-1.198,0 -2.115,-0.302 -2.753,-0.906c-0.716,-0.682 -1.074,-1.735 -1.074,-3.156l0,-4.33Zm2.317,4.633c-0,1.141 0.503,1.712 1.51,1.712c1.007,-0 1.511,-0.571 1.511,-1.712l-0,-4.935c-0,-1.141 -0.504,-1.712 -1.511,-1.712c-1.007,-0 -1.51,0.571 -1.51,1.712l-0,4.935Zm19.206,3.591l-0,-12.118l2.316,-0l0,5.002l0.034,-0l3.004,-5.002l2.535,-0l-3.122,4.884l3.474,7.234l-2.601,0l-2.417,-5.085l-0.907,1.376l0,3.709l-2.316,0Z"/>
	<path d="M195.837,66.169l5.934,-5.935l5.934,5.935l-5.934,5.933l-5.934,-5.933Z"/>
	<path d="M242.8,60.109l-0,2.048l-2.702,-0l-0,10.07l-2.317,0l0,-10.07l-2.702,-0l0,-2.048l7.721,-0Zm13.5,12.118l-0,-12.118l2.316,-0l-0,4.834l3.273,-0l-0,-4.834l2.316,-0l0,12.118l-2.316,0l-0,-5.236l-3.273,-0l-0,5.236l-2.316,0Zm24.594,-4.599l2.299,0l-1.124,-4.901l-0.034,0l-1.141,4.901Zm-3.307,4.599l3.005,-12.118l2.971,-0l2.92,12.118l-2.215,0l-0.588,-2.551l-3.206,0l-0.654,2.551l-2.233,0Zm22.278,0l0,-12.118l2.316,-0l0,12.118l-2.316,0Zm16.521,0l0,-12.118l2.316,-0l0,10.071l3.727,-0l-0,2.047l-6.043,0Zm21.926,-4.599l2.299,0l-1.125,-4.901l-0.033,0l-1.141,4.901Zm-3.307,4.599l3.004,-12.118l2.971,-0l2.921,12.118l-2.216,0l-0.587,-2.551l-3.206,0l-0.655,2.551l-2.232,0Zm22.278,0l-0,-12.118l2.534,-0l3.223,7.184l0.034,-0l-0,-7.184l2.114,-0l0,12.118l-2.215,0l-3.542,-7.821l-0.033,-0l-0,7.821l-2.115,0Zm22.11,-12.118l3.223,-0c1.364,-0 2.388,0.319 3.071,0.957c0.727,0.671 1.113,1.751 1.158,3.239l0,3.726c-0.045,1.488 -0.431,2.568 -1.158,3.24c-0.683,0.638 -1.707,0.956 -3.071,0.956l-3.223,0l0,-12.118Zm2.316,10.071l0.806,-0c1.343,-0 2.014,-0.806 2.014,-2.417l0,-3.189c0,-1.612 -0.671,-2.417 -2.014,-2.417l-0.806,-0l0,8.023Z"/>
	<path d="M-0,15.658c-0,-4.872 1.228,-8.479 3.683,-10.819c2.187,-2.072 5.333,-3.108 9.438,-3.108c4.105,0 7.251,1.036 9.438,3.108c2.455,2.34 3.683,5.947 3.683,10.819l-0,14.847c-0,4.872 -1.228,8.479 -3.683,10.819c-2.187,2.072 -5.333,3.107 -9.438,3.107c-4.105,0 -7.251,-1.035 -9.438,-3.107c-2.455,-2.34 -3.683,-5.947 -3.683,-10.819l-0,-14.847Zm7.942,15.883c-0,3.913 1.726,5.87 5.179,5.87c3.453,-0 5.179,-1.957 5.179,-5.87l0,-16.919c0,-3.913 -1.726,-5.87 -5.179,-5.87c-3.453,0 -5.179,1.957 -5.179,5.87l-0,16.919Zm30.798,-29.234l0,29.061c0,4.029 1.861,6.043 5.582,6.043c3.76,-0 5.64,-2.014 5.64,-6.043l-0,-29.061l7.941,-0l0,29.119c0,4.412 -1.247,7.73 -3.74,9.955c-2.302,2.034 -5.582,3.05 -9.841,3.05c-4.258,0 -7.539,-1.016 -9.84,-3.05c-2.456,-2.225 -3.683,-5.543 -3.683,-9.955l-0,-29.119l7.941,-0Zm43.056,41.549l-6.905,-16.919l-3.799,0l0,16.919l-7.941,-0l-0,-41.549l11.509,-0c9.4,-0 14.099,4.143 14.099,12.43c0,5.486 -2.09,9.016 -6.272,10.589l7.826,18.53l-8.517,-0Zm-10.704,-23.479l4.086,-0c3.76,-0 5.64,-1.919 5.64,-5.755c-0,-3.836 -1.88,-5.755 -5.64,-5.755l-4.086,0l0,11.51Zm46.923,-18.07l-0,32.744c-0,6.254 -3.549,9.38 -10.646,9.38c-1.458,0 -2.763,-0.057 -3.913,-0.172l-0,-7.021l2.129,0.173c2.992,-0 4.488,-1.324 4.488,-3.971l0,-31.133l7.942,-0Zm13.649,-0l0,29.061c0,4.029 1.861,6.043 5.583,6.043c3.759,-0 5.639,-2.014 5.639,-6.043l0,-29.061l7.942,-0l-0,29.119c-0,4.412 -1.247,7.73 -3.741,9.955c-2.302,2.034 -5.582,3.05 -9.84,3.05c-4.259,0 -7.539,-1.016 -9.841,-3.05c-2.455,-2.225 -3.683,-5.543 -3.683,-9.955l-0,-29.119l7.941,-0Zm24.87,41.549l0,-41.549l8.69,-0l11.049,24.63l0.115,0l0,-24.63l7.251,-0l0,41.549l-7.596,-0l-12.143,-26.817l-0.115,-0l0,26.817l-7.251,-0Zm52.207,-3.453c-2.379,2.686 -4.854,4.028 -7.424,4.028c-4.105,0 -7.251,-1.035 -9.438,-3.107c-2.455,-2.34 -3.683,-5.947 -3.683,-10.819l0,-14.847c0,-4.872 1.228,-8.479 3.683,-10.819c2.187,-2.072 5.333,-3.108 9.438,-3.108c8.248,0 12.507,4.7 12.775,14.099l-7.941,0c-0,-4.718 -1.611,-7.078 -4.834,-7.078c-3.453,0 -5.179,1.957 -5.179,5.87l-0,16.919c-0,3.913 1.726,5.87 5.179,5.87c3.223,-0 4.834,-1.919 4.834,-5.755l-0,-2.532l-5.582,-0l-0,-6.561l13.523,0l0,21.293l-4.143,-0l-1.208,-3.453Zm9.793,3.453l0,-41.549l7.942,-0l-0,34.528l12.775,0l0,7.021l-20.717,-0Zm23.203,-0l-0,-41.549l21.753,-0l-0,7.021l-13.812,-0l0,9.552l10.531,0l0,7.021l-10.531,0l0,10.934l14.387,0l0,7.021l-22.328,-0Zm47.324,-12.315c-0,3.913 1.726,5.87 5.179,5.87c3.453,-0 5.179,-1.957 5.179,-5.87l0,-2.762l7.942,-0l-0,1.726c-0,4.872 -1.228,8.479 -3.683,10.819c-2.187,2.072 -5.333,3.107 -9.438,3.107c-4.105,0 -7.251,-1.035 -9.438,-3.107c-2.455,-2.34 -3.683,-5.947 -3.683,-10.819l0,-14.847c0,-4.872 1.228,-8.479 3.683,-10.819c2.187,-2.072 5.333,-3.108 9.438,-3.108c4.105,0 7.251,1.036 9.438,3.108c2.455,2.34 3.683,5.947 3.683,10.819l-0,0.115l-7.942,-0l0,-1.151c0,-3.913 -1.726,-5.87 -5.179,-5.87c-3.453,0 -5.179,1.957 -5.179,5.87l-0,16.919Zm30.914,-3.453l7.884,0l-3.856,-16.804l-0.115,0l-3.913,16.804Zm-11.337,15.768l10.301,-41.549l10.186,-0l10.013,41.549l-7.596,-0l-2.015,-8.747l-10.991,-0l-2.244,8.747l-7.654,-0Zm32.928,-0l-0,-41.549l11.106,-0l7.194,27.277l0.115,0l7.193,-27.277l11.107,-0l-0,41.549l-6.791,-0l0,-32.687l-0.115,0l-8.459,32.687l-5.985,-0l-8.46,-32.687l-0.115,0l0,32.687l-6.79,-0Zm42.423,-0l-0,-41.549l11.452,-0c9.706,-0 14.559,4.143 14.559,12.43c0,8.287 -4.853,12.43 -14.559,12.43l-3.511,0l0,16.689l-7.941,-0Zm7.941,-23.249l4.259,-0c3.913,-0 5.869,-1.957 5.869,-5.87c0,-3.913 -1.956,-5.87 -5.869,-5.87l-4.259,0l0,11.74Z"/>
</svg>
