<svg width="100%" height="100%" viewBox="0 0 410 92" version="1.1" xmlns="http://www.w3.org/2000/svg" xmlns:xlink="http://www.w3.org/1999/xlink" xml:space="preserve" xmlns:serif="http://www.serif.com/" style="fill-rule:evenodd;clip-rule:evenodd;stroke-linejoin:round;stroke-miterlimit:2;">
	<path d="M15.705,28.367c4.074,-0 7.443,1.543 10.252,4.21c2.667,2.806 4.073,6.315 4.073,10.384c-0,4.071 -1.406,7.579 -4.073,10.386c-2.809,2.807 -6.178,4.211 -10.252,4.211c-4.072,-0 -7.582,-1.404 -10.251,-4.211c-2.667,-2.807 -4.072,-6.315 -4.072,-10.386c0,-4.069 1.405,-7.578 4.072,-10.384c2.809,-2.807 6.179,-4.21 10.251,-4.21Zm0,26.103c3.23,-0 5.758,-0.983 7.723,-3.228c2.107,-2.105 3.09,-4.912 3.09,-8.14c-0,-3.227 -0.983,-5.894 -3.09,-8.14c-1.965,-2.244 -4.493,-3.368 -7.723,-3.368c-3.229,-0 -5.756,1.124 -7.863,3.368c-2.106,2.105 -3.089,4.913 -3.089,8.14c-0,3.228 0.983,5.894 3.089,8.14c2.107,2.105 4.634,3.228 7.863,3.228Zm41.847,-9.543l-0.141,0l0,-16.139l3.371,-0l0,15.998c0,3.93 -0.983,7.017 -2.948,9.263c-1.967,2.385 -4.916,3.509 -8.847,3.509c-3.933,-0 -6.882,-1.263 -8.847,-3.509c-1.966,-2.246 -2.949,-5.333 -2.949,-9.263l0,-15.998l3.37,-0l-0,16.139c-0,6.455 2.668,9.683 8.426,9.683c5.757,0 8.565,-3.228 8.565,-9.683Zm30.052,7.297c1.403,1.544 3.089,2.386 4.774,2.246l0.702,0.14l-0.141,2.666l-0.701,-0c-1.686,-0 -2.949,-0.28 -4.073,-0.701c-0.982,-0.562 -2.106,-1.263 -3.089,-2.386c-0.983,-0.982 -3.089,-3.649 -6.179,-7.999c-1.965,0 -3.792,0 -5.617,-0.141l0,11.088l-3.371,-0l0,-28.209l0.703,0c2.387,-0.14 4.493,-0.281 6.179,-0.281c2.668,-0 4.914,0.702 6.74,2.105c1.825,1.404 2.808,3.509 2.808,6.176c0,1.823 -0.562,3.368 -1.545,4.911c-0.842,1.263 -1.824,2.246 -2.807,3.088c3.089,4.21 4.914,6.455 5.617,7.297Zm-14.324,-20.348l0,11.506c1.825,0.141 3.37,0.141 4.915,0.141c0.842,0 1.826,-0.701 2.948,-1.964c1.124,-1.404 1.686,-2.947 1.686,-4.631c-0,-1.684 -0.562,-2.947 -1.686,-3.789c-1.122,-0.983 -2.667,-1.404 -4.634,-1.404c-0.983,-0 -1.965,-0 -3.229,0.141Z"/>
	<path d="M360.171,44.926l-0.141,0l0,-15.998l3.371,-0l0,15.998c0,3.93 -0.984,7.017 -2.95,9.263c-1.965,2.385 -4.914,3.509 -8.847,3.509c-3.931,-0 -6.879,-1.263 -8.845,-3.509c-1.967,-2.246 -2.95,-5.333 -2.95,-9.263l-0,-15.998l3.371,-0l-0,15.998c-0,6.456 2.808,9.684 8.565,9.684c5.617,-0 8.426,-3.228 8.426,-9.684Zm22.468,-1.825c0.562,0.421 1.264,0.983 1.685,1.545c1.545,1.543 2.248,3.227 2.248,5.192c-0,2.526 -0.844,4.492 -2.529,5.755c-1.684,1.263 -3.932,1.964 -6.88,1.964c-2.809,-0 -5.337,-0.701 -7.303,-2.246l-0.562,-0.421l1.827,-2.526l0.56,0.421c1.827,1.263 3.651,1.825 5.618,1.825c1.966,-0 3.511,-0.28 4.494,-1.123c1.123,-0.842 1.544,-1.824 1.544,-3.228c0,-1.263 -0.421,-2.386 -1.544,-3.368c-0.703,-0.842 -1.827,-1.684 -3.23,-2.666c-1.545,-0.983 -2.387,-1.684 -2.949,-2.105c-0.562,-0.562 -1.264,-1.124 -1.966,-1.825c-1.544,-1.543 -2.388,-3.368 -2.388,-5.473c0,-2.105 0.703,-3.789 2.248,-4.911c1.403,-1.124 3.369,-1.684 5.897,-1.684c2.388,-0 4.634,0.421 6.601,1.402l0.562,0.282l-1.265,2.806l-0.703,-0.28c-1.544,-0.703 -3.51,-1.124 -5.616,-1.124c-1.153,-0.018 -2.282,0.326 -3.229,0.983c-0.703,0.701 -1.124,1.404 -1.124,2.526c0,1.263 0.562,2.385 1.684,3.509c0.844,0.842 1.967,1.684 3.371,2.665c0.993,0.689 1.976,1.39 2.949,2.105Zm-64.456,-14.735c3.933,-0 7.444,1.545 10.251,4.21c2.669,2.808 4.074,6.315 4.074,10.386c-0,4.069 -1.405,7.578 -4.074,10.385c-2.807,2.806 -6.178,4.21 -10.251,4.21c-4.072,-0 -7.441,-1.404 -10.25,-4.21c-2.669,-2.807 -4.073,-6.316 -4.073,-10.385c0,-4.071 1.404,-7.578 4.073,-10.386c2.809,-2.806 6.178,-4.21 10.25,-4.21Zm0,26.103c3.09,-0 5.617,-0.982 7.724,-3.227c2.106,-2.105 3.089,-4.912 3.089,-8.141c0,-3.227 -0.983,-5.894 -3.089,-8.138c-1.966,-2.246 -4.493,-3.368 -7.724,-3.368c-3.228,-0 -5.756,1.122 -7.862,3.368c-2.107,2.105 -3.09,4.911 -3.09,8.138c0,3.229 0.983,5.895 3.09,8.141c2.106,2.105 4.634,3.227 7.862,3.227Zm79.341,-0.421l11.094,-0l-0,3.229l-14.464,-0l0,-28.49l14.043,-0l-0,3.088l-10.673,-0l-0,8.42l9.549,0l0,3.088l-9.549,0l-0,10.665Zm-104.617,-13.612l-0,-11.649l3.371,-0l-0,28.49l-3.371,-0l-0,-13.755l-17.413,0l0,13.755l-3.23,-0l0,-28.49l3.23,-0l0,11.649l17.413,-0Z"/>
	<path d="M217.694,48.724c0.008,-0.022 0.011,-0.056 0.011,-0.104l0,0.081l-0.011,0.023Zm-0.009,0.019l-0.061,0.122c-7.282,10.875 -16.364,24.367 -18.164,37.533c0.245,0.245 0.327,0.654 0.327,1.144c-0,1.635 -1.391,3.435 -1.963,3.435c-1.228,-0 -1.8,-2.29 -1.8,-3.598c-0,-5.151 2.454,-10.385 4.663,-15.046l-0,-0.082c3.518,-7.359 8.018,-14.473 12.355,-21.26c-1.718,0.654 -4.745,1.472 -7.528,1.472c-4.99,-0 -6.709,-3.68 -6.709,-7.114c-0,-0.246 0.082,-0.573 0.082,-0.899l-0.163,0.163c-2.455,2.698 -5.81,6.296 -10.146,6.296c-4.337,-0 -4.827,-4.17 -4.827,-7.359c-0,-0.654 0.081,-1.308 0.081,-1.881l-0,-1.226c-0,-0.818 -0.164,-0.982 -0.164,-0.982c-1.064,0 -3.6,3.271 -5.972,6.46c-3.192,4.171 -6.383,8.504 -8.51,8.504c-0.245,0 -0.573,0 -0.736,-0.327l-0.082,-0.081l0.082,-0.082c1.963,-3.843 5.646,-13.738 5.646,-19.053c-0,-0.981 -0.082,-1.308 -0.246,-1.308c-1.719,-0 -4.337,2.944 -6.955,5.805c-1.227,1.391 -2.454,2.699 -3.6,3.762c-1.555,1.717 -4.582,4.334 -4.582,4.334c-0.163,0.164 -4.418,3.843 -8.018,3.843c-1.964,0 -3.11,-1.554 -3.11,-4.415l0,-0.9c-0.082,0.164 -0.245,0.327 -0.408,0.49c-2.782,3.189 -6.219,7.114 -8.919,7.114c-1.146,0 -2.373,-0.899 -2.373,-2.779c0,-1.309 0.409,-3.189 1.227,-5.642c-0.409,-0.083 -0.818,-0 -1.227,-0c-0.982,0.081 -2.127,0.245 -3.273,0.571l-0.327,0.082l-0,0.328c-0,2.944 -0.163,5.723 -0.245,8.422c-0.164,2.617 -0.328,4.743 -0.655,6.214c-0.818,3.843 -1.963,6.951 -3.436,9.24c-1.392,2.29 -2.946,4.007 -4.582,5.234c-1.637,1.226 -3.273,2.044 -4.828,2.371c-1.554,0.409 -2.864,0.572 -3.927,0.572c-3.273,0 -5.973,-1.063 -7.937,-2.943c-2.046,-1.881 -2.946,-4.334 -2.781,-7.442c0.163,-2.453 1.063,-4.906 2.7,-7.195c1.636,-2.372 3.763,-4.58 6.136,-6.623c2.454,-2.045 5.072,-3.925 7.937,-5.479c2.945,-1.554 5.645,-2.862 8.182,-3.762l0.326,-0.081l0,-7.932c0,-2.453 0.083,-4.906 0.165,-7.359c0.082,-2.371 0.327,-4.743 0.654,-6.951c0.246,-1.799 0.655,-3.516 1.228,-5.07l0.163,-0.327l0.082,0.164l0.245,-0.736l0.082,0c0.082,0 0.164,-0.082 0.491,-0.082c0.409,0 0.9,0 1.309,0.163c0.408,0.169 0.793,0.39 1.146,0.655c0.163,0.163 0.245,0.327 0.082,0.654c-0.638,1.447 -1.131,2.954 -1.473,4.498c-0.327,1.471 -0.573,2.861 -0.737,4.17c-0.245,1.472 -0.327,2.944 -0.327,4.416l-0,3.679c-0,1.145 0.082,2.453 0.082,4.006c0.082,1.554 0.082,3.189 0.082,4.743l0,0.573l0.491,-0.082c1.39,-0.245 2.7,-0.327 3.763,-0.327l0.082,-0l0.9,0.736c1.226,-3.047 2.563,-6.047 4.01,-8.995l-0,-0.082c0.245,-0.245 1.636,-1.062 2.536,-1.062c0.491,-0 0.736,0.245 0.736,0.735l0,0.082c-0.327,0.736 -0.736,1.39 -1.064,2.044c-2.126,4.088 -4.5,8.668 -4.5,13.41c0,0.818 0,1.064 0.41,1.064c0.817,-0 2.209,-1.718 3.6,-3.517c2.045,-2.616 4.336,-5.56 6.545,-5.56c0.164,0 0.41,0 0.655,0.082c0.49,0.245 0.49,1.063 0.49,2.371l0,1.717c0,1.554 0.165,2.944 1.474,2.944c2.045,-0.163 4.254,-2.371 6.3,-4.579c0.9,-0.9 1.636,-1.717 2.454,-2.453l0.164,-0.164c0.491,-0.409 1.146,-1.144 2.046,-2.044l0.082,-0.082c0.327,-0.327 0.818,-0.818 1.308,-1.39c2.537,-2.78 6.464,-6.95 9.737,-6.95c1.882,-0 3.028,1.308 3.028,3.352c-0,0.409 -0.082,0.981 -0.164,1.472l-0,0.164c-0.164,0.654 -0.246,1.308 -0.409,1.88c-0.655,2.781 -1.227,5.07 -1.964,7.442c0.164,-0.246 0.327,-0.491 0.573,-0.736c2.782,-3.434 6.382,-7.687 10.309,-8.014c0.818,-0 1.228,0.818 1.228,2.372c-0,0.899 -0.165,1.962 -0.246,2.943c-0.082,0.654 -0.164,1.308 -0.164,1.636c0,1.308 0.492,5.069 2.373,5.069c2.291,0 5.809,-3.598 7.937,-5.805l1.227,-1.227c0.328,-0.245 0.655,-0.491 1.391,-0.573c1.964,-4.415 6.792,-8.176 11.455,-8.176c3.6,-0 6.055,2.208 6.055,5.397c-0,1.144 -0.328,2.371 -0.982,3.761c-1.228,2.617 -4.664,5.969 -7.528,8.095c2.292,-0.245 4.5,-1.063 6.792,-2.044c0.326,-0.082 0.818,-0.245 1.308,-0.245c0.527,-0 0.736,0.211 0.798,0.123Zm-88.591,-1.432l-0.654,0.246c-2.373,0.981 -4.91,2.289 -7.446,3.843c-2.537,1.471 -4.827,3.189 -6.955,5.07c-2.127,1.798 -3.927,3.761 -5.237,5.805c-1.39,2.045 -2.127,4.007 -2.208,5.97l-0,1.88c-0,0.899 0.245,1.799 0.736,2.699c0.491,0.899 1.309,1.799 2.454,2.535c1.064,0.817 2.7,1.308 4.746,1.553c0.327,0.082 0.654,0.082 0.982,0.082c1.718,-0 3.273,-0.573 4.663,-1.717c1.637,-1.309 3.028,-2.944 4.174,-4.906c1.145,-1.881 2.126,-4.007 2.781,-6.215c0.655,-2.208 1.145,-4.171 1.392,-5.888c0.248,-1.68 0.411,-3.372 0.49,-5.069c0.082,-1.881 0.082,-3.598 0.082,-5.234l0,-0.654Zm81.657,-11.775c-5.727,0 -8.1,5.643 -8.427,10.467c0.245,1.717 0.9,4.17 3.108,4.743c3.192,-1.718 8.51,-6.051 8.51,-11.53c0,-2.453 -1.063,-3.68 -3.191,-3.68Zm51.792,6.296c0.165,0 0.818,0.082 0.818,0.328c0,0.163 -0.163,0.408 -0.572,0.818l-4.418,4.579c-2.864,2.78 -5.728,5.314 -10.473,5.314c-4.828,0 -7.937,-2.534 -8.673,-7.032c-1.555,1.8 -7.119,7.442 -11.537,7.442c-4.418,-0 -6.709,-3.108 -6.709,-9.159c-0,-4.497 1.391,-9.567 2.781,-14.31c3.11,-10.139 7.2,-21.423 13.828,-28.047c0.409,-0.49 1.309,-0.817 2.127,-0.817c1.392,-0 1.718,2.207 1.718,3.597c0,2.453 -1.063,5.152 -1.881,7.278c-0.164,0.491 -0.327,0.981 -0.491,1.39c-2.7,6.951 -6.546,13.737 -10.228,20.198c-1.227,2.207 -2.536,4.496 -3.763,6.786c-0.41,0.491 -0.655,1.717 -0.655,3.026c-0,6.705 1.8,8.095 3.355,8.095c3.518,0 8.018,-4.825 10.145,-7.114c0.246,-0.327 0.492,-0.572 0.655,-0.736l0.491,-0.49c0.246,-6.869 4.5,-13.084 9.082,-13.084c1.555,0 2.373,0.818 2.373,2.453c-0,0.573 -0.164,1.145 -0.491,1.881c-0.982,2.535 -5.564,7.033 -7.527,8.34c0.082,5.479 2.209,8.341 6.136,8.341c3.519,-0 6.546,-3.107 8.591,-5.233l3.028,-3.026c0.818,-0.818 1.472,-0.818 2.29,-0.818Zm-37.146,-6.95c7.364,-12.02 11.536,-21.996 12.436,-29.682c-3.681,4.987 -5.973,11.039 -8.018,16.354c-1.391,3.679 -3.273,9.076 -4.418,13.328Zm20.701,-2.617c-0.737,0 -1.965,1.963 -2.618,3.353c-0.41,0.9 -0.9,2.371 -1.147,4.007c1.719,-1.553 4.665,-5.152 4.665,-6.624c-0,-0.49 -0.246,-0.736 -0.9,-0.736Z"/>
</svg>
