<svg width="100%" height="100%" viewBox="0 0 246 60" version="1.1" xmlns="http://www.w3.org/2000/svg" xmlns:xlink="http://www.w3.org/1999/xlink" xml:space="preserve" xmlns:serif="http://www.serif.com/" style="fill-rule:evenodd;clip-rule:evenodd;stroke-linejoin:round;stroke-miterlimit:2;">  
	<path d="M54.254,44.674l2.777,-0c2.527,-0 3.665,1.073 3.665,3.29l-0,0.914c-0,2.061 -0.629,3.703 -3.78,3.703l-1.352,0l0,6.784l-1.31,-0l0,-14.691Zm1.31,6.958l1.274,0c2.236,0 2.529,-1.157 2.529,-2.749l0,-0.834c0,-1.273 -0.37,-2.422 -2.419,-2.422l-1.384,-0l0,6.005Zm11.109,-6.958l1.311,-0l-0,6.291l4.232,-0l-0,-6.291l1.31,-0l0,14.691l-1.31,-0l-0,-7.409l-4.232,-0l-0,7.409l-1.311,-0l0,-14.691Zm20.152,3.407l-0,7.779c-0,2.419 -1.183,3.688 -3.591,3.688c-2.67,-0 -3.475,-1.508 -3.475,-3.679l-0,-7.772c-0,-2.275 1.144,-3.606 3.572,-3.606c2.591,-0 3.494,1.619 3.494,3.59Zm-5.726,0.033l0,7.785c0,1.949 0.863,2.665 2.202,2.665c1.396,-0 2.182,-0.709 2.182,-2.761l0,-7.675c0,-1.831 -0.8,-2.649 -2.205,-2.649c-1.491,-0 -2.179,0.789 -2.179,2.635Zm13.327,-2.446l-2.904,-0l0,-0.994l7.077,-0l0,0.994l-2.863,-0l-0,13.697l-1.31,0l-0,-13.697Zm15.964,2.413l0,7.779c0,2.419 -1.183,3.688 -3.59,3.688c-2.67,-0 -3.475,-1.508 -3.475,-3.679l-0,-7.772c-0,-2.275 1.143,-3.606 3.572,-3.606c2.59,-0 3.493,1.619 3.493,3.59Zm-5.725,0.033l0,7.785c0,1.949 0.862,2.665 2.202,2.665c1.396,-0 2.182,-0.709 2.182,-2.761l0,-7.675c0,-1.831 -0.8,-2.649 -2.205,-2.649c-1.492,-0 -2.179,0.789 -2.179,2.635Zm18.48,11.251l-1.069,0c-0.036,-0.228 -0.089,-1.043 -0.092,-1.389c-0.418,1.17 -1.415,1.572 -2.587,1.572c-2.357,-0 -3.144,-1.453 -3.144,-3.706l-0,-7.661c-0,-2.414 1.211,-3.69 3.524,-3.69c2.671,-0 3.354,1.493 3.354,3.56l0,0.304l-1.309,-0l0,-0.287c0,-1.204 -0.156,-2.588 -2.067,-2.588c-1.407,-0 -2.162,0.696 -2.162,2.708l-0,7.61c-0,1.636 0.49,2.774 2.005,2.774c1.943,0 2.215,-1.536 2.215,-3.664l-0,-2.477l-2.273,0l0,-0.967l3.605,-0l-0,7.901Zm7.734,-7.059l0,7.059l-1.311,0l0,-14.691l2.639,-0c2.658,-0 3.782,0.991 3.782,3.271l-0,0.75c-0,1.814 -0.665,2.8 -1.818,3.111c1.194,0.308 1.675,1.068 1.675,3.014c0,1.268 -0.026,3.59 0.183,4.545l-1.293,0c-0.218,-0.935 -0.187,-3.443 -0.187,-4.446c-0,-1.982 -0.357,-2.613 -2.244,-2.613l-1.426,-0Zm0,-0.953l1.534,-0c1.862,-0 2.243,-1.054 2.243,-2.605l0,-0.757c0,-1.484 -0.556,-2.364 -2.499,-2.364l-1.278,-0l0,5.726Zm12.801,2.8l-1.01,5.212l-1.318,0l2.971,-14.691l1.887,-0l3.1,14.691l-1.375,0l-1.066,-5.212l-3.189,-0Zm2.998,-0.992c-0.774,-3.746 -1.26,-6.335 -1.407,-7.537l-0.062,0c-0.057,1.084 -0.766,4.499 -1.334,7.537l2.803,-0Zm8.172,-8.487l2.776,-0c2.527,-0 3.664,1.073 3.664,3.29l0,0.914c0,2.061 -0.628,3.703 -3.779,3.703l-1.352,0l0,6.784l-1.309,-0l0,-14.691Zm1.309,6.958l1.273,0c2.238,0 2.53,-1.157 2.53,-2.749l0,-0.834c0,-1.273 -0.37,-2.422 -2.42,-2.422l-1.383,-0l0,6.005Zm11.11,-6.958l1.31,-0l-0,6.291l4.233,-0l0,-6.291l1.31,-0l0,14.691l-1.31,-0l0,-7.409l-4.233,-0l-0,7.409l-1.31,-0l-0,-14.691Zm15.376,14.691l0,-5.678c0,-0.141 -0.027,-0.235 -0.061,-0.325l-3.249,-8.688l1.428,-0c1.004,2.844 2.245,6.311 2.558,7.484l0.026,0c0.33,-1.198 1.612,-4.809 2.541,-7.484l1.384,-0l-3.261,8.724c-0.027,0.091 -0.055,0.19 -0.055,0.353l0,5.614l-1.311,0Z"/>
	<path d="M3.99,22.116l-0,13.427l-3.889,0l0,-29.479l5.721,0c4.389,0 6.8,1.845 6.8,6.969l-0,1.217c-0,4.309 -1.642,5.667 -2.952,6.174c1.753,0.76 2.674,2.07 2.674,6.046c-0,2.498 -0.043,7.255 0.274,9.073l-3.768,0c-0.377,-1.805 -0.304,-6.694 -0.304,-8.804c0,-3.688 -0.486,-4.623 -3.199,-4.623l-1.357,-0Zm-0,-3.295l1.392,-0c2.53,-0 3.337,-1.207 3.337,-4.389l0,-1.138c0,-2.453 -0.572,-3.935 -3.262,-3.935l-1.467,0l-0,9.462Zm12.086,16.723l0,-29.479l3.889,-0l-0,29.479l-3.889,-0Zm19.969,-8.665l-0,1.086c-0,3.53 -0.599,7.993 -6.358,7.993c-5.224,0 -6.245,-3.499 -6.245,-7.926l0,-14.919c0,-4.621 2.015,-7.464 6.305,-7.464c5.199,-0 6.168,3.602 6.168,7.591l-0,1.25l-3.915,0l-0,-1.656c-0,-2.117 -0.414,-3.581 -2.278,-3.581c-1.801,-0 -2.317,1.357 -2.317,3.62l-0,15.469c-0,2.358 0.485,4.043 2.386,4.043c1.887,0 2.308,-1.592 2.308,-4.03l0,-1.476l3.946,0Zm2.777,-20.815l3.889,-0l-0,11.882l5.329,0l0,-11.882l3.89,-0l-0,29.479l-3.89,0l0,-13.961l-5.329,0l-0,13.961l-3.889,0l-0,-29.479Zm17.173,29.48l0,-29.479l3.889,-0l0,29.479l-3.889,-0Zm18.288,-13.808l-6.43,0l0,10.172l7.363,0l-0.503,3.635l-10.749,-0l-0,-29.479l10.68,-0l-0,3.666l-6.791,0l0,8.372l6.43,-0l0,3.634Zm84.669,13.807l-3.051,0c-0.104,-0.503 -0.191,-1.711 -0.222,-2.356c-0.773,2.056 -2.44,2.771 -4.321,2.771c-4.159,-0 -5.509,-3.085 -5.509,-7.962l0,-14.225c0,-4.823 1.874,-8.122 6.597,-8.122c5.655,0 6.414,4.164 6.414,7.574l-0,0.869l-3.89,0l0,-1.028c0,-1.77 -0.229,-3.811 -2.538,-3.811c-1.791,0 -2.621,1.21 -2.621,3.982l0,15.129c0,2.588 0.703,4.083 2.531,4.083c2.243,0 2.706,-2.006 2.706,-5.345l0,-4.47l-2.824,-0l0,-3.418l6.728,-0l-0,16.329Zm7.656,-13.427l-0,13.427l-3.889,0l-0,-29.479l5.721,0c4.388,0 6.8,1.844 6.8,6.969l-0,1.217c-0,4.309 -1.642,5.667 -2.953,6.174c1.754,0.76 2.675,2.07 2.675,6.046c-0,2.498 -0.044,7.255 0.274,9.073l-3.768,0c-0.378,-1.805 -0.305,-6.694 -0.305,-8.804c0,-3.688 -0.485,-4.623 -3.198,-4.623l-1.357,-0Zm-0,-3.295l1.392,-0c2.53,-0 3.337,-1.207 3.337,-4.389l-0,-1.138c-0,-2.453 -0.573,-3.935 -3.262,-3.935l-1.467,0l-0,9.462Zm15.791,8.195l-1.17,8.527l-3.95,0l4.709,-29.479l5.51,0l4.897,29.479l-4.066,0l-1.29,-8.527l-4.64,0Zm4.167,-3.634c-0.811,-5.632 -1.483,-10.495 -1.792,-13.598l-0.149,-0c-0.116,2.366 -1.058,8.812 -1.722,13.598l3.663,0Zm8.09,-17.318l3.889,-0l-0,11.883l5.33,-0l0,-11.883l3.89,-0l-0,29.479l-3.89,0l0,-13.961l-5.33,0l-0,13.961l-3.889,0l0,-29.479Zm20.619,20.952l-1.17,8.527l-3.951,0l4.71,-29.479l5.51,0l4.897,29.479l-4.066,0l-1.29,-8.527l-4.64,0Zm4.167,-3.634c-0.811,-5.632 -1.484,-10.495 -1.792,-13.598l-0.149,-0c-0.117,2.366 -1.058,8.812 -1.722,13.598l3.663,0Zm22.737,0.634c0,-5.176 0.069,-11.24 0.155,-14.526l-0.043,0c-0.69,5.045 -2.551,17.422 -3.931,26.053l-3.715,0c-1.037,-7.626 -2.937,-20.747 -3.614,-26.083l-0.088,0c0.088,3.43 0.232,10.106 0.232,15.168l-0,10.915l-3.556,0l0,-29.479l5.783,0c1.324,8.007 2.799,17.419 3.189,21.391l0.044,-0c0.464,-3.968 2.309,-13.847 3.649,-21.391l5.615,0l-0,29.479l-3.72,0l0,-11.527Z"/>
	<path d="M118.637,35.543l-35.936,-0c-0.085,-0 -0.134,-0.097 -0.083,-0.165l10.238,-13.705c0.05,-0.067 0.002,-0.164 -0.083,-0.164l-4.716,0c-0.087,0 -0.134,-0.101 -0.079,-0.168l15.854,-19.1c0.042,-0.05 0.119,-0.05 0.159,0l17.726,21.588c0.019,0.024 0.048,0.037 0.079,0.037l6.49,0c0.088,0 0.135,-0.102 0.078,-0.169l-7.307,-8.592c-0.057,-0.066 -0.009,-0.17 0.079,-0.17l5.585,0c0.087,0 0.134,-0.101 0.079,-0.168l-6.563,-7.971c-0.04,-0.05 -0.116,-0.05 -0.157,-0.002l-4.35,5.065c-0.042,0.048 -0.116,0.048 -0.157,-0l-2.539,-2.956c-0.033,-0.039 -0.033,-0.095 -0,-0.134l7.111,-8.281c0.041,-0.049 0.116,-0.048 0.157,0.002l15.095,18.335c0.056,0.067 0.008,0.168 -0.079,0.168l-5.392,0c-0.087,0 -0.135,0.104 -0.078,0.17l7.307,8.592c0.057,0.067 0.009,0.169 -0.078,0.169l-17.201,-0c-0.032,-0 -0.061,-0.013 -0.08,-0.037l-15.824,-19.269c-0.041,-0.049 -0.118,-0.05 -0.159,-0l-7.193,8.665c-0.055,0.067 -0.007,0.168 0.079,0.168l4.17,0c0.085,0 0.134,0.097 0.083,0.164l-10.238,13.705c-0.05,0.068 -0.002,0.165 0.083,0.165l19.358,-0c0.086,-0 0.134,-0.1 0.08,-0.167l-2.423,-3.007c-0.02,-0.024 -0.049,-0.039 -0.081,-0.039l-9.444,0c-0.086,0 -0.134,-0.098 -0.081,-0.166l7.181,-9.07c0.04,-0.052 0.119,-0.052 0.161,-0.001l13.17,16.341c0.054,0.067 0.006,0.167 -0.081,0.167"/>
</svg>
