<?xml version="1.0" encoding="UTF-8" standalone="no"?>
<!DOCTYPE svg PUBLIC "-//W3C//DTD SVG 1.1//EN" "http://www.w3.org/Graphics/SVG/1.1/DTD/svg11.dtd">
<svg width="100%" height="100%" viewBox="0 0 1026 186" version="1.1" xmlns="http://www.w3.org/2000/svg" xmlns:xlink="http://www.w3.org/1999/xlink" xml:space="preserve" xmlns:serif="http://www.serif.com/" style="fill-rule:evenodd;clip-rule:evenodd;stroke-linejoin:round;stroke-miterlimit:2;">
    <path d="M18.203,103.213c13.083,8.995 57.062,23.527 58.412,33.786c0.257,1.916 -0.237,3.858 -2.687,4.846c-2.357,0.948 -4.82,1.521 -7.381,1.785c-0.928,0.092 -1.883,0.013 -2.864,0.013c1.027,-0.863 2.179,-1.976 2.285,-3.661c0.085,-1.311 0.118,-2.634 -0.415,-3.879c-0.626,-1.455 -1.686,-2.574 -3.444,-3.101c-4.458,-1.337 -8.87,-2.838 -13.492,-3.707c-1.488,-0.283 -2.976,-0.672 -4.563,-0.165c-5.88,1.166 -9.502,10.911 -9.62,12.834c-0.178,2.89 0.948,5.182 3.674,7.085c1.751,1.211 9.449,5.458 21.242,6.505c3.47,0.033 6.92,-0.283 10.285,-1.093c6.822,-1.527 17.759,-8.231 18.042,-17.956c0.079,-17.16 -16.705,-22.144 -45.855,-34.885c-29.677,-12.972 -27.01,-24.903 -26.635,-28.946c2.522,-27.136 45.111,-31.06 55.041,-29.75c39.112,4.491 38.151,29.565 38.197,32.95c0.02,1.001 -0.5,1.771 -1.685,2.239c-1.752,0.691 -2.812,1.889 -2.911,3.628c-0.006,0.098 -0.079,0.191 -0.158,0.382c-1.218,-0.093 -2.436,0.105 -3.477,0.691c-0.981,0.553 -1.916,1.198 -2.752,1.91c-2.068,1.751 -2.713,3.792 -1.449,6.163c0.698,1.31 1.35,2.647 2.048,3.957c0.218,0.415 0.264,0.77 0.013,1.198c-3.476,4.465 -4.714,28.907 -1.461,39.047c0.724,2.476 3.812,3.51 6.176,2.654c2.318,-0.836 4.214,-2.16 5.584,-3.984c0.704,-0.941 0.987,-1.955 0.606,-3.127c-2.213,-6.144 -1.535,-19.873 -1.502,-21.177c0.376,0.422 0.58,0.626 0.751,0.843c0.955,1.185 1.877,2.39 2.851,3.569c24.08,28.202 46.369,36.248 50.175,37.368c3.977,1.172 7.599,0.645 10.911,-1.64c2.739,-1.883 4.773,-4.234 6.466,-6.841c3.371,-4.846 17.403,-40.41 -3.405,-95.859c-0.862,-1.745 -2.6,-2.535 -4.74,-2.239c-2.226,0.31 -3.852,1.436 -5.255,2.878c-1.567,1.613 -2.074,3.338 -1.152,5.399c2.252,4.056 18.68,57.095 4.128,87.595c-0.158,0.329 -0.783,0.869 -1.244,0.678c-9.344,-3.964 -19.978,-7.513 -41.121,-29.354c-13.479,-13.92 -16.791,-23.494 -18.016,-25.68c10.424,1.324 11.76,-12.59 12.03,-16.02c0.323,-4.175 0.395,-40.588 -58.675,-39.692c-17.924,-0.02 -33.615,9.211 -41.174,15.302c-3.068,2.476 -16.284,14.473 -17.805,27.254c-1.402,11.8 5.419,22.915 16.021,30.197Z" style="fill:#2c2925;"/>
    <path d="M259.312,135.647c22.745,0 33.525,-11.372 33.525,-24.64c0,-30.446 -49.163,-18.955 -49.163,-36.606c0,-6.279 5.213,-11.254 18.007,-11.254c7.226,-0 15.4,2.132 22.864,6.515l4.857,-11.964c-7.227,-4.739 -17.652,-7.345 -27.603,-7.345c-22.745,-0 -33.407,11.372 -33.407,24.759c0,30.801 49.282,19.073 49.282,36.961c-0,6.16 -5.45,10.78 -18.362,10.78c-10.188,0 -20.732,-3.791 -27.366,-9.122l-5.331,11.965c6.871,5.923 19.784,9.951 32.697,9.951Z" style="fill-rule:nonzero;"/>
    <path d="M365.93,134.463l18.006,-0l-36.961,-45.846l34.829,-37.08l-17.296,0l-40.989,42.529l0,-42.529l-15.4,0l0,82.926l15.4,-0l0,-21.206l13.15,-13.505l29.261,34.711Z" style="fill-rule:nonzero;"/>
    <rect x="394.48" y="51.537" width="15.4" height="82.925" style="fill-rule:nonzero;"/>
    <path d="M490.673,51.537l-0,56.153l-45.727,-56.153l-12.676,0l-0,82.926l15.282,-0l-0,-56.153l45.727,56.153l12.676,-0l-0,-82.926l-15.282,0Z" style="fill-rule:nonzero;"/>
    <path d="M619.325,51.537l0,56.153l-45.727,-56.153l-12.676,0l0,82.926l15.282,-0l0,-56.153l45.727,56.153l12.676,-0l0,-82.926l-15.282,0Z" style="fill-rule:nonzero;"/>
    <path d="M718.954,134.463l16.111,-0l-37.435,-82.926l-15.163,0l-37.316,82.926l15.874,-0l8.174,-19.192l41.462,0l8.293,19.192Zm-44.543,-31.275l15.519,-36.25l15.637,36.25l-31.156,-0Z" style="fill-rule:nonzero;"/>
    <path d="M758.284,134.463l15.401,-0l-0,-69.894l27.483,-0l0,-13.032l-70.368,0l0,13.032l27.484,-0l0,69.894Z" style="fill-rule:nonzero;"/>
    <rect x="812.778" y="51.537" width="15.4" height="82.925" style="fill-rule:nonzero;"/>
    <path d="M889.306,135.647c25.707,0 44.661,-18.006 44.661,-42.647c-0,-24.641 -18.954,-42.647 -44.661,-42.647c-25.707,-0 -44.661,18.125 -44.661,42.647c-0,24.522 18.954,42.647 44.661,42.647Zm-0,-13.505c-16.704,0 -29.142,-12.202 -29.142,-29.142c-0,-16.94 12.438,-29.142 29.142,-29.142c16.703,-0 29.142,12.202 29.142,29.142c0,16.94 -12.439,29.142 -29.142,29.142Z" style="fill-rule:nonzero;"/>
    <path d="M1008.72,51.537l0,56.153l-45.727,-56.153l-12.676,0l0,82.926l15.282,-0l-0,-56.153l45.727,56.153l12.676,-0l-0,-82.926l-15.282,0Z" style="fill-rule:nonzero;"/>
</svg>
