<svg width="100%" height="100%" viewBox="0 0 470 92" version="1.1" xmlns="http://www.w3.org/2000/svg" xmlns:xlink="http://www.w3.org/1999/xlink" xml:space="preserve" xmlns:serif="http://www.serif.com/" style="fill-rule:evenodd;clip-rule:evenodd;stroke-linejoin:round;stroke-miterlimit:2;">
	<path d="M111.081,43.658c4.027,-5.148 9.787,-11.682 12.152,-13.568c0.01,-0.008 0.02,-0.016 0.031,-0.024c0.982,-0.756 2.618,-1.528 4.18,-1.663c1.385,-0.12 2.704,0.226 3.724,1.142c0.934,0.839 1.726,2.256 1.726,4.656c-0,4.892 -0.302,8.706 -0.139,11.807c0.134,2.536 0.561,4.518 2.077,6.207c1.613,1.664 5.588,4.573 15.236,2.828c0.005,-0.001 0.01,-0.001 0.015,-0.002c5.082,-0.885 16.737,-4.604 23.175,-13.78c0.005,-0.008 0.011,-0.016 0.016,-0.023c1.147,-1.59 5.04,-8.042 6.797,-10.679c0.45,-0.675 0.803,-1.146 0.984,-1.341c0.127,-0.138 0.25,-0.246 0.337,-0.312c0.331,-0.269 0.748,-0.472 1.276,-0.548c0.545,-0.079 1.57,0.098 2.779,0.541c2.207,0.733 2.897,2.174 2.527,3.624l-0.001,0.002c-0.088,0.346 -0.259,0.734 -0.565,1.255c-0.63,1.074 -2.084,3.384 -3.997,10.965c-0.505,2.043 -0.672,6.457 0.642,9.751c0.671,1.683 1.753,3.095 3.689,3.221c0.014,0.001 0.028,0.002 0.042,0.003c0.498,0.042 1.086,-0.182 1.747,-0.529c0.946,-0.497 1.964,-1.277 2.992,-2.31c3.396,-3.415 6.774,-9.467 7.985,-17.826c0.011,-0.079 0.027,-0.157 0.046,-0.234c0.186,-0.727 0.655,-1.386 1.521,-1.802c0.653,-0.314 1.805,-0.486 3.066,-0.348c0.039,0.004 0.078,0.009 0.117,0.015c0.638,0.104 1.389,0.208 1.9,0.45c1.047,0.495 1.672,1.313 1.672,2.594c-0,0.622 -0.237,1.989 -0.492,4.225c-0.244,2.998 -0.38,6.517 1.496,9.008c1.169,1.551 3.161,2.577 6.321,2.877c3.456,0.302 7.626,-0.767 11.817,-2.392c6.636,-2.573 13.295,-6.599 17.431,-9.55l0.002,-0.002c8.092,-5.761 12.4,-9.339 17.06,-11.5c0.01,-0.004 0.02,-0.009 0.029,-0.013c5.003,-2.233 8.08,-1.891 10.085,-0.955c0.478,0.224 0.902,0.489 1.282,0.778c7.116,-19.419 12.047,-22.371 13.86,-24.009c0.541,-0.486 2.377,-1.578 4.323,-2.108c1.546,-0.42 3.132,-0.451 4.286,0.028c0.533,0.208 2.161,0.844 3.042,2.866c0.664,1.521 0.99,4.151 -0.981,8.603c-0.002,0.004 -0.003,0.007 -0.005,0.011c-4.912,10.941 -11.495,16.395 -19.806,25.244c-0.057,0.136 -0.754,1.79 -0.938,3.184c-0.324,2.449 -0.028,5.656 2.85,7.529c2.365,1.539 6.194,2.17 12.173,1.356c11.657,-1.597 24.434,-10.703 33.641,-17.892c4.235,-3.317 10.96,-6.238 17.329,-7.058c4.41,-0.568 8.645,-0.112 11.89,1.704c1.904,-2.332 3.872,-3.225 5.523,-3.388c2.875,-0.282 5.156,1.549 5.977,3.801c0.589,1.615 0.435,3.418 -0.633,4.87c-5.269,7.178 -10.105,11.355 -11.992,13.764c-0.43,1.755 -0.824,3.374 -1.291,5.273c8.423,-1.996 28.438,-6.747 34.079,-8.087c1.292,-7.596 6.281,-14.5 9.764,-16.571c0.01,-0.006 0.02,-0.012 0.03,-0.017c4.648,-2.666 8.797,-1.6 11.04,0.752c0.01,0.01 0.02,0.021 0.029,0.031c1.464,1.596 3.42,6.561 -0.79,11.337c-2.81,3.314 -9.722,7.314 -13.149,9.513c0.572,3.02 2.573,4.666 5.047,5.549c3.271,1.167 7.267,1.152 10.484,0.989c17.966,-0.926 35.098,-7.9 48.704,-13.808c1.301,-0.603 2.137,-1.013 2.722,-1.165c0.824,-0.213 1.476,-0.136 2.046,0.096c0.542,0.22 1.064,0.604 1.526,1.326l0.002,0.003c0.697,1.094 0.725,2.109 0.44,2.94c-0.319,0.931 -1.199,1.927 -2.964,2.309c-20.576,9.504 -40.18,14.799 -55.281,14.56c-0.005,0 -0.009,-0 -0.014,-0c-8.965,-0.196 -13.693,-2.943 -16.269,-5.759c-1.612,-1.762 -2.428,-3.605 -2.858,-5.076c-6.478,1.484 -24.106,5.506 -32.642,7.719c-1.276,0.331 -2.504,0.688 -3.296,0.925c-0.412,2.65 -1.07,8.561 -3.539,14.063c-2.128,4.744 -5.55,9.161 -11.031,11.373c-5.545,2.253 -12.14,1.438 -15.872,-2.3c-2.561,-2.564 -3.95,-6.507 -2.663,-11.949c0.002,-0.01 0.005,-0.021 0.007,-0.031c1.788,-7.118 6.828,-12.942 26.252,-16.876c0.098,-0.447 0.186,-0.857 0.266,-1.235c-6.43,2.928 -13.633,3.482 -15.903,3.381c-0.018,-0.001 -0.035,-0.002 -0.053,-0.003c-4.434,-0.302 -6.786,-1.883 -8.047,-3.708c-1.043,-1.511 -1.341,-3.321 -1.291,-5.051c-7.112,4.119 -20.353,10.361 -28.577,10.877c-0.007,0 -0.013,0.001 -0.02,0.001c-4.337,0.232 -10.27,-0.381 -14.501,-2.779c-1.52,-0.862 -2.834,-1.939 -3.837,-3.261c-0.395,0.671 -0.844,1.367 -1.347,2.053c-6.326,8.876 -13.666,8.499 -16.964,7.96c-0.011,-0.002 -0.021,-0.004 -0.031,-0.005c-3.438,-0.611 -7.912,-3.817 -7.132,-11.157c0.001,-0.007 0.002,-0.014 0.002,-0.021c0.188,-1.617 0.548,-3.163 1.058,-4.634c-11.691,7.528 -20.079,10.314 -24.691,11.423c-1.58,0.411 -4.835,1.045 -8.317,0.823c-4.733,-0.301 -9.816,-2.103 -12.225,-7.639c-2.426,4.175 -5.467,7.225 -8.299,9.138c-2.616,1.767 -5.116,2.572 -6.928,2.572c-6.369,0 -9.279,-3.847 -10.686,-7.978c-0.809,-2.377 -1.072,-4.839 -1.278,-6.455c-0.012,-0.095 -0.018,-0.19 -0.018,-0.286c-0,-0.044 -0.017,-0.516 -0.038,-1.103c-8.813,9.763 -24.974,13.334 -28.738,13.467c-7.638,0.362 -12.473,-1.432 -15.564,-3.745c-4.99,-3.734 -5.674,-8.978 -5.76,-10.49c-0.191,-3.265 -0.233,-7.619 -0.184,-10.965c-3.41,3.574 -8.332,9.74 -10.781,12.999c-1.215,1.706 -2.684,4.393 -4,5.863c-1.091,1.22 -2.281,1.753 -3.215,1.753c-2.127,0 -3.812,-1.371 -3.812,-5.073c-0,-0.694 0.845,-10.059 0.256,-15.148c-0.156,-1.316 -0.271,-1.991 -0.989,-2.01c-0.374,0.028 -0.754,0.382 -1.24,0.777c-0.884,0.718 -1.838,1.742 -2.826,2.957c-4.914,6.04 -10.524,16.639 -11.415,20.824c-0.179,0.878 -0.292,1.695 -0.547,2.279c-0.408,0.935 -1.052,1.568 -2.037,1.87c-0.031,0.01 -0.062,0.019 -0.094,0.028c-0.512,0.145 -1.518,0.28 -2.102,0.24c-0.46,-0.032 -0.819,-0.153 -1.051,-0.266l-0.007,-0.003c-1.001,-0.492 -1.497,-1.746 -1.497,-2.726c-0,-0.095 0.006,-0.19 0.018,-0.284l0.105,-0.899c0.003,-0.046 0.007,-0.093 0.012,-0.139c1.238,-10.508 0.35,-17.544 -1.152,-21.683c-0.434,-1.195 -0.908,-2.118 -1.396,-2.774c-0.249,-0.336 -0.435,-0.606 -0.658,-0.685c-1.016,-0.362 -3.299,-0.074 -6.259,0.358c-6.986,1.017 -17.172,3.406 -24.723,5.038c1.067,2.315 1.074,4.883 0.266,7.46c-1.364,4.352 -5.204,8.756 -9.626,11.513c-7.395,4.695 -16.93,5.907 -22.568,4.053c-2.304,-0.758 -4.027,-2.024 -5.002,-3.639c-1.038,-1.721 -1.33,-3.889 -0.371,-6.504c0.002,-0.006 0.004,-0.011 0.006,-0.017c1.703,-4.531 6.367,-8.356 11.473,-11.187c2.426,-1.345 4.933,-2.475 7.19,-3.383c-3.011,-0.588 -6.077,-1.17 -9.109,-1.85c-10.304,-2.213 -13.756,-5.836 -13.903,-11.778c-0.269,-7.731 5.235,-14.272 14.932,-16.039c8.114,-1.56 17.157,0.273 23.541,9.649c0.021,0.03 0.04,0.061 0.059,0.092c0.607,0.99 0.592,1.931 0.261,2.7c-0.308,0.713 -1.117,1.708 -3.18,1.892c-0.067,0.006 -0.134,0.009 -0.2,0.009c-1.595,0 -3.401,-1.139 -4.082,-2.252c-0.013,-0.021 -0.026,-0.042 -0.038,-0.064c-0.378,-0.666 -1.442,-1.618 -2.867,-2.563c-2.365,-1.568 -5.743,-3.018 -9.32,-2.772l-0.006,0.001c-8.877,0.585 -11.618,5.341 -11.717,8.759l-0.001,0.004c-0.048,1.553 0.586,2.81 2.748,3.929c2.022,1.046 5.071,1.932 9.569,2.725c4.013,0.693 11.55,1.881 15.579,3.753c2.804,-0.582 13.813,-3.287 19.639,-4.449c0.011,-0.002 0.021,-0.004 0.032,-0.006c4.558,-0.842 11.525,-2.027 16.263,-2.132c2.492,-0.056 4.466,0.263 5.519,0.835c2.014,1.068 3.637,2.99 4.568,6.026c0.01,0.034 0.02,0.069 0.029,0.104c0.119,0.469 0.359,1.171 0.598,2.106c0.57,2.162 0.978,4.209 1.27,6.014c0.873,-1.474 1.703,-2.866 2.203,-3.682c0.008,-0.013 0.017,-0.027 0.025,-0.04c1.701,-2.648 4.087,-6.401 7.03,-8.704c2.376,-1.859 5.098,-2.828 8.093,-2.156c0.058,0.013 0.115,0.028 0.172,0.046c1.609,0.497 2.937,1.287 3.933,2.594c0.916,1.202 1.577,2.896 1.733,5.415c0.109,1.758 0.051,4.401 -0.06,6.89Zm236.619,1.017c1.031,-3.306 2.31,-6.139 3.554,-8.451c-0.073,-0.027 -0.145,-0.057 -0.216,-0.089c-0.004,-0.002 -0.009,-0.004 -0.013,-0.006c-1.327,-0.609 -4.335,-0.909 -7.798,-0.452c-5.388,0.71 -11.888,3.359 -15.179,10.304c-0.607,1.302 -0.943,2.372 -1,3.256c-0.03,0.469 0.006,0.847 0.211,1.124c0.21,0.282 0.554,0.428 0.946,0.545c0.698,0.208 1.534,0.264 2.453,0.233c4.665,-0.159 11.145,-2.602 14.872,-4.828c0.946,-0.565 2.008,-1.493 2.17,-1.636Zm-55.009,-32.487c-0.557,0.433 -1.169,0.945 -1.76,1.514c-3.717,3.641 -6.506,9.078 -8.383,13.664c2.949,-3.286 6.434,-7.802 9.39,-13.385c0.284,-0.544 0.538,-1.181 0.753,-1.793Zm-25.041,37.966c2.378,-3.714 3.668,-7.48 3.594,-10.348c-0.034,-1.279 -0.286,-2.353 -1.117,-2.887c-0.838,-0.537 -1.954,-0.183 -3.202,0.397c-2.84,1.319 -6.02,4.289 -8.647,7.953c-2.134,3.03 -3.354,5.909 -3.608,8.3c-0.179,1.691 0.089,3.091 1.184,3.793c0.895,0.574 2.147,0.407 3.509,-0.072c2.813,-0.989 5.931,-3.524 8.287,-7.136Zm135.14,-15.615c-0.56,-0.315 -1.077,-0.178 -1.567,0.13c-0.715,0.451 -1.389,1.139 -2.06,1.874c-0.006,0.006 -0.011,0.012 -0.017,0.018c-1.274,1.365 -2.281,3.116 -3.047,4.79c1.875,-1.217 3.927,-2.669 5.55,-4.121c0.811,-0.726 1.2,-1.464 1.235,-2.12c0.011,-0.194 -0.063,-0.467 -0.094,-0.571Zm-59.374,29.411c-2.318,0.494 -5.546,1.195 -8.697,2.382c-4.68,1.764 -9.411,4.52 -9.462,9.885l0,0.01c-0.026,1.858 0.391,3.208 1.208,4.102c0.914,1 2.263,1.371 3.661,1.411c1.662,0.049 3.413,-0.384 4.864,-1.093c3.904,-1.939 5.801,-5.671 6.92,-9.38c0.775,-2.568 1.184,-5.152 1.506,-7.317Zm-303.875,-18.272c0.198,-0.844 0.234,-1.687 0.051,-2.402c-0.12,-0.471 -0.359,-0.884 -0.806,-1.018c-2.214,0.666 -6.793,2.205 -8.759,3.058c-3.999,1.816 -7.366,3.423 -9.903,5.154c-2.136,1.458 -3.652,2.947 -4.238,4.859c-0.003,0.01 -0.007,0.021 -0.01,0.031c-0.115,0.356 -0.21,0.829 0.037,1.236c0.372,0.614 1.253,0.929 2.753,1.096c1.115,0.123 2.493,0.106 4.189,-0.082c10.138,-1.151 15.828,-8.376 16.686,-11.932Z"/>
</svg>
