<svg width="100%" height="100%" viewBox="0 0 925 186" version="1.1" xmlns="http://www.w3.org/2000/svg" xmlns:xlink="http://www.w3.org/1999/xlink" xml:space="preserve" xmlns:serif="http://www.serif.com/" style="fill-rule:evenodd;clip-rule:evenodd;stroke-linejoin:round;stroke-miterlimit:2;">
	<path d="M256.648,89.04l-21.024,-0l-21.312,-64.8l19.2,-0l9.888,32.448c0.96,3.2 1.616,5.36 1.968,6.48c0.352,1.12 0.752,2.8 1.2,5.04c0.384,-1.792 0.784,-3.52 1.2,-5.184c0.416,-1.664 1.104,-4.096 2.064,-7.296l9.6,-31.488l18.24,-0l-21.024,64.8Zm65.856,-0l-3.36,-10.56l-19.968,-0l-3.264,10.56l-17.664,-0l21.12,-64.8l20.448,-0l22.176,64.8l-19.488,-0Zm-10.464,-32.736c-0.64,-1.984 -1.232,-3.92 -1.776,-5.808c-0.544,-1.888 -0.944,-3.696 -1.2,-5.424c-0.384,1.92 -0.832,3.776 -1.344,5.568c-0.512,1.792 -1.184,4.032 -2.016,6.72l-2.208,7.104l11.136,-0l-2.592,-8.16Zm66.528,32.736l-12.192,-23.616l-0.672,-0l0,23.616l-17.856,-0l0,-64.8c2.56,-0 6.528,-0.08 11.904,-0.24c5.376,-0.16 8.8,-0.24 10.272,-0.24c8.448,-0 14.848,1.616 19.2,4.848c4.352,3.232 6.528,8.368 6.528,15.408c0,3.968 -1.04,7.584 -3.12,10.848c-2.08,3.264 -4.976,5.568 -8.688,6.912l4.704,7.488l11.616,19.776l-21.696,-0Zm-9.504,-50.592l-3.36,0.192l0,13.92l2.976,0.192c2.56,-0 4.576,-0.64 6.048,-1.92c1.472,-1.28 2.208,-3.104 2.208,-5.472c0,-2.112 -0.624,-3.792 -1.872,-5.04c-1.248,-1.248 -3.248,-1.872 -6,-1.872Zm37.44,50.592l0,-64.8l37.92,-0l0,15.168l-20.064,-0l0,9.12l19.008,-0l0,14.592l-19.008,-0l0,10.464l20.064,-0l0,15.456l-37.92,-0Zm48.48,-0l0,-64.8l37.92,-0l0,15.168l-20.064,-0l0,9.12l19.008,-0l0,14.592l-19.008,-0l0,10.464l20.064,-0l0,15.456l-37.92,-0Zm-235.296,78l0,-64.8l17.856,-0l0,64.8l-17.856,-0Zm63.456,-0l-10.848,-22.176c-2.688,-5.44 -4.832,-10.304 -6.432,-14.592c0.32,3.2 0.48,6.624 0.48,10.272l0,26.496l-17.184,-0l0,-64.8l22.848,-0l9.408,19.296c1.024,2.112 2.4,4.992 4.128,8.64c1.728,3.648 2.976,6.368 3.744,8.16c-0.192,-1.664 -0.352,-3.872 -0.48,-6.624c-0.128,-2.752 -0.192,-5.024 -0.192,-6.816l0,-22.656l17.184,-0l0,64.8l-22.656,-0Zm62.688,-49.44l0,49.44l-17.856,-0l0,-49.44l-14.016,-0l0,-15.36l45.888,-0l0,15.36l-14.016,-0Zm22.176,49.44l0,-64.8l37.92,-0l0,15.168l-20.064,-0l0,9.12l19.008,-0l0,14.592l-19.008,-0l0,10.464l20.064,-0l0,15.456l-37.92,-0Zm79.2,-0l-12.192,-23.616l-0.672,-0l0,23.616l-17.856,-0l0,-64.8c2.56,-0 6.528,-0.08 11.904,-0.24c5.376,-0.16 8.8,-0.24 10.272,-0.24c8.448,-0 14.848,1.616 19.2,4.848c4.352,3.232 6.528,8.368 6.528,15.408c0,3.968 -1.04,7.584 -3.12,10.848c-2.08,3.264 -4.976,5.568 -8.688,6.912l4.704,7.488l11.616,19.776l-21.696,-0Zm-9.504,-50.592l-3.36,0.192l0,13.92l2.976,0.192c2.56,-0 4.576,-0.64 6.048,-1.92c1.472,-1.28 2.208,-3.104 2.208,-5.472c0,-2.112 -0.624,-3.792 -1.872,-5.04c-1.248,-1.248 -3.248,-1.872 -6,-1.872Zm71.424,50.592l-10.848,-22.176c-2.688,-5.44 -4.832,-10.304 -6.432,-14.592c0.32,3.2 0.48,6.624 0.48,10.272l0,26.496l-17.184,-0l0,-64.8l22.848,-0l9.408,19.296c1.024,2.112 2.4,4.992 4.128,8.64c1.728,3.648 2.976,6.368 3.744,8.16c-0.192,-1.664 -0.352,-3.872 -0.48,-6.624c-0.128,-2.752 -0.192,-5.024 -0.192,-6.816l0,-22.656l17.184,-0l0,64.8l-22.656,-0Zm72.864,-0l-3.36,-10.56l-19.968,-0l-3.264,10.56l-17.664,-0l21.12,-64.8l20.448,-0l22.176,64.8l-19.488,-0Zm-10.464,-32.736c-0.64,-1.984 -1.232,-3.92 -1.776,-5.808c-0.544,-1.888 -0.944,-3.696 -1.2,-5.424c-0.384,1.92 -0.832,3.776 -1.344,5.568c-0.512,1.792 -1.184,4.032 -2.016,6.72l-2.208,7.104l11.136,-0l-2.592,-8.16Zm64.224,-16.704l0,49.44l-17.856,-0l0,-49.44l-14.016,-0l0,-15.36l45.888,-0l0,15.36l-14.016,-0Zm22.176,49.44l0,-64.8l17.856,-0l0,64.8l-17.856,-0Zm57.216,1.344c-9.984,-0 -17.536,-2.848 -22.656,-8.544c-5.12,-5.696 -7.68,-13.792 -7.68,-24.288c0,-10.304 3.168,-18.656 9.504,-25.056c6.336,-6.4 14.144,-9.6 23.424,-9.6c9.088,-0 16.416,2.656 21.984,7.968c5.568,5.312 8.352,13.536 8.352,24.672c-0,10.368 -3.12,18.768 -9.36,25.2c-6.24,6.432 -14.096,9.648 -23.568,9.648Zm1.248,-51.168c-3.52,-0 -6.496,1.392 -8.928,4.176c-2.432,2.784 -3.648,7.056 -3.648,12.816c0,5.824 0.96,10.24 2.88,13.248c1.92,3.008 5.024,4.512 9.312,4.512c3.392,0 6.416,-1.376 9.072,-4.128c2.656,-2.752 3.984,-7.232 3.984,-13.44c0,-11.456 -4.224,-17.184 -12.672,-17.184Zm74.688,49.824l-10.848,-22.176c-2.688,-5.44 -4.832,-10.304 -6.432,-14.592c0.32,3.2 0.48,6.624 0.48,10.272l-0,26.496l-17.184,0l-0,-64.8l22.848,0l9.408,19.296c1.024,2.112 2.4,4.992 4.128,8.64c1.728,3.648 2.976,6.368 3.744,8.16c-0.192,-1.664 -0.352,-3.872 -0.48,-6.624c-0.128,-2.752 -0.192,-5.024 -0.192,-6.816l-0,-22.656l17.184,0l0,64.8l-22.656,0Zm72.864,0l-3.36,-10.56l-19.968,0l-3.264,10.56l-17.664,0l21.12,-64.8l20.448,0l22.176,64.8l-19.488,0Zm-10.464,-32.736c-0.64,-1.984 -1.232,-3.92 -1.776,-5.808c-0.544,-1.888 -0.944,-3.696 -1.2,-5.424c-0.384,1.92 -0.832,3.776 -1.344,5.568c-0.512,1.792 -1.184,4.032 -2.016,6.72l-2.208,7.104l11.136,0l-2.592,-8.16Zm35.808,32.736l-0,-64.8l17.856,-0l-0,48.864l17.856,-0l-0,15.936l-35.712,-0Z"/>
	<path d="M0.412,32.23c-0,-0 45.983,-0.667 74.735,-21.682c25.169,16.675 58.406,21.119 76.281,21.682c-0.002,22.7 9.506,108.553 -76.281,143.222c-84.327,-36.22 -74.957,-121.164 -74.735,-143.222Zm12.091,9.738c-0.186,18.523 -8.055,89.856 62.76,120.272c72.04,-29.114 64.055,-101.209 64.058,-120.272c-15.012,-0.472 -42.922,-4.204 -64.058,-18.208c-24.145,17.648 -62.76,18.208 -62.76,18.208Z"/>
</svg>
