<svg width="100%" height="100%" viewBox="0 0 48 48" version="1.1" xmlns="http://www.w3.org/2000/svg" xmlns:xlink="http://www.w3.org/1999/xlink" xml:space="preserve" xmlns:serif="http://www.serif.com/" style="fill-rule:evenodd;clip-rule:evenodd;stroke-linejoin:round;stroke-miterlimit:2;">
	<path d="M23.999,4c-10.922,0 -19.826,8.807 -19.984,19.693c-0.16,11.055 8.809,20.216 19.866,20.28c3.415,0.02 6.704,-0.816 9.624,-2.403c0.285,-0.154 0.329,-0.546 0.086,-0.761l-1.869,-1.658c-0.38,-0.337 -0.921,-0.432 -1.389,-0.233c-2.039,0.867 -4.254,1.31 -6.537,1.282c-8.934,-0.11 -16.152,-7.543 -16.01,-16.477c0.141,-8.821 7.36,-15.954 16.213,-15.954l16.216,0l0,28.824l-9.2,-8.175c-0.298,-0.264 -0.754,-0.212 -0.994,0.105c-1.477,1.955 -3.882,3.171 -6.554,2.987c-3.706,-0.256 -6.709,-3.24 -6.987,-6.944c-0.332,-4.42 3.17,-8.121 7.52,-8.121c3.934,-0 7.175,3.028 7.513,6.876c0.03,0.342 0.185,0.662 0.442,0.89l2.396,2.124c0.272,0.24 0.704,0.093 0.77,-0.264c0.173,-0.923 0.233,-1.887 0.165,-2.874c-0.386,-5.628 -4.944,-10.154 -10.573,-10.501c-6.455,-0.398 -11.851,4.651 -12.022,10.981c-0.167,6.167 4.886,11.485 11.055,11.621c2.575,0.056 4.962,-0.754 6.891,-2.157l12.021,10.657c0.516,0.456 1.329,0.091 1.329,-0.598l-0,-38.441c-0,-0.419 -0.34,-0.759 -0.759,-0.759l-19.229,0Z" style="fill:#4949b9;fill-rule:nonzero;"/>
</svg>
