<?xml version="1.0" encoding="UTF-8" standalone="no"?>
<!DOCTYPE svg PUBLIC "-//W3C//DTD SVG 1.1//EN" "http://www.w3.org/Graphics/SVG/1.1/DTD/svg11.dtd">
<svg width="100%" height="100%" viewBox="0 0 24 24" version="1.1" xmlns="http://www.w3.org/2000/svg" xmlns:xlink="http://www.w3.org/1999/xlink" xml:space="preserve" xmlns:serif="http://www.serif.com/" style="fill-rule:evenodd;clip-rule:evenodd;stroke-linejoin:round;stroke-miterlimit:2;">
    <path d="M21.842,1l-1.737,19.684l-8.105,2.316l-8.105,-2.316l-1.737,-19.684l19.684,0Zm-14.589,12.737l2.316,-0l0.056,1.447l2.375,0.81l2.375,-0.81l0.171,-2.605l-5.092,-0l-0.118,-2.316l5.328,0l0.172,-2.316l-7.988,0l-0.174,-2.315l10.595,-0l-0.289,4.631l-0.407,6.658l-4.573,1.506l-4.573,-1.506l-0.174,-3.184Z" style="fill:#0c79b8;"/>
    <path d="M7.253,13.737l2.316,-0l0.056,1.447l2.375,0.81l2.375,-0.81l0.171,-2.605l-5.092,-0l-0.118,-2.316l5.328,0l0.172,-2.316l-7.988,0l-0.174,-2.315l10.595,-0l-0.289,4.631l-0.407,6.658l-4.573,1.506l-4.573,-1.506l-0.174,-3.184Z" style="fill:#fff;"/>
</svg>
