<?xml version="1.0" encoding="UTF-8" standalone="no"?>
<!DOCTYPE svg PUBLIC "-//W3C//DTD SVG 1.1//EN" "http://www.w3.org/Graphics/SVG/1.1/DTD/svg11.dtd">
<svg width="100%" height="100%" viewBox="0 0 24 24" version="1.1" xmlns="http://www.w3.org/2000/svg" xmlns:xlink="http://www.w3.org/1999/xlink" xml:space="preserve" xmlns:serif="http://www.serif.com/" style="fill-rule:evenodd;clip-rule:evenodd;stroke-linejoin:round;stroke-miterlimit:2;">
    <path d="M21.696,1.155c-0.09,-0.099 -0.219,-0.155 -0.353,-0.155l-18.686,-0c-0.134,-0 -0.263,0.056 -0.353,0.155c-0.092,0.099 -0.136,0.232 -0.123,0.366l1.683,18.856c0.017,0.198 0.155,0.362 0.346,0.419l7.657,2.185c0.041,0.013 0.086,0.019 0.131,0.019c0.045,0 0.088,-0.006 0.131,-0.019l7.663,-2.185c0.191,-0.057 0.327,-0.221 0.346,-0.419l1.681,-18.856c0.013,-0.134 -0.031,-0.267 -0.123,-0.366Zm-4.03,6.501l-8.997,0l0.215,2.435l8.566,-0l-0.643,7.194l-4.811,1.454l-0.046,-0.015l-4.755,-1.441l-0.26,-2.931l2.33,0l0.101,1.138l2.658,0.557l2.61,-0.557l0.279,-3.079l-8.151,0l-0.634,-7.08l11.746,-0l-0.208,2.325Z" style="fill:#fc4909;fill-rule:nonzero;"/>
    <path d="M17.666,7.656l-8.997,0l0.215,2.435l8.566,-0l-0.643,7.194l-4.811,1.454l-0.046,-0.015l-4.755,-1.441l-0.26,-2.931l2.33,0l0.101,1.138l2.658,0.557l2.61,-0.557l0.279,-3.079l-8.151,0l-0.634,-7.08l11.746,-0l-0.208,2.325Z" style="fill:#fff;fill-rule:nonzero;"/>
</svg>
