<?xml version="1.0" encoding="UTF-8" standalone="no"?><!DOCTYPE svg PUBLIC "-//W3C//DTD SVG 1.1//EN" "http://www.w3.org/Graphics/SVG/1.1/DTD/svg11.dtd"><svg width="100%" height="100%" viewBox="0 0 24 24" version="1.1" xmlns="http://www.w3.org/2000/svg" xmlns:xlink="http://www.w3.org/1999/xlink" xml:space="preserve" xmlns:serif="http://www.serif.com/" style="fill-rule:evenodd;clip-rule:evenodd;stroke-linejoin:round;stroke-miterlimit:2;"><path d="M23,6.5c0,-3.036 -2.464,-5.5 -5.5,-5.5l-11,0c-3.036,0 -5.5,2.464 -5.5,5.5l0,11c0,3.036 2.464,5.5 5.5,5.5l11,0c3.036,0 5.5,-2.464 5.5,-5.5l0,-11Z" style="fill:#0df2c9;"/><path d="M4.526,12.015c0,0.464 0.613,0.797 0.803,0.812c0.877,0.058 1.257,0.594 1.257,1.725l-0,1.77c-0,1.813 0.292,2.625 2.645,2.625c0.409,0 0.76,-0.319 0.76,-0.725c0,-0.334 -0.234,-0.61 -0.526,-0.682l-0.497,-0.131c-0.541,-0.145 -0.643,-0.493 -0.643,-1.319l0,-1.784c0,-1.117 -0.19,-1.769 -1.067,-2.146l-0.234,-0.145l0.234,-0.16c0.877,-0.377 1.067,-1.015 1.067,-2.132l0,-1.798c0,-0.812 0.102,-1.204 0.658,-1.334l0.482,-0.116c0.307,-0.073 0.526,-0.348 0.526,-0.682c0,-0.406 -0.38,-0.74 -0.76,-0.74c-2.323,0 -2.645,0.798 -2.645,2.64l0,1.769c0,1.146 -0.38,1.653 -1.257,1.726c-0.438,0.029 -0.803,0.42 -0.803,0.827Z" style="fill:#fff;fill-rule:nonzero;"/><path d="M19.474,12.015c0,-0.436 -0.409,-0.755 -0.803,-0.827c-0.877,-0.058 -1.257,-0.595 -1.257,-1.726l0,-1.769c0,-1.799 -0.307,-2.64 -2.645,-2.64c-0.424,0 -0.76,0.334 -0.76,0.74c0,0.334 0.219,0.609 0.512,0.682l0.496,0.116c0.556,0.13 0.658,0.522 0.658,1.334l0,1.798c0,1.117 0.175,1.755 1.052,2.132l0.234,0.16l-0.234,0.145c-0.877,0.377 -1.052,1.029 -1.052,2.146l0,1.784c0,0.942 -0.146,1.334 -0.935,1.377c-0.409,0.029 -0.731,0.334 -0.731,0.755c0,0.391 0.38,0.725 0.76,0.725c2.323,0 2.645,-0.827 2.645,-2.625l0,-1.77c0,-1.116 0.38,-1.667 1.257,-1.725c0.365,-0.015 0.803,-0.319 0.803,-0.812Z" style="fill:#fff;fill-rule:nonzero;"/></svg>