<svg viewBox="0 0 24 24" xmlns="http://www.w3.org/2000/svg">
  <path d="M3.204,16.101c-0.224,-0.353 -0.227,-0.803 -0.009,-1.159l8.226,-13.419c0.458,-0.746 1.563,-0.681 1.929,0.114l7.515,16.302c0.279,0.605 -0.042,1.316 -0.68,1.508l-11.69,3.507c-0.47,0.141 -0.977,-0.048 -1.24,-0.463l-4.051,-6.39Z" style="fill:#fff;"/>
  <path d="M4.004,15.728c-0.204,-0.321 -0.207,-0.73 -0.008,-1.054l7.478,-12.199c0.416,-0.678 1.42,-0.619 1.753,0.104l6.832,14.82c0.254,0.55 -0.038,1.197 -0.618,1.371l-10.627,3.188c-0.428,0.128 -0.889,-0.044 -1.128,-0.421l-3.682,-5.809Zm8.333,-9.686c0.072,-0.359 0.564,-0.41 0.709,-0.074l4.712,10.904c0.089,0.205 -0.021,0.442 -0.236,0.506l-7.342,2.192c-0.27,0.081 -0.529,-0.155 -0.473,-0.431l2.63,-13.097Z" style="fill:#2d3748;"/>
  <path d="M12.337,6.042c0.072,-0.359 0.564,-0.41 0.709,-0.074l4.712,10.904c0.089,0.205 -0.021,0.442 -0.236,0.506l-7.342,2.192c-0.27,0.081 -0.529,-0.155 -0.473,-0.431l2.63,-13.097Z" style="fill:#fff;"/>
</svg>
