<svg width="100%" height="100%" viewBox="0 0 48 48" version="1.1" xmlns="http://www.w3.org/2000/svg" xmlns:xlink="http://www.w3.org/1999/xlink" xml:space="preserve" xmlns:serif="http://www.serif.com/" style="fill-rule:evenodd;clip-rule:evenodd;stroke-linejoin:round;stroke-miterlimit:2;"><rect id="Artboard1" x="0" y="0" width="48" height="48" style="fill:none;"/><g id="Artboard11" serif:id="Artboard1"><path d="M33.555,2.995c-0.78,-0.026 -1.596,0.11 -2.414,0.375c-1.637,0.531 -3.352,1.565 -5.112,2.996c-0.689,0.561 -1.385,1.203 -2.084,1.883c-0.683,-0.663 -1.364,-1.287 -2.039,-1.836c-1.758,-1.43 -3.469,-2.465 -5.101,-2.994c-1.633,-0.529 -3.258,-0.546 -4.592,0.225c-1.334,0.77 -2.132,2.184 -2.49,3.863c-0.358,1.679 -0.319,3.678 0.041,5.916c0.125,0.777 0.303,1.593 0.506,2.424c-0.763,0.231 -1.503,0.474 -2.19,0.742c-2.072,0.809 -3.787,1.777 -5.035,2.93c-1.249,1.152 -2.055,2.55 -2.055,4.085c0,1.536 0.806,2.932 2.055,4.084c1.248,1.153 2.963,2.123 5.035,2.932c0.734,0.287 1.529,0.545 2.35,0.789c-0.295,1.103 -0.535,2.173 -0.698,3.188c-0.359,2.24 -0.397,4.239 -0.039,5.922c0.359,1.682 1.157,3.104 2.498,3.878c1.341,0.775 2.973,0.756 4.61,0.225c1.636,-0.531 3.349,-1.563 5.109,-2.994c0.684,-0.556 1.375,-1.19 2.067,-1.863c0.695,0.677 1.389,1.314 2.076,1.873c1.758,1.43 3.47,2.462 5.103,2.992c1.633,0.529 3.258,0.546 4.592,-0.225c1.334,-0.77 2.13,-2.184 2.488,-3.863c0.358,-1.679 0.319,-3.676 -0.041,-5.914c-0.163,-1.017 -0.402,-2.091 -0.699,-3.197c0.848,-0.25 1.668,-0.516 2.424,-0.811c2.072,-0.809 3.787,-1.779 5.035,-2.932c1.249,-1.152 2.055,-2.548 2.055,-4.084c-0,-1.535 -0.806,-2.933 -2.055,-4.085c-1.248,-1.153 -2.963,-2.121 -5.035,-2.93c-0.697,-0.272 -1.448,-0.518 -2.223,-0.752c0.205,-0.836 0.386,-1.657 0.512,-2.44c0.36,-2.239 0.398,-4.241 0.039,-5.923c-0.359,-1.683 -1.159,-3.103 -2.5,-3.877c-0.67,-0.387 -1.414,-0.576 -2.193,-0.602Zm-0.092,2.035c0.489,0.014 0.907,0.13 1.264,0.336c0.714,0.412 1.241,1.215 1.523,2.535c0.282,1.321 0.272,3.105 -0.061,5.174c-0.113,0.709 -0.279,1.459 -0.466,2.229c-2.046,-0.493 -4.287,-0.858 -6.676,-1.073c-1.199,-1.661 -2.432,-3.174 -3.674,-4.517c0.657,-0.642 1.31,-1.242 1.947,-1.76c1.626,-1.322 3.165,-2.222 4.45,-2.639c0.642,-0.208 1.204,-0.298 1.693,-0.285Zm-18.977,0.006c0.492,-0.014 1.055,0.076 1.7,0.285c1.288,0.418 2.829,1.317 4.457,2.641c0.624,0.508 1.262,1.096 1.906,1.723c-1.252,1.353 -2.494,2.88 -3.701,4.556c-2.379,0.219 -4.611,0.586 -6.647,1.08c-0.186,-0.765 -0.351,-1.512 -0.465,-2.217c-0.332,-2.07 -0.341,-3.855 -0.058,-5.179c0.282,-1.325 0.814,-2.133 1.535,-2.549c0.36,-0.208 0.781,-0.326 1.273,-0.34Zm9.491,6.117c0.814,0.887 1.629,1.857 2.437,2.901c-0.794,-0.033 -1.598,-0.053 -2.414,-0.053c-0.833,-0 -1.652,0.02 -2.461,0.055c0.808,-1.045 1.623,-2.016 2.438,-2.903Zm0.023,4.867c1.36,0 2.685,0.056 3.975,0.151c0.887,1.274 1.754,2.626 2.58,4.057c0.726,1.257 1.382,2.512 1.98,3.751c-0.604,1.257 -1.272,2.529 -2.008,3.803c-0.647,1.122 -1.324,2.188 -2.011,3.215c-1.457,0.122 -2.966,0.19 -4.516,0.19c-1.588,-0 -3.131,-0.072 -4.619,-0.2c-0.676,-1.012 -1.341,-2.062 -1.979,-3.166c-0.734,-1.271 -1.398,-2.541 -2.002,-3.795c0.606,-1.26 1.274,-2.537 2.012,-3.816c0.822,-1.423 1.686,-2.767 2.568,-4.035c1.304,-0.097 2.644,-0.155 4.02,-0.155Zm6.549,0.401c1.648,0.206 3.196,0.491 4.637,0.834c-0.428,1.401 -0.954,2.865 -1.592,4.375c-0.414,-0.799 -0.843,-1.6 -1.307,-2.402c-0.562,-0.973 -1.147,-1.901 -1.738,-2.807Zm-13.205,0.016c-0.579,0.889 -1.149,1.798 -1.699,2.751c-0.47,0.814 -0.908,1.625 -1.327,2.434c-0.632,-1.501 -1.155,-2.956 -1.58,-4.35c1.43,-0.343 2.969,-0.627 4.606,-0.835Zm19.82,1.349c0.709,0.215 1.394,0.438 2.022,0.684c1.91,0.746 3.421,1.629 4.4,2.533c0.979,0.904 1.404,1.765 1.404,2.601c0,0.837 -0.425,1.698 -1.404,2.602c-0.979,0.904 -2.49,1.787 -4.4,2.533c-0.698,0.273 -1.465,0.52 -2.262,0.754c-0.569,-1.759 -1.295,-3.594 -2.158,-5.467c0.993,-2.15 1.795,-4.247 2.398,-6.24Zm-26.361,0.01c0.596,1.973 1.388,4.049 2.367,6.178c-0.87,1.884 -1.599,3.729 -2.17,5.498c-0.769,-0.228 -1.51,-0.469 -2.186,-0.733c-1.91,-0.746 -3.421,-1.629 -4.4,-2.533c-0.979,-0.904 -1.404,-1.765 -1.404,-2.602c-0,-0.836 0.425,-1.697 1.404,-2.601c0.979,-0.904 2.49,-1.787 4.4,-2.533c0.619,-0.242 1.292,-0.462 1.989,-0.674Zm13.197,1.215c-2.75,-0 -5,2.25 -5,5c-0,2.749 2.25,5 5,5c2.75,-0 5,-2.251 5,-5c-0,-2.75 -2.25,-5 -5,-5Zm-9.658,7.365c0.42,0.813 0.858,1.628 1.33,2.445c0.369,0.64 0.746,1.262 1.129,1.873c-1.343,-0.186 -2.62,-0.422 -3.819,-0.701c0.382,-1.167 0.838,-2.379 1.36,-3.617Zm19.277,-0c0.524,1.24 0.981,2.454 1.363,3.625c-1.202,0.279 -2.483,0.514 -3.83,0.699c0.388,-0.619 0.771,-1.249 1.145,-1.896c0.468,-0.812 0.904,-1.621 1.322,-2.428Zm-21.213,5.559c1.81,0.428 3.772,0.758 5.852,0.972c1.388,2.009 2.835,3.813 4.291,5.391c-0.651,0.635 -1.296,1.23 -1.928,1.744c-1.626,1.322 -3.167,2.22 -4.451,2.637c-1.284,0.416 -2.243,0.361 -2.957,-0.051c-0.714,-0.412 -1.24,-1.215 -1.522,-2.535c-0.281,-1.321 -0.273,-3.103 0.059,-5.172c0.151,-0.939 0.376,-1.944 0.656,-2.986Zm23.155,0.007c0.282,1.049 0.508,2.058 0.66,3.002c0.332,2.071 0.341,3.856 0.058,5.18c-0.282,1.324 -0.81,2.135 -1.531,2.551c-0.721,0.416 -1.688,0.47 -2.977,0.053c-1.288,-0.418 -2.829,-1.318 -4.457,-2.641c-0.636,-0.517 -1.285,-1.118 -1.941,-1.758c1.466,-1.584 2.922,-3.398 4.32,-5.418c2.086,-0.213 4.053,-0.54 5.868,-0.969Zm-14.694,1.17c1.027,0.056 2.067,0.094 3.133,0.094c1.031,0 2.037,-0.035 3.031,-0.088c-1.016,1.371 -2.052,2.618 -3.084,3.74c-1.031,-1.125 -2.065,-2.373 -3.08,-3.746Z" style="fill:#00d8ff;"/></g></svg>