<svg viewBox="0 0 48 48" xmlns="http://www.w3.org/2000/svg">
  <path d="M24,39.61c-3.496,2.421 -6.876,4.14 -9.797,5.027c-4.248,1.288 -7.675,0.782 -9.648,-1.192c-1.974,-1.973 -2.48,-5.4 -1.192,-9.648c0.887,-2.921 2.606,-6.301 5.027,-9.797c-2.421,-3.496 -4.14,-6.876 -5.027,-9.797c-1.288,-4.248 -0.782,-7.675 1.192,-9.648c1.973,-1.974 5.4,-2.48 9.648,-1.192c2.921,0.887 6.301,2.606 9.797,5.027c3.496,-2.421 6.876,-4.14 9.797,-5.027c4.248,-1.288 7.675,-0.782 9.648,1.192c1.974,1.973 2.48,5.4 1.192,9.648c-0.887,2.921 -2.606,6.301 -5.027,9.797c2.421,3.496 4.14,6.876 5.027,9.797c1.288,4.248 0.782,7.675 -1.192,9.648c-1.973,1.974 -5.4,2.48 -9.648,1.192c-2.921,-0.887 -6.301,-2.606 -9.797,-5.027Zm-13.078,-12.232c-1.761,2.7 -3.036,5.289 -3.731,7.581c-0.425,1.403 -0.629,2.673 -0.541,3.758c0.062,0.775 0.268,1.435 0.733,1.9c0.465,0.465 1.125,0.671 1.9,0.733c1.085,0.088 2.355,-0.116 3.758,-0.541c2.292,-0.695 4.881,-1.97 7.581,-3.731c-1.712,-1.383 -3.426,-2.92 -5.103,-4.597c-1.677,-1.677 -3.214,-3.391 -4.597,-5.103Zm9.7,-16.456c-2.7,-1.761 -5.289,-3.036 -7.581,-3.731c-1.403,-0.425 -2.673,-0.629 -3.758,-0.541c-0.775,0.062 -1.435,0.268 -1.9,0.733c-0.465,0.465 -0.671,1.125 -0.733,1.9c-0.088,1.085 0.116,2.355 0.541,3.758c0.695,2.292 1.97,4.881 3.731,7.581c1.383,-1.712 2.92,-3.426 4.597,-5.103c1.677,-1.677 3.391,-3.214 5.103,-4.597Zm16.456,9.7c1.761,-2.7 3.036,-5.289 3.731,-7.581c0.425,-1.403 0.629,-2.673 0.541,-3.758c-0.062,-0.775 -0.268,-1.435 -0.733,-1.9c-0.465,-0.465 -1.125,-0.671 -1.9,-0.733c-1.085,-0.088 -2.355,0.116 -3.758,0.541c-2.292,0.695 -4.881,1.97 -7.581,3.731c1.712,1.383 3.426,2.92 5.103,4.597c1.677,1.677 3.214,3.391 4.597,5.103Zm-9.7,16.456c2.7,1.761 5.289,3.036 7.581,3.731c1.403,0.425 2.673,0.629 3.758,0.541c0.775,-0.062 1.435,-0.268 1.9,-0.733c0.465,-0.465 0.671,-1.125 0.733,-1.9c0.088,-1.085 -0.116,-2.355 -0.541,-3.758c-0.695,-2.292 -1.97,-4.881 -3.731,-7.581c-1.383,1.712 -2.92,3.426 -4.597,5.103c-1.677,1.677 -3.391,3.214 -5.103,4.597Zm-3.378,-23.739c-1.889,1.47 -3.793,3.149 -5.652,5.009c-1.86,1.859 -3.539,3.763 -5.009,5.652c1.47,1.889 3.149,3.793 5.009,5.652c1.859,1.86 3.763,3.539 5.652,5.009c1.889,-1.47 3.793,-3.149 5.652,-5.009c1.86,-1.859 3.539,-3.763 5.009,-5.652c-1.47,-1.889 -3.149,-3.793 -5.009,-5.652c-1.859,-1.86 -3.763,-3.539 -5.652,-5.009Z" style="fill:#fff;stroke:#000;stroke-width:2px;"/>
</svg>
