<svg width="100%" height="100%" viewBox="0 0 48 48" version="1.1" xmlns="http://www.w3.org/2000/svg" xmlns:xlink="http://www.w3.org/1999/xlink" xml:space="preserve" xmlns:serif="http://www.serif.com/" style="fill-rule:evenodd;clip-rule:evenodd;stroke-linejoin:round;stroke-miterlimit:2;">
  <path d="M24,3c11.59,0 21,9.41 21,21c0,11.59 -9.41,21 -21,21c-11.59,-0 -21,-9.41 -21,-21c0,-11.59 9.41,-21 21,-21Zm3.119,2.975c-1.014,-0.174 -2.056,-0.265 -3.119,-0.265c-7.877,-0 -14.598,4.99 -17.171,11.979l20.29,-11.714Zm6.533,2.489c-0.913,-0.569 -1.88,-1.059 -2.892,-1.462l-24.86,14.353c-0.125,0.863 -0.19,1.747 -0.19,2.645c-0,5.628 2.547,10.666 6.552,14.023l11.335,-6.545l-11.609,-8.298c-0.608,-0.434 -0.749,-1.281 -0.314,-1.89c0.135,-0.188 0.309,-0.332 0.504,-0.428l21.474,-12.398Zm8.378,18.626c0.171,-1.004 0.26,-2.037 0.26,-3.09c0,-5.495 -2.428,-10.427 -6.269,-13.781l-11.127,6.424l11.393,8.447c0.601,0.445 0.727,1.295 0.282,1.895c-0.133,0.18 -0.303,0.317 -0.49,0.409l-4.534,2.617c-0.053,0.033 -0.107,0.064 -0.161,0.094l-4.53,2.615c-0.054,0.034 -0.109,0.066 -0.165,0.095l-12,6.928c0.94,0.557 1.934,1.033 2.971,1.417l24.37,-14.07Zm-20.598,15.021c0.839,0.118 1.697,0.179 2.568,0.179c7.68,0 14.261,-4.744 16.97,-11.459l-19.538,11.28Zm-6.159,-19.913l10.902,7.792l2.15,-1.242l-10.681,-7.919l-2.371,1.369Zm7.063,-4.078l-2.134,1.232l10.681,7.92l2.135,-1.233l-10.682,-7.919Z" style="fill:#6366f1;"/>  
</svg>
