<svg width="100%" height="100%" viewBox="0 0 24 24">
	<path d="M3.853,21.273l-0.682,-18.161c-0.021,-0.596 0.443,-1.108 1.039,-1.144l15.444,-0.966c0.023,-0.001 0.046,-0.002 0.07,-0.002c0.606,0 1.105,0.499 1.105,1.105c0,0.001 0,0.001 0,0.002l0,19.787c-0,0.607 -0.499,1.106 -1.106,1.106c-0.017,0 -0.033,-0 -0.05,-0.001l-14.764,-0.663c-0.572,-0.026 -1.034,-0.492 -1.056,-1.064l0,0.001Z" style="fill:#ff4785;fill-rule:nonzero;"/>
	<path d="M18.439,1.078l-2.125,0.132l-0.103,2.494c-0,0.002 -0.001,0.004 -0.001,0.007c0,0.09 0.075,0.165 0.165,0.165c0.036,-0 0.071,-0.012 0.1,-0.034l0.968,-0.734l0.818,0.644c0.029,0.023 0.065,0.036 0.102,0.036c0.091,-0 0.165,-0.075 0.165,-0.165c0,-0.002 0,-0.004 0,-0.006l-0.088,-2.539l-0.001,0Zm-1.654,8.349c-0.389,0.303 -3.288,0.508 -3.288,0.078c0.061,-1.642 -0.673,-1.714 -1.083,-1.714c-0.387,0 -1.04,0.117 -1.04,0.997c-0,0.897 0.955,1.403 2.076,1.997c1.591,0.843 3.52,1.865 3.52,4.435c-0,2.464 -2.002,3.823 -4.554,3.823c-2.635,0 -4.937,-1.066 -4.678,-4.76c0.103,-0.434 3.452,-0.33 3.452,-0c-0.042,1.524 0.306,1.973 1.184,1.973c0.674,-0 0.98,-0.372 0.98,-0.997c-0,-0.947 -0.994,-1.506 -2.14,-2.148c-1.549,-0.87 -3.373,-1.894 -3.373,-4.245c-0,-2.345 1.612,-3.909 4.492,-3.909c2.88,-0 4.452,1.54 4.452,4.47Z" style="fill:#fff;"/>
</svg>